<?xml version="1.0" encoding="UTF-8" standalone="no"?>
<svg xmlns:dc="http://purl.org/dc/elements/1.1/" xmlns:cc="http://creativecommons.org/ns#"
  xmlns:rdf="http://www.w3.org/1999/02/22-rdf-syntax-ns#" xmlns:svg="http://www.w3.org/2000/svg"
  xmlns="http://www.w3.org/2000/svg" xmlns:sodipodi="http://sodipodi.sourceforge.net/DTD/sodipodi-0.dtd"
  xmlns:inkscape="http://www.inkscape.org/namespaces/inkscape" viewBox="0 0 560.156 135.03267" height="135.03267"
  width="560.15601" xml:space="preserve" id="svg2" version="1.1" sodipodi:docname="PIC OCCAZ HORIZONTAL.svg"
  inkscape:version="0.92.3 (2405546, 2018-03-11)">
  <sodipodi:namedview pagecolor="#ffffff" bordercolor="#666666" borderopacity="1" objecttolerance="10"
    gridtolerance="10" guidetolerance="10" inkscape:pageopacity="0" inkscape:pageshadow="2" inkscape:window-width="1853"
    inkscape:window-height="1018" id="namedview204" showgrid="false" inkscape:zoom="1.0331342" inkscape:cx="285.14095"
    inkscape:cy="11.022129" inkscape:window-x="67" inkscape:window-y="260" inkscape:window-maximized="1"
    inkscape:current-layer="svg2" />
  <metadata id="metadata8">
    <rdf:RDF>
      <cc:Work rdf:about="">
        <dc:format>image/svg+xml</dc:format>
        <dc:type rdf:resource="http://purl.org/dc/dcmitype/StillImage" />
      </cc:Work>
    </rdf:RDF>
  </metadata>
  <defs id="defs6">
    <clipPath id="clipPath18" clipPathUnits="userSpaceOnUse">
      <path id="path16" d="M 0,595.276 H 595.276 V 0 H 0 Z" inkscape:connector-curvature="0" />
    </clipPath>
  </defs>
  <g transform="matrix(1.3333333,0,0,-1.3333333,-111.70972,520.86119)" id="g10">
    <g id="g12">
      <g clip-path="url(#clipPath18)" id="g14">
        <g transform="translate(114.5752,332.009)" id="g20">
          <path id="path22" style="fill:#d23134;fill-opacity:1;fill-rule:nonzero;stroke:none"
            d="m 0,0 v 5.476 c 0,1.927 -1.342,3.448 -2.935,3.245 l -8.974,-1.116 c -1.425,-0.202 -2.432,-1.521 -2.432,-3.143 v -5.578 c 0,-1.926 1.342,-3.448 2.936,-3.245 l 8.973,1.116 C -1.006,-3.042 0,-1.623 0,0 m 11.322,21.601 1.677,-34.988 c 0.084,-1.724 -0.923,-3.143 -2.348,-3.346 l -22.643,-3.246 c -1.342,-0.202 -2.433,-1.521 -2.433,-3.143 l -0.419,-14.563 c 0,-1.825 -1.258,-3.245 -2.683,-3.245 h -10.567 c -1.593,0 -2.851,1.724 -2.684,3.55 l 5.367,56.547 c 0.084,1.521 1.175,2.839 2.516,2.94 L 8.47,24.643 c 1.426,0.101 2.768,-1.217 2.852,-3.042"
            inkscape:connector-curvature="0" />
        </g>
        <g transform="translate(137.5229,342.1574)" id="g24">
          <path id="path26" style="fill:#d23134;fill-opacity:1;fill-rule:nonzero;stroke:none"
            d="M 0,0 H 6.793 C 8.47,0 9.812,-1.28 9.896,-2.879 l 1.174,-45.13 c 0.084,-1.679 -1.258,-3.039 -2.935,-3.039 l -8.302,-0.16 c -1.762,0 -3.187,1.279 -3.187,2.879 l 0.335,45.37 C -3.019,-1.36 -1.677,0 0,0 m -3.69,9.437 -0.587,4.719 c -0.252,1.759 1.258,3.359 3.103,3.359 H 4.78 c 1.678,0 3.019,-1.36 3.019,-2.96 V 9.757 c 0,-1.6 -1.341,-2.88 -3.019,-2.88 h -5.367 c -1.593,0 -2.935,1.04 -3.103,2.56"
            inkscape:connector-curvature="0" />
        </g>
        <g transform="translate(204.6836,326.8093)" id="g28">
          <path id="path30" style="fill:#d23134;fill-opacity:1;fill-rule:nonzero;stroke:none"
            d="m 0,0 4.529,24.907 c 0.419,2.097 2.767,3.103 4.528,1.845 l 8.974,-6.373 c 1.174,-0.839 1.426,-2.516 0.755,-3.775 L 7.883,-3.104 C 7.128,-4.445 5.535,-4.948 4.109,-4.277 L 1.594,-3.104 C 0.335,-2.516 -0.251,-1.258 0,0"
            inkscape:connector-curvature="0" />
        </g>
        <g transform="translate(257.6348,304.6462)" id="g32">
          <path id="path34" style="fill:#d23134;fill-opacity:1;fill-rule:nonzero;stroke:none"
            d="m 0,0 0.837,50.89 c -0.076,1.21 -1.059,2.042 -2.193,2.042 L -8.01,52.856 c -1.21,0 -2.118,-0.983 -2.118,-2.269 l -3.71,-50.814 c 0,-1.286 0.983,-2.344 2.193,-2.344 h 9.528 c 1.285,0 2.268,1.21 2.117,2.571 m 9.76,61.022 1.508,-71.23 c 0.226,-2.042 -1.21,-3.782 -3.177,-3.857 l -30.323,-1.059 c -1.891,-0.076 -3.554,1.588 -3.403,3.63 l 5.904,72.366 c 0.075,1.815 1.512,3.251 3.252,3.251 H 6.508 c 1.664,0 3.101,-1.361 3.252,-3.101"
            inkscape:connector-curvature="0" />
        </g>
        <g transform="translate(312.8359,350.2502)" id="g36">
          <path id="path38" style="fill:#d23134;fill-opacity:1;fill-rule:nonzero;stroke:none"
            d="m 0,0 v -6.276 c 0,-1.815 -1.437,-3.328 -3.328,-3.328 h -17.467 c -1.74,0 -3.101,0.095 -3.252,-1.644 l -1.966,-33.127 c -0.152,-1.966 1.436,-3.63 3.327,-3.63 h 20.115 c 1.512,0 2.798,-1.058 3.175,-2.495 l 1.362,-5.596 c 0.529,-2.193 -1.21,-4.159 -3.403,-4.084 l -33.877,1.74 c -1.815,0.076 -3.252,1.664 -3.101,3.554 l 2.873,54.205 c 0.076,1.74 1.513,3.025 3.177,3.101 L -3.403,3.327 C -1.513,3.403 0,1.891 0,0"
            inkscape:connector-curvature="0" />
        </g>
        <g transform="translate(350.2432,336.4001)" id="g40">
          <path id="path42" style="fill:#d23134;fill-opacity:1;fill-rule:nonzero;stroke:none"
            d="m 0,0 v -4.96 c 0,-1.434 -1.136,-2.629 -2.63,-2.629 h -13.803 c -1.375,0 -2.45,-1.016 -2.57,-2.39 l -2.623,-22.851 c -0.119,-1.554 1.136,-2.868 2.63,-2.868 h 15.894 c 1.196,0 2.211,-0.837 2.51,-1.972 l 1.076,-4.422 c 0.418,-1.733 -0.957,-3.286 -2.689,-3.227 l -26.771,1.374 c -1.434,0.06 -2.569,1.315 -2.45,2.809 l 3.341,40.598 c 0.06,1.374 1.194,2.391 2.509,2.45 L -2.689,2.629 C -1.195,2.689 0,1.494 0,0"
            inkscape:connector-curvature="0" />
        </g>
        <g transform="translate(379.4512,336.0964)" id="g44">
          <path id="path46" style="fill:#d23134;fill-opacity:1;fill-rule:nonzero;stroke:none"
            d="M 0,0 0.227,2.344 C 0.454,4.31 -1.059,6.049 -3.024,6.049 h -4.311 c -1.814,0 -3.252,-1.512 -3.252,-3.327 v -3.025 c 0,-2.041 1.816,-3.554 3.781,-3.251 l 4.083,0.68 C -1.285,-2.647 -0.151,-1.437 0,0 m 10.89,15.048 6.561,-57.992 c 0.303,-2.042 -1.361,-3.781 -3.403,-3.781 l -4.839,0.075 c -1.664,0 -2.949,1.286 -3.177,2.874 L 3.63,-15.805 c -0.227,1.815 -1.891,3.101 -3.705,2.874 l -8.016,-1.134 c -1.513,-0.227 -2.647,-1.361 -2.874,-2.798 l -2.361,-26.61 c -0.227,-1.739 -1.739,-3.026 -3.479,-2.874 l -4.915,0.378 c -1.814,0.151 -3.176,1.664 -3.024,3.554 l 3.949,59.051 c 0.151,1.815 1.739,3.176 3.554,3.025 l 25.03,-1.74 c 1.588,-0.075 2.873,-1.285 3.101,-2.873"
            inkscape:connector-curvature="0" />
        </g>
        <g transform="translate(404.9678,369.7053)" id="g48">
          <path id="path50" style="fill:#d23134;fill-opacity:1;fill-rule:nonzero;stroke:none"
            d="m 0,0 26.921,-3.176 c 0.529,-0.075 0.982,-0.453 1.134,-0.983 l 2.798,-9.15 c 0.151,-0.453 0,-0.983 -0.302,-1.361 L 10.843,-65.135 c -0.832,-0.907 -0.152,-2.344 1.134,-2.268 l 19.661,1.512 c 0.832,0.076 1.512,-0.605 1.512,-1.437 v -9.225 c 0,-0.757 -0.605,-1.361 -1.361,-1.361 l -32.894,-0.832 c -0.605,0 -1.21,0.378 -1.362,0.907 l -3.327,10.436 c -0.151,0.529 0,1.058 0.303,1.436 l 21.749,51.448 c 0.832,0.832 0.303,2.269 -0.907,2.345 l -17.468,0.756 c -0.907,0.075 -1.437,0.832 -1.285,1.663 l 1.889,8.696 C -1.361,-0.378 -0.681,0.076 0,0"
            inkscape:connector-curvature="0" />
        </g>
        <g transform="translate(486.3467,312.4382)" id="g52">
          <path id="path54"
            style="fill:none;stroke:#231f20;stroke-width:2.06999993;stroke-linecap:round;stroke-linejoin:round;stroke-miterlimit:10;stroke-dasharray:none;stroke-opacity:1"
            d="m 0,0 8.732,-2.002 3.641,6.474" inkscape:connector-curvature="0" />
        </g>
        <g transform="translate(483.9951,325.9069)" id="g56">
          <path id="path58" style="fill:#231f20;fill-opacity:1;fill-rule:nonzero;stroke:none"
            d="m 0,0 c -0.354,0.139 -0.577,0.509 -0.516,0.9 0.072,0.453 0.496,0.762 0.949,0.69 5.421,-0.853 9.265,5.288 9.425,5.55 0.241,0.39 0.749,0.513 1.141,0.272 0.39,-0.24 0.512,-0.75 0.272,-1.14 C 11.044,5.903 9.81,3.978 7.773,2.323 5.369,0.368 2.741,-0.451 0.175,-0.047 0.113,-0.038 0.056,-0.021 0,0"
            inkscape:connector-curvature="0" />
        </g>
        <g transform="translate(444.085,339.3557)" id="g60">
          <path id="path62" style="fill:#27b1ec;fill-opacity:1;fill-rule:nonzero;stroke:none"
            d="M 0,0 C 5.004,1.92 8.702,-4.573 8.702,-4.573 L 8.691,-4.768 c 0.038,0.067 0.078,0.132 0.116,0.197 C 8.745,-4.572 8.702,-4.573 8.702,-4.573 8.483,-0.168 16.429,6.056 23.89,6.101 c 7.461,0.046 8.937,1.063 10.475,1.982 0.265,-1.78 -0.353,-3.745 -1.266,-5.528 2.152,-0.956 4.17,-2.417 6.007,-4.456 9.055,-10.045 8.702,-21.998 1.496,-28.885 C 31.814,-39.184 18.934,-40.973 11.013,-31.558 4.8,-24.173 4.624,-14.782 7.225,-7.89 5.916,-7.959 3.849,-8.437 2.153,-10.496 -1.283,-14.669 2.005,-20.848 2.005,-20.848 c 0,0 -3.335,0.322 -6.45,5.257 C -8.938,-7.929 -5.003,-1.92 0,0"
            inkscape:connector-curvature="0" />
        </g>
        <g transform="translate(480.1064,329.6227)" id="g64">
          <path id="path66" style="fill:#231f20;fill-opacity:1;fill-rule:nonzero;stroke:none"
            d="m 0,0 c -0.439,0.528 -0.933,0.79 -1.43,0.837 -0.498,0.08 -1.025,-0.052 -1.536,-0.49 -0.374,-0.321 -0.698,-0.73 -1.013,-1.137 -1.088,-1.276 -2.138,-2.479 -3.725,-3.15 -0.031,-0.013 -0.064,-0.026 -0.095,-0.039 -1.822,-0.744 -3.787,-0.999 -5.677,-1.484 -0.995,-0.256 -1.562,-0.835 -1.704,-1.595 -10e-4,-0.002 -10e-4,-0.004 -0.002,-0.005 -0.01,-0.062 -0.017,-0.124 -0.023,-0.188 -0.003,-0.022 -0.006,-0.043 -0.007,-0.066 -0.003,-0.046 -0.002,-0.093 -0.002,-0.139 0,-0.041 -10e-4,-0.08 0.001,-0.121 10e-4,-0.032 0.007,-0.067 0.01,-0.1 0.005,-0.054 0.009,-0.109 0.017,-0.165 0.004,-0.026 0.012,-0.053 0.017,-0.079 0.011,-0.063 0.023,-0.125 0.038,-0.19 0.01,-0.037 0.023,-0.076 0.034,-0.114 0.015,-0.053 0.03,-0.107 0.048,-0.161 0.032,-0.094 0.069,-0.189 0.11,-0.286 0.022,-0.07 0.053,-0.141 0.095,-0.214 0.031,-0.063 0.067,-0.119 0.104,-0.171 1.483,-2.381 5.481,-7.169 8.019,-7.558 2.752,-0.422 6.041,-0.055 7.533,2.72 1.061,1.977 1.71,4.747 1.329,7.171 C 2.027,-5.652 0.724,-0.871 0,0"
            inkscape:connector-curvature="0" />
        </g>
        <g transform="translate(473.9883,335.7028)" id="g68">
          <path id="path70" style="fill:#231f20;fill-opacity:1;fill-rule:nonzero;stroke:none"
            d="m 0,0 c -0.666,-0.43 -2.266,-1.27 -1.969,-2.31 0.149,-0.52 0.547,-0.926 1.102,-0.834 0.459,0.077 0.933,0.626 0.784,1.15 0.029,-0.222 -0.012,-0.423 -0.122,-0.603 0.058,0.078 0.029,0.049 -0.085,-0.087 -0.002,0.034 0.151,0.146 0.176,0.167 0.146,0.13 0.301,0.248 0.458,0.363 0.143,0.105 0.29,0.208 0.437,0.308 0.139,0.094 0.296,0.194 0.01,0.009 0.438,0.283 0.709,0.785 0.476,1.326 C 1.074,-0.065 0.441,0.285 0,0"
            inkscape:connector-curvature="0" />
        </g>
        <g transform="translate(465.959,331.2443)" id="g72">
          <path id="path74" style="fill:#231f20;fill-opacity:1;fill-rule:nonzero;stroke:none"
            d="m 0,0 c -0.666,-0.43 -2.266,-1.27 -1.969,-2.31 0.15,-0.52 0.548,-0.927 1.102,-0.834 0.459,0.077 0.934,0.626 0.785,1.15 0.028,-0.223 -0.013,-0.424 -0.123,-0.603 0.058,0.078 0.03,0.049 -0.084,-0.088 -0.002,0.035 0.15,0.147 0.175,0.168 0.146,0.13 0.301,0.247 0.458,0.362 0.143,0.106 0.29,0.209 0.437,0.309 0.139,0.094 0.296,0.194 0.011,0.009 0.437,0.283 0.708,0.785 0.476,1.326 C 1.074,-0.066 0.441,0.285 0,0"
            inkscape:connector-curvature="0" />
        </g>
        <g transform="translate(474.3633,324.4377)" id="g76">
          <path id="path78" style="fill:#ffffff;fill-opacity:1;fill-rule:nonzero;stroke:none"
            d="M 0,0 C -0.966,-0.576 -2.02,-0.941 -3.095,-1.237 -2.104,-2.86 -0.5,-3.393 1.26,-2.559 Z"
            inkscape:connector-curvature="0" />
        </g>
        <g transform="translate(476.7236,326.4914)" id="g80">
          <path id="path82" style="fill:#ffffff;fill-opacity:1;fill-rule:nonzero;stroke:none"
            d="m 0,0 c -0.501,-0.567 -1.028,-1.1 -1.621,-1.554 l 1.285,-2.612 c 1.658,1.17 2.081,3.024 0.863,4.878 C 0.34,0.443 0.162,0.185 0,0"
            inkscape:connector-curvature="0" />
        </g>
        <g transform="translate(446.7461,343.2922)" id="g84">
          <path id="path86" style="fill:#271f21;fill-opacity:1;fill-rule:nonzero;stroke:none"
            d="M 0,0 C -1.246,0.839 -2.48,1.693 -3.727,2.532 -4.655,3.158 -5.849,1.747 -4.909,1.114 -3.664,0.275 -2.43,-0.579 -1.184,-1.418 -0.255,-2.044 0.938,-0.632 0,0"
            inkscape:connector-curvature="0" />
        </g>
        <g transform="translate(450.3857,345.6955)" id="g88">
          <path id="path90" style="fill:#271f21;fill-opacity:1;fill-rule:nonzero;stroke:none"
            d="M 0,0 C -0.286,1.231 -0.347,2.513 -0.507,3.77 -0.652,4.915 -2.442,4.717 -2.296,3.565 -2.115,2.153 -2.022,0.729 -1.701,-0.654 -1.44,-1.778 0.258,-1.114 0,0"
            inkscape:connector-curvature="0" />
        </g>
        <g transform="translate(455.3379,345.3635)" id="g92">
          <path id="path94" style="fill:#271f21;fill-opacity:1;fill-rule:nonzero;stroke:none"
            d="M 0,0 C 0.466,1.078 0.87,2.178 1.112,3.321 1.356,4.472 -0.402,4.734 -0.646,3.581 -0.858,2.585 -1.207,1.651 -1.612,0.712 -2.081,-0.372 -0.472,-1.092 0,0"
            inkscape:connector-curvature="0" />
        </g>
        <g transform="translate(454,302.9387)" id="g96">
          <path id="path98" style="fill:#231f20;fill-opacity:1;fill-rule:nonzero;stroke:none"
            d="M 0,0 C -0.062,-0.022 -0.127,-0.039 -0.194,-0.046 -0.649,-0.098 -1.061,0.228 -1.112,0.683 -1.546,4.458 0.536,8.608 2.471,9.073 2.916,9.179 3.363,8.905 3.47,8.46 3.577,8.015 3.306,7.568 2.857,7.46 1.916,7.234 0.187,3.903 0.534,0.872 0.579,0.485 0.35,0.13 0,0"
            inkscape:connector-curvature="0" />
        </g>
        <g transform="translate(472.6445,305.6877)" id="g100">
          <path id="path102"
            style="fill:none;stroke:#231f20;stroke-width:2.06999993;stroke-linecap:round;stroke-linejoin:round;stroke-miterlimit:10;stroke-dasharray:none;stroke-opacity:1"
            d="m 0,0 c 0,0 11.143,0.895 9.03,-6.566 -2.113,-7.46 -1.97,-7.285 -1.97,-7.285 l 6.537,-0.986"
            inkscape:connector-curvature="0" />
        </g>
        <g transform="translate(478.043,366.3498)" id="g104">
          <path id="path106"
            style="fill:none;stroke:#ffffff;stroke-width:0.19;stroke-linecap:butt;stroke-linejoin:miter;stroke-miterlimit:10;stroke-dasharray:none;stroke-opacity:1"
            d="m 0,0 c 0.724,-1.75 2.728,-2.583 4.478,-1.86 1.75,0.723 2.583,2.728 1.86,4.478 C 5.614,4.368 3.609,5.201 1.859,4.478 0.109,3.754 -0.723,1.75 0,0 Z"
            inkscape:connector-curvature="0" />
        </g>
        <g transform="translate(500.2705,321.3337)" id="g108">
          <path id="path110" style="fill:#dc382f;fill-opacity:1;fill-rule:nonzero;stroke:none"
            d="M 0,0 0.136,0.056 C 0.633,0.262 0.87,0.831 0.664,1.329 l -16.347,39.567 c -0.205,0.497 -0.774,0.733 -1.272,0.528 l -0.135,-0.056 c -0.498,-0.205 -0.734,-0.775 -0.528,-1.272 L -1.272,0.529 C -1.066,0.031 -0.497,-0.205 0,0"
            inkscape:connector-curvature="0" />
        </g>
        <g transform="translate(481.2119,367.6589)" id="g112">
          <path id="path114" style="fill:#f6da18;fill-opacity:1;fill-rule:nonzero;stroke:none"
            d="M 0,0 -9.497,22.987 6.559,16.319 11.355,4.708 Z" inkscape:connector-curvature="0" />
        </g>
        <g transform="translate(492.5674,372.3674)" id="g116">
          <path id="path118" style="fill:#dc382f;fill-opacity:1;fill-rule:nonzero;stroke:none"
            d="M 0,0 -4.797,11.611 -11.355,-4.708 Z" inkscape:connector-curvature="0" />
        </g>
        <g transform="translate(481.0801,367.8107)" id="g120">
          <path id="path122" style="fill:#f6da18;fill-opacity:1;fill-rule:nonzero;stroke:none"
            d="m 0,0 -22.989,-9.492 6.672,16.054 11.612,4.794 z" inkscape:connector-curvature="0" />
        </g>
        <g transform="translate(476.375,379.1672)" id="g124">
          <path id="path126" style="fill:#27b1ec;fill-opacity:1;fill-rule:nonzero;stroke:none"
            d="M 0,0 -11.612,-4.794 4.705,-11.356 Z" inkscape:connector-curvature="0" />
        </g>
        <g transform="translate(480.8555,367.8537)" id="g128">
          <path id="path130" style="fill:#f6da18;fill-opacity:1;fill-rule:nonzero;stroke:none"
            d="m 0,0 9.682,-22.91 -16.109,6.538 -4.89,11.572 z" inkscape:connector-curvature="0" />
        </g>
        <g transform="translate(469.5381,363.0539)" id="g132">
          <path id="path134" style="fill:#dc382f;fill-opacity:1;fill-rule:nonzero;stroke:none"
            d="M 0,0 4.891,-11.572 11.317,4.8 Z" inkscape:connector-curvature="0" />
        </g>
        <g transform="translate(480.9873,367.7028)" id="g136">
          <path id="path138" style="fill:#f6da18;fill-opacity:1;fill-rule:nonzero;stroke:none"
            d="M 0,0 22.912,9.677 16.371,-6.43 4.798,-11.318 Z" inkscape:connector-curvature="0" />
        </g>
        <g transform="translate(485.7852,356.3849)" id="g140">
          <path id="path142" style="fill:#27b1ec;fill-opacity:1;fill-rule:nonzero;stroke:none"
            d="m 0,0 11.573,4.888 -16.371,6.43 z" inkscape:connector-curvature="0" />
        </g>
        <g transform="translate(194.4443,350.2502)" id="g144">
          <path id="path146" style="fill:#d23134;fill-opacity:1;fill-rule:nonzero;stroke:none"
            d="m 0,0 v -6.276 c 0,-1.815 -1.437,-3.328 -3.328,-3.328 h -17.467 c -1.74,0 -3.101,0.095 -3.252,-1.644 l -1.966,-33.127 c -0.152,-1.966 1.436,-3.63 3.327,-3.63 h 20.115 c 1.512,0 2.798,-1.058 3.175,-2.495 l 1.362,-5.596 c 0.529,-2.193 -1.21,-4.159 -3.403,-4.084 l -33.877,1.74 c -1.815,0.076 -3.252,1.664 -3.101,3.554 l 2.874,54.205 c 0.075,1.74 1.512,3.025 3.176,3.101 L -3.403,3.327 C -1.513,3.403 0,1.891 0,0"
            inkscape:connector-curvature="0" />
        </g>
      </g>
    </g>
  </g>
</svg>