<svg width="117" height="25" viewBox="0 0 117 25" fill="none" xmlns="http://www.w3.org/2000/svg">
  <path
    d="M29.0901 12.2507C29.1281 12.2536 29.1558 12.2572 29.1842 12.2572C30.5149 12.2558 31.8464 12.2601 33.1764 12.2478C33.6977 12.2428 34.2133 12.1647 34.7084 11.992C35.369 11.7615 35.9151 11.3894 36.2221 10.742C36.5225 10.109 36.5831 9.44348 36.4679 8.75991C36.3308 7.94339 35.9159 7.31908 35.1648 6.92888C34.5458 6.60661 33.8764 6.47943 33.1895 6.4686C31.8551 6.44836 30.5208 6.45487 29.1864 6.45198C29.155 6.45198 29.1229 6.45631 29.0887 6.45848V12.2507H29.0901ZM33.4921 4.93816C33.7109 4.95984 33.9296 4.97863 34.1484 5.00464C34.8841 5.09279 35.5936 5.27344 36.2542 5.61884C37.1715 6.09863 37.7855 6.82772 38.072 7.81405C38.3994 8.94778 38.3958 10.0765 37.9415 11.1813C37.5558 12.117 36.8784 12.7695 35.9348 13.1511C35.9086 13.1626 35.8809 13.1727 35.8546 13.1843C35.8488 13.1865 35.8451 13.1944 35.8349 13.206C36.3176 13.5441 36.5371 14.0637 36.7785 14.5659C36.901 14.821 37.0096 15.0825 37.1234 15.3412C37.8941 17.0841 38.6634 18.8262 39.4334 20.5698C39.4509 20.6081 39.4655 20.6479 39.4859 20.6977C39.4472 20.7013 39.4173 20.7071 39.3867 20.7071C38.8267 20.7078 38.2653 20.7057 37.7053 20.71C37.6243 20.7107 37.5937 20.6789 37.5645 20.6117C36.7588 18.7872 35.9523 16.9627 35.1415 15.1396C35.046 14.9236 34.9322 14.7155 34.8199 14.5081C34.5647 14.0384 34.1513 13.8223 33.6256 13.7978C33.3769 13.7862 33.1275 13.7768 32.8782 13.7761C31.6626 13.7739 30.4478 13.7754 29.2323 13.7754H29.0916V20.6977H27.3569V20.551C27.3569 15.3997 27.3569 10.2492 27.3562 5.09785C27.3562 5.04438 27.3518 4.99091 27.3496 4.93744L33.4921 4.93816Z"
    fill="black" />
  <path
    d="M3.4541 4.95824H5.18077V19.1939H11.6179V20.699C11.5843 20.7012 11.55 20.7048 11.5158 20.7048C8.84993 20.7048 6.1841 20.7048 3.519 20.7048C3.49785 20.7048 3.47598 20.7026 3.4541 20.7019V4.95824Z"
    fill="black" />
  <path
    d="M48.2264 14.1764C48.198 13.9885 48.179 13.8079 48.1411 13.6316C47.9537 12.7616 47.4907 12.0903 46.658 11.7153C45.8005 11.3294 44.9145 11.3005 44.0315 11.6149C43.0151 11.9769 42.4208 12.7363 42.1065 13.7342C42.0613 13.8751 42.0365 14.0225 42.0008 14.1771H48.2264V14.1764ZM49.7518 18.7265C49.4179 19.2381 48.9884 19.6334 48.4838 19.9477C47.4447 20.5959 46.3116 20.9196 45.0801 20.8712C42.6738 20.7751 40.7313 19.1109 40.3069 16.8247C40.0984 15.7011 40.0758 14.5789 40.4003 13.4741C40.8137 12.0629 41.6617 10.9855 42.9932 10.3091C43.5678 10.0179 44.1868 9.88715 44.8285 9.85102C45.7122 9.80116 46.5654 9.92906 47.3711 10.3026C48.327 10.7463 49.0132 11.4552 49.4448 12.4082C49.8998 13.4141 50.0048 14.4799 49.983 15.5818H41.8054C41.8127 15.7292 41.8141 15.8593 41.8251 15.9894C41.879 16.6187 42.0241 17.225 42.3931 17.7474C42.9706 18.5661 43.7573 19.0929 44.7578 19.2634C45.9273 19.4628 46.9759 19.1644 47.9041 18.4418C48.0397 18.3363 48.1498 18.1998 48.276 18.082C48.2979 18.0618 48.3482 18.0459 48.3715 18.056C48.8287 18.2756 49.2837 18.4982 49.7518 18.7265Z"
    fill="black" />
  <path
    d="M19.3879 15.4554C19.0474 15.4843 18.7229 15.506 18.4006 15.5392C17.7305 15.6057 17.0721 15.7264 16.4355 15.9504C15.8988 16.1397 15.3972 16.389 15.0071 16.8138C14.6775 17.1715 14.4894 17.5841 14.5389 18.0827C14.6089 18.7836 15.0647 19.2923 15.7588 19.4368C16.1912 19.5264 16.6222 19.4932 17.0502 19.4137C17.8705 19.262 18.6281 18.9635 19.2997 18.4621C19.3638 18.4136 19.3894 18.3652 19.3894 18.2843C19.3857 17.3847 19.3872 16.4858 19.3872 15.5862L19.3879 15.4554ZM14.4471 12.2449C14.2349 11.8432 14.0263 11.4487 13.8091 11.0361C14.0256 10.9132 14.2312 10.7882 14.4442 10.6784C15.3097 10.2325 16.2299 9.96013 17.2033 9.89365C18.0966 9.83223 18.9584 9.95869 19.7401 10.424C20.5531 10.9082 20.9702 11.6336 21.0096 12.5679C21.0256 12.9726 21.0169 13.378 21.0169 13.7826C21.0176 16.0407 21.0169 18.2988 21.0169 20.5576V20.6999H19.3894V19.9188C19.3369 19.9448 19.3026 19.9607 19.2683 19.9788C18.5443 20.3675 17.7896 20.6761 16.9736 20.8184C16.2292 20.9485 15.4927 20.9347 14.7708 20.684C13.7916 20.3429 13.182 19.6652 12.9829 18.6622C12.7875 17.6759 13.0172 16.7748 13.6917 16.0096C14.1751 15.4612 14.7861 15.0948 15.4781 14.8535C16.1818 14.6078 16.9051 14.443 17.643 14.3397C18.179 14.2646 18.7185 14.219 19.2574 14.1598C19.2968 14.1555 19.3361 14.1497 19.3719 14.1446C19.3777 14.1338 19.3843 14.128 19.3843 14.1222C19.3792 13.6713 19.4018 13.2168 19.3624 12.7688C19.2902 11.9617 18.841 11.5065 18.0382 11.3656C17.223 11.2232 16.4399 11.3497 15.6852 11.6611C15.3031 11.8186 14.9342 12.0101 14.5594 12.1864C14.5236 12.2045 14.4894 12.2233 14.4471 12.2449Z"
    fill="black" />
  <path
    d="M112.854 12.8389C112.419 11.5989 111.613 10.6979 110.373 10.2C109.584 9.88353 108.763 9.79465 107.917 9.86113C107.039 9.92833 106.235 10.2 105.53 10.7275C104.292 11.6553 103.624 12.909 103.443 14.4235C103.346 15.24 103.381 16.0551 103.549 16.8608C103.879 18.4462 104.774 19.6175 106.228 20.3451C107.331 20.8964 108.507 21.0034 109.711 20.7534C110.674 20.5539 111.548 20.1594 112.296 19.5156C112.561 19.2872 112.792 19.0293 112.979 18.7345C112.969 18.7236 112.966 18.7157 112.96 18.7128C112.51 18.4924 112.061 18.272 111.609 18.056C111.584 18.0444 111.527 18.0617 111.506 18.0849C110.753 18.918 109.785 19.2872 108.685 19.3212C107.796 19.3487 107.012 19.0416 106.316 18.4888C105.379 17.7445 105.069 16.7387 105.039 15.5826H113.211C113.213 15.5544 113.218 15.5406 113.218 15.5269C113.237 14.6128 113.159 13.7096 112.854 12.8389ZM105.247 14.1742C105.306 13.7551 105.442 13.3743 105.643 13.0152C106.159 12.0961 106.948 11.5715 107.997 11.4371C108.586 11.3612 109.166 11.4212 109.722 11.6394C110.65 12.0029 111.178 12.6944 111.381 13.6482C111.417 13.8187 111.435 13.9921 111.463 14.1742H105.247Z"
    fill="#4CC2B4" />
  <path
    d="M89.5118 12.4726C90.2074 11.9198 90.992 11.6127 91.8801 11.6401C92.9804 11.6741 93.948 12.0434 94.7013 12.8765C94.7224 12.8996 94.78 12.917 94.8041 12.9054C95.2562 12.6901 95.7053 12.469 96.1559 12.2486C96.161 12.2457 96.1654 12.2377 96.1742 12.2269C95.9875 11.9321 95.7564 11.6741 95.4917 11.4458C94.7428 10.8012 93.87 10.4074 92.9068 10.208C91.7022 9.95797 90.5268 10.0649 89.4236 10.6162C87.9696 11.3439 87.0742 12.5159 86.7446 14.1006C86.7176 14.2299 86.7023 14.3607 86.6848 14.4907V14.4243C86.6782 14.4777 86.6761 14.5312 86.6702 14.584C86.6556 14.7032 86.6462 14.8231 86.6381 14.9424C86.6338 15.0038 86.6309 15.0652 86.6279 15.1259C86.6236 15.2328 86.6199 15.3405 86.6206 15.4482C86.6192 15.6064 86.6236 15.7639 86.6323 15.9215C86.6323 15.9236 86.6323 15.9265 86.633 15.9287C86.6418 16.0913 86.6556 16.2531 86.6768 16.4157C86.6812 16.4562 86.6826 16.4966 86.6877 16.5371V16.4865C86.7052 16.6108 86.7198 16.7351 86.7453 16.8594C87.0749 18.4447 87.9703 19.616 89.4243 20.3437C90.5275 20.895 91.7029 21.002 92.9075 20.7519C93.8707 20.5525 94.7443 20.158 95.4924 19.5142C95.7571 19.2858 95.9882 19.0279 96.1749 18.733C96.1654 18.7222 96.1618 18.7143 96.1567 18.7114C95.706 18.491 95.2569 18.2706 94.8048 18.0545C94.7807 18.043 94.7231 18.0603 94.702 18.0834C93.9495 18.9166 92.9812 19.2858 91.8808 19.3198C90.9927 19.3472 90.2081 19.0401 89.5125 18.4874C88.5748 17.7431 88.2649 16.7373 88.235 15.5811V15.3774C88.2642 14.2227 88.5741 13.2176 89.5118 12.4726Z"
    fill="#4CC2B4" />
  <path
    d="M83.1929 10.2304C83.1929 12.5672 83.1929 14.9041 83.1907 17.2416C83.1907 17.3081 83.1688 17.3854 83.1309 17.4389C82.9668 17.6745 82.8021 17.9108 82.619 18.1326C82.234 18.5987 81.7914 18.9946 81.1913 19.1724C80.6962 19.3191 80.1916 19.3646 79.6798 19.2858C78.8602 19.1623 78.2579 18.7338 77.897 17.9917C77.6913 17.5697 77.6148 17.1137 77.614 16.647C77.6126 14.5002 77.614 12.3526 77.614 10.2058V10.0815H75.9931V10.2022C75.9924 12.3281 75.9916 14.4539 75.9924 16.579C75.9924 17.0025 76.0288 17.4223 76.1192 17.8378C76.3147 18.741 76.7485 19.5062 77.4908 20.0756C78.5036 20.8531 79.6652 21.015 80.9004 20.8408C81.7871 20.7151 82.4922 20.2714 83.0806 19.6218C83.1127 19.5872 83.1455 19.551 83.1958 19.4961V20.6949H84.8036V10.0837H83.1936V10.2304H83.1929Z"
    fill="#4CC2B4" />
  <path
    d="M102.189 19.168C101.73 19.2237 101.273 19.2974 100.813 19.3306C100.201 19.3732 99.7807 19.0445 99.672 18.4491C99.6268 18.2005 99.6195 17.9425 99.6188 17.6889C99.6122 15.657 99.6115 13.6244 99.6093 11.5917C99.6093 11.5578 99.6071 6.73161 99.6071 6.73161H97.9906C97.9906 6.73161 97.9877 16.2524 97.9928 18.5603C97.9935 19.0893 98.1328 19.5864 98.4828 19.9961C98.9655 20.5612 99.602 20.8394 100.339 20.895C100.843 20.9333 101.343 20.8863 101.84 20.8068C102.091 20.7657 102.34 20.7071 102.601 20.6544C102.493 20.145 102.389 19.6536 102.283 19.1565C102.245 19.1601 102.218 19.1644 102.189 19.168Z"
    fill="#4CC2B4" />
  <path
    d="M72.4974 11.341C71.4525 10.338 70.1809 9.898 68.6226 9.86403C68.3587 9.89294 67.9693 9.90811 67.593 9.98326C66.3272 10.2354 65.3188 10.841 64.5546 11.7601L59.0079 18.069L59.0166 18.0762C59.0166 18.0762 59.0166 18.0762 59.0159 18.0769C58.3808 18.7699 57.4205 19.3147 56.1145 19.3263C55.2089 19.3335 54.39 19.0597 53.6339 18.577C53.5712 18.5372 53.5617 18.4895 53.5617 18.4245C53.5632 17.4172 53.5624 16.4099 53.5624 15.4026C53.5624 14.3997 53.5624 13.3953 53.5617 12.3916C53.5617 12.3302 53.561 12.2789 53.6288 12.2384C54.6088 11.6611 55.6537 11.3598 56.8036 11.4913C57.6596 11.5896 58.3669 11.9342 58.9357 12.5029L59.1974 12.7804L58.8737 13.0376C58.8037 13.0933 58.8212 13.2024 58.905 13.2342L61.1968 14.1027C61.2617 14.1273 61.3288 14.0738 61.3193 14.0059L60.9598 11.6004C60.9467 11.513 60.8424 11.4725 60.7732 11.5274L60.4545 11.7811C60.4232 11.7341 60.3641 11.6495 60.289 11.5592L60.2912 11.5578C60.2795 11.5448 60.2671 11.5332 60.2555 11.5209C60.2277 11.4891 60.1979 11.4573 60.1665 11.427C60.1658 11.4263 60.165 11.4263 60.1643 11.4255C59.3972 10.643 58.4486 10.1451 57.3162 9.95436C56.1699 9.76215 55.0653 9.93051 53.9919 10.3474C53.8548 10.4002 53.7192 10.4587 53.5654 10.523V4.96057H51.9371V20.7028H53.5624V20.1544C53.5989 20.1703 53.6193 20.1768 53.6368 20.1869C54.5906 20.7288 55.6158 20.9759 56.7132 20.8914C58.0053 20.7924 59.1289 20.3097 60.0659 19.4123C60.2846 19.2027 60.4815 18.9816 60.6565 18.7489L63.2953 15.7134L65.9933 12.6099C66.5008 12.0535 67.1504 11.6799 67.9591 11.5281C70.4011 11.0729 72.0242 12.7298 72.3866 14.4199C72.4121 14.5384 72.4362 14.6584 72.4493 14.7791C72.4712 14.9893 72.4836 15.1996 72.4996 15.4106C72.4836 16.355 72.2415 17.2221 71.629 17.9649C70.9589 18.7764 70.105 19.2396 69.0412 19.3104C68.1078 19.3725 67.243 19.1825 66.4906 18.6109C66.3498 18.504 66.2193 18.3905 66.0975 18.272L65.7534 17.9057L66.0589 17.6586C66.1282 17.6022 66.1099 17.4931 66.0261 17.462L63.7263 16.6137C63.6614 16.5899 63.5943 16.6441 63.6052 16.712L63.9866 19.1138C64.0005 19.2013 64.1047 19.241 64.174 19.1847L64.4781 18.9383C64.5882 19.0929 64.8317 19.3234 64.8317 19.3234C64.9418 19.4332 65.057 19.5409 65.1788 19.6442C66.5511 20.8069 68.156 21.1075 69.8906 20.7924C71.3453 20.5279 72.4624 19.7259 73.2754 18.517C74.1329 17.2402 74.3152 15.8225 74.0841 14.3376C73.9018 13.1641 73.3578 12.1669 72.4974 11.341Z"
    fill="#4CC2B4" />
</svg>