<svg width="120" height="62" viewBox="0 0 120 62" fill="none" xmlns="http://www.w3.org/2000/svg">
  <path
    d="M27.8996 21.5727C27.374 21.5727 26.7944 21.4851 26.1609 21.3099C25.5409 21.1482 24.9748 20.9056 24.4626 20.5821V21.4312H22.9059L23.1485 16.7003H24.4829C24.5637 17.4551 24.7659 18.0886 25.0894 18.6008C25.4129 19.0995 25.8307 19.4769 26.3429 19.7329C26.855 19.989 27.4211 20.1171 28.0411 20.1171C28.5264 20.1171 28.9509 20.0295 29.3149 19.8543C29.6923 19.679 29.9888 19.4499 30.2044 19.1669C30.4336 18.8703 30.5549 18.5536 30.5683 18.2166C30.5953 17.7449 30.4538 17.354 30.1438 17.044C29.8338 16.7205 29.4362 16.451 28.9509 16.2353C28.4657 16.0062 27.9738 15.7905 27.4751 15.5883C26.6259 15.2379 25.8644 14.847 25.1905 14.4157C24.5165 13.9844 23.9976 13.4655 23.6337 12.859C23.2698 12.2524 23.1081 11.5111 23.1485 10.635C23.1754 10.2172 23.2765 9.78589 23.4518 9.3411C23.6405 8.88283 23.9235 8.465 24.3009 8.08761C24.6918 7.69674 25.1972 7.37999 25.8172 7.13738C26.4372 6.89477 27.192 6.77347 28.0816 6.77347C28.6207 6.77347 29.207 6.85434 29.8405 7.01608C30.474 7.17782 30.9997 7.42043 31.4175 7.74391V6.91499H32.9742L32.7316 11.6257H31.3973C31.3164 10.8709 31.1344 10.2442 30.8514 9.74545C30.5683 9.23327 30.191 8.84914 29.7192 8.59305C29.2609 8.33696 28.7151 8.21565 28.0816 8.22913C27.502 8.22913 26.9831 8.39087 26.5248 8.71436C26.08 9.03784 25.8442 9.45567 25.8172 9.96785C25.8037 10.3857 25.9048 10.7563 26.1205 11.0798C26.3361 11.3898 26.6731 11.6863 27.1314 11.9694C27.6031 12.239 28.2029 12.522 28.9307 12.8185C29.4294 13.0207 29.9416 13.2566 30.4673 13.5261C30.9929 13.7957 31.4714 14.1125 31.9027 14.4764C32.3475 14.8403 32.6979 15.2716 32.954 15.7703C33.2236 16.2555 33.3449 16.8284 33.3179 17.4888C33.2775 18.284 33.0214 18.9916 32.5497 19.6116C32.0914 20.2316 31.4647 20.7169 30.6694 21.0673C29.8742 21.4043 28.9509 21.5727 27.8996 21.5727ZM39.9894 10.9181C40.5825 10.9181 41.1081 11.0057 41.5664 11.1809C42.0247 11.3561 42.3819 11.6324 42.6379 12.0098C42.894 12.3872 43.0221 12.8724 43.0221 13.4655C43.0221 14.0181 42.8536 14.4898 42.5166 14.8807C42.1932 15.2581 41.7618 15.5681 41.2227 15.8107C40.6971 16.0533 40.1175 16.2555 39.484 16.4173C38.8505 16.5655 38.2372 16.6801 37.6442 16.761C37.6442 17.5292 37.7318 18.1223 37.907 18.5401C38.0957 18.9445 38.3316 19.2275 38.6146 19.3892C38.8977 19.5375 39.1807 19.6116 39.4638 19.6116C39.6929 19.6116 39.9625 19.5712 40.2725 19.4903C40.596 19.396 40.9194 19.2073 41.2429 18.9242C41.5664 18.6412 41.8495 18.2234 42.0921 17.6708L43.2243 18.2166C42.8469 19.0927 42.4223 19.7666 41.9505 20.2384C41.4788 20.7101 40.9868 21.0336 40.4747 21.2088C39.9625 21.3841 39.4436 21.4717 38.9179 21.4717C37.6779 21.4851 36.694 21.128 35.9661 20.4001C35.2383 19.6723 34.8744 18.5603 34.8744 17.0642C34.8744 16.4173 34.9755 15.7366 35.1776 15.0222C35.3798 14.3079 35.6831 13.6407 36.0874 13.0207C36.5053 12.4007 37.0377 11.8953 37.6846 11.5044C38.3316 11.1135 39.0999 10.9181 39.9894 10.9181ZM39.767 12.2524C39.3088 12.2524 38.9381 12.4142 38.6551 12.7377C38.372 13.0611 38.1564 13.4722 38.0081 13.9709C37.8598 14.4562 37.7588 14.9481 37.7048 15.4468C38.4327 15.312 39.0123 15.1301 39.4436 14.9009C39.8749 14.6718 40.1849 14.409 40.3736 14.1125C40.5757 13.8159 40.6701 13.5059 40.6566 13.1824C40.6431 12.8455 40.542 12.6096 40.3534 12.4748C40.1647 12.3266 39.9692 12.2524 39.767 12.2524ZM49.5342 10.9181C50.1542 10.9181 50.7068 11.0192 51.192 11.2213C51.6907 11.4235 52.0816 11.7066 52.3647 12.0705C52.6612 12.4209 52.8094 12.8455 52.8094 13.3442C52.8094 13.7485 52.6881 14.0788 52.4455 14.3348C52.2164 14.5909 51.9064 14.7257 51.5155 14.7392C51.0573 14.7527 50.7338 14.6179 50.5451 14.3348C50.3564 14.0383 50.262 13.7755 50.262 13.5464C50.262 13.4251 50.2755 13.2903 50.3025 13.142C50.3429 12.9803 50.3968 12.832 50.4642 12.6972C50.4103 12.5759 50.2957 12.4748 50.1205 12.394C49.9453 12.2996 49.7364 12.2524 49.4938 12.2524C49.0625 12.2524 48.7053 12.4007 48.4222 12.6972C48.1527 12.9803 47.937 13.3442 47.7753 13.789C47.627 14.2338 47.5192 14.7055 47.4518 15.2042C47.3844 15.6894 47.344 16.1342 47.3305 16.5386C47.3035 17.2664 47.3709 17.8527 47.5327 18.2975C47.6944 18.7423 47.91 19.0658 48.1796 19.2679C48.4492 19.4701 48.7255 19.5847 49.0085 19.6116C49.2646 19.6251 49.5544 19.5914 49.8779 19.5106C50.2014 19.4162 50.5316 19.2208 50.8686 18.9242C51.2055 18.6142 51.5088 18.1425 51.7783 17.509L52.9308 18.0751C52.5534 18.9512 52.1288 19.6386 51.657 20.1373C51.1853 20.6225 50.6866 20.9662 50.1609 21.1684C49.6353 21.3571 49.0894 21.4582 48.5233 21.4717C47.3372 21.4582 46.3803 21.0943 45.6524 20.3799C44.9246 19.6656 44.5607 18.5603 44.5607 17.0642C44.5607 16.4173 44.6618 15.7366 44.8639 15.0222C45.0661 14.3079 45.3694 13.6407 45.7737 13.0207C46.1916 12.4007 46.7105 11.8953 47.3305 11.5044C47.9505 11.1135 48.6851 10.9181 49.5342 10.9181ZM59.2826 10.9181C60.0373 10.9181 60.718 11.0933 61.3245 11.4437C61.9445 11.7942 62.4365 12.3063 62.8004 12.9803C63.1643 13.6542 63.3463 14.4696 63.3463 15.4266C63.3463 16.4914 63.1374 17.4888 62.7195 18.4188C62.3152 19.3353 61.7356 20.0766 60.9808 20.6427C60.226 21.1954 59.323 21.4717 58.2717 21.4717C57.3686 21.4717 56.6138 21.2695 56.0073 20.8651C55.4008 20.4473 54.9493 19.8879 54.6527 19.1871C54.3562 18.4862 54.2079 17.7179 54.2079 16.8823C54.2079 15.804 54.4101 14.8133 54.8145 13.9103C55.2323 13.0072 55.8186 12.2861 56.5734 11.747C57.3417 11.1944 58.2447 10.9181 59.2826 10.9181ZM58.9793 12.2524C58.5749 12.239 58.2178 12.4209 57.9078 12.7983C57.6112 13.1622 57.3754 13.6542 57.2001 14.2742C57.0384 14.8942 56.9575 15.5749 56.9575 16.3162C56.9575 16.7205 56.9777 17.1451 57.0182 17.5899C57.0721 18.0347 57.1597 18.4525 57.281 18.8434C57.4158 19.2208 57.5843 19.5308 57.7865 19.7734C58.0021 20.016 58.2717 20.1373 58.5952 20.1373C58.9456 20.1373 59.2421 20.0025 59.4847 19.7329C59.7273 19.4634 59.9228 19.1197 60.071 18.7018C60.2328 18.2705 60.3473 17.819 60.4147 17.3473C60.4956 16.8755 60.5428 16.4307 60.5563 16.0129C60.5697 15.649 60.5563 15.2514 60.5158 14.8201C60.4754 14.3888 60.4013 13.9777 60.2934 13.5868C60.1856 13.1959 60.0239 12.8792 59.8082 12.6366C59.5926 12.3805 59.3163 12.2524 58.9793 12.2524ZM73.3949 21.4717C72.6536 21.4717 72.1482 21.2695 71.8786 20.8651C71.6225 20.4608 71.4945 19.9014 71.4945 19.1871C71.4945 18.7827 71.5214 18.3312 71.5753 17.8325C71.6292 17.3203 71.6832 16.8014 71.7371 16.2757C71.8045 15.7501 71.8651 15.2581 71.919 14.7999C71.9729 14.3281 71.9999 13.9372 71.9999 13.6272C71.9999 13.4251 71.9797 13.2633 71.9392 13.142C71.8988 13.0072 71.8382 12.9129 71.7573 12.859C71.6764 12.805 71.5686 12.7781 71.4338 12.7781C71.1912 12.7781 70.9351 12.9264 70.6655 13.2229C70.4094 13.5194 70.1601 13.9238 69.9175 14.4359C69.6749 14.9346 69.4592 15.494 69.2705 16.114C69.0818 16.7205 68.9268 17.3473 68.8055 17.9942C68.6977 18.6277 68.6438 19.2275 68.6438 19.7936C68.6438 19.9688 68.6505 20.2182 68.664 20.5417C68.6775 20.8517 68.691 21.0875 68.7044 21.2493H66.0964C66.0694 20.9662 66.0492 20.7708 66.0357 20.663C66.0357 20.5417 66.0357 20.4136 66.0357 20.2788C66.0357 19.9958 66.0492 19.6656 66.0761 19.2882C66.1166 18.8973 66.1638 18.4795 66.2177 18.0347C66.2716 17.5764 66.3255 17.1249 66.3794 16.6801C66.4198 16.3162 66.4603 15.9657 66.5007 15.6288C66.5546 15.2783 66.6018 14.9549 66.6422 14.6583C66.6827 14.3483 66.7096 14.0788 66.7231 13.8496C66.7501 13.6205 66.7635 13.4453 66.7635 13.324C66.7635 13.0948 66.7298 12.9533 66.6625 12.8994C66.6085 12.832 66.5479 12.7983 66.4805 12.7983C66.3322 12.7983 66.1772 12.9129 66.0155 13.142C65.8537 13.3711 65.6853 13.789 65.51 14.3955L64.3981 14.072C64.4655 13.789 64.5598 13.4655 64.6811 13.1016C64.8024 12.7377 64.9709 12.394 65.1866 12.0705C65.4022 11.7335 65.665 11.4572 65.9751 11.2416C66.2851 11.0259 66.6625 10.9181 67.1072 10.9181C67.4038 10.9181 67.6801 10.972 67.9362 11.0798C68.1923 11.1876 68.4012 11.3763 68.5629 11.6459C68.7246 11.902 68.8055 12.2727 68.8055 12.7579C68.8055 13.014 68.792 13.2229 68.7651 13.3846C68.7381 13.5464 68.7112 13.7418 68.6842 13.9709H68.7044C69.0279 13.1622 69.3783 12.5355 69.7557 12.0907C70.1466 11.6459 70.5442 11.3426 70.9486 11.1809C71.3664 11.0057 71.7708 10.9181 72.1616 10.9181C72.7412 10.9181 73.2062 11.0461 73.5567 11.3022C73.9071 11.5583 74.1632 11.9222 74.3249 12.394C74.5001 12.8522 74.5878 13.3981 74.5878 14.0316C74.5878 14.5168 74.5473 15.0559 74.4664 15.649C74.3856 16.242 74.298 16.8351 74.2036 17.4281C74.1227 18.0212 74.0823 18.5671 74.0823 19.0658C74.0823 19.2814 74.116 19.4229 74.1834 19.4903C74.2508 19.5577 74.3182 19.5914 74.3856 19.5914C74.5338 19.5914 74.6888 19.4769 74.8506 19.2477C75.0123 19.0186 75.1808 18.6008 75.356 17.9942L76.4478 18.3177C76.3939 18.6008 76.286 18.9242 76.1243 19.2882C75.976 19.6521 75.7739 20.0025 75.5178 20.3395C75.2617 20.663 74.9584 20.9325 74.608 21.1482C74.2575 21.3638 73.8532 21.4717 73.3949 21.4717ZM80.324 21.4717C79.6501 21.4717 79.0907 21.3032 78.646 20.9662C78.2012 20.6158 77.871 20.1508 77.6553 19.5712C77.4396 18.9916 77.3318 18.3379 77.3318 17.6101C77.3318 16.3297 77.5273 15.184 77.9181 14.1731C78.3225 13.1622 78.9357 12.367 79.7579 11.7874C80.5936 11.2079 81.6516 10.9181 82.9321 10.9181C83.0264 10.9181 83.1882 10.9248 83.4173 10.9383C83.6464 10.9383 83.8082 10.945 83.9025 10.9585C83.9699 10.3385 84.0171 9.84654 84.0441 9.48262C84.0845 9.11871 84.1182 8.82892 84.1451 8.61327C84.1721 8.39761 84.1991 8.21565 84.226 8.06739C84.0104 8.08087 83.7543 8.09435 83.4578 8.10783C83.1747 8.10783 82.959 8.11457 82.8108 8.12804L82.8917 6.59151C83.5251 6.59151 84.0508 6.55781 84.4686 6.49042C84.8865 6.42303 85.2167 6.34216 85.4593 6.24781C85.7154 6.15346 85.8906 6.06585 85.985 5.98498H87.0767C86.9554 7.06325 86.8274 8.14152 86.6926 9.2198C86.5713 10.2981 86.45 11.3763 86.3286 12.4546C86.2343 13.3711 86.1332 14.254 86.0254 15.1031C85.9176 15.9523 85.8299 16.7138 85.7626 17.3877C85.6952 18.0616 85.6615 18.6008 85.6615 19.0051C85.6615 19.2477 85.6952 19.4095 85.7626 19.4903C85.8299 19.5577 85.8973 19.5914 85.9647 19.5914C86.113 19.5914 86.268 19.4769 86.4297 19.2477C86.5915 19.0186 86.76 18.6008 86.9352 17.9942L88.0471 18.3177C87.9932 18.6008 87.8989 18.9242 87.7641 19.2882C87.6293 19.6521 87.4541 20.0025 87.2384 20.3395C87.0228 20.663 86.7532 20.9325 86.4297 21.1482C86.1197 21.3638 85.7423 21.4717 85.2976 21.4717C84.8662 21.4717 84.4888 21.3436 84.1654 21.0875C83.8419 20.8314 83.6801 20.3462 83.6801 19.6319C83.6801 19.3623 83.6869 19.1534 83.7004 19.0051C83.7138 18.8434 83.7341 18.6479 83.761 18.4188H83.7408C83.4173 19.214 83.0601 19.834 82.6693 20.2788C82.2784 20.7236 81.8808 21.0336 81.4764 21.2088C81.0721 21.3841 80.6879 21.4717 80.324 21.4717ZM81.0721 19.6319C81.409 19.6319 81.7123 19.4634 81.9819 19.1264C82.2649 18.7895 82.5143 18.3245 82.7299 17.7314C82.959 17.1249 83.1545 16.4307 83.3162 15.649C83.4106 15.1638 83.4914 14.6516 83.5588 14.1125C83.6262 13.5598 83.6869 12.9937 83.7408 12.4142C83.6464 12.3737 83.478 12.34 83.2354 12.3131C82.9927 12.2727 82.804 12.2524 82.6693 12.2524C82.211 12.2524 81.8269 12.3872 81.5169 12.6568C81.2069 12.9129 80.9575 13.2498 80.7688 13.6677C80.5801 14.0855 80.4318 14.537 80.324 15.0222C80.2297 15.5075 80.1623 15.9792 80.1218 16.4375C80.0949 16.8823 80.0814 17.2664 80.0814 17.5899C80.0814 18.2773 80.169 18.7895 80.3442 19.1264C80.5329 19.4634 80.7755 19.6319 81.0721 19.6319ZM94.0281 10.9181C94.6211 10.9181 95.1468 11.0057 95.6051 11.1809C96.0633 11.3561 96.4205 11.6324 96.6766 12.0098C96.9327 12.3872 97.0607 12.8724 97.0607 13.4655C97.0607 14.0181 96.8922 14.4898 96.5553 14.8807C96.2318 15.2581 95.8005 15.5681 95.2614 15.8107C94.7357 16.0533 94.1561 16.2555 93.5226 16.4173C92.8892 16.5655 92.2759 16.6801 91.6828 16.761C91.6828 17.5292 91.7704 18.1223 91.9457 18.5401C92.1344 18.9445 92.3702 19.2275 92.6533 19.3892C92.9363 19.5375 93.2194 19.6116 93.5024 19.6116C93.7316 19.6116 94.0011 19.5712 94.3111 19.4903C94.6346 19.396 94.9581 19.2073 95.2816 18.9242C95.6051 18.6412 95.8881 18.2234 96.1307 17.6708L97.2629 18.2166C96.8855 19.0927 96.4609 19.7666 95.9892 20.2384C95.5174 20.7101 95.0255 21.0336 94.5133 21.2088C94.0011 21.3841 93.4822 21.4717 92.9565 21.4717C91.7165 21.4851 90.7326 21.128 90.0048 20.4001C89.2769 19.6723 88.913 18.5603 88.913 17.0642C88.913 16.4173 89.0141 15.7366 89.2163 15.0222C89.4185 14.3079 89.7217 13.6407 90.1261 13.0207C90.5439 12.4007 91.0763 11.8953 91.7233 11.5044C92.3702 11.1135 93.1385 10.9181 94.0281 10.9181ZM93.8057 12.2524C93.3474 12.2524 92.9768 12.4142 92.6937 12.7377C92.4107 13.0611 92.195 13.4722 92.0468 13.9709C91.8985 14.4562 91.7974 14.9481 91.7435 15.4468C92.4713 15.312 93.0509 15.1301 93.4822 14.9009C93.9135 14.6718 94.2235 14.409 94.4122 14.1125C94.6144 13.8159 94.7087 13.5059 94.6953 13.1824C94.6818 12.8455 94.5807 12.6096 94.392 12.4748C94.2033 12.3266 94.0079 12.2524 93.8057 12.2524Z"
    fill="#789281" />
  <path
    d="M16.2424 30.0997V45.4943H14.9019V38.2726H5.08566V45.4943H3.74512V30.0997H5.08566V37.0835H14.9019V30.0997H16.2424ZM23.1201 30.0997H24.4606V45.4943H23.1201V30.0997ZM36.1248 45.6672C34.914 45.6672 33.8401 45.5087 32.9032 45.1916C31.9807 44.86 31.1591 44.3483 30.4383 43.6564L31.0005 42.597C31.7645 43.2744 32.5356 43.7573 33.314 44.0456C34.1068 44.3339 35.0437 44.478 36.1248 44.478C37.4221 44.478 38.4311 44.2114 39.1518 43.678C39.8726 43.1447 40.2329 42.3952 40.2329 41.4294C40.2329 40.8672 40.0527 40.4132 39.6924 40.0672C39.3464 39.7069 38.8996 39.4258 38.3518 39.224C37.8185 39.0222 37.105 38.8204 36.2113 38.6186C35.0293 38.3591 34.0636 38.0925 33.314 37.8186C32.5789 37.5303 31.9591 37.1051 31.4546 36.5429C30.95 35.9808 30.6978 35.2312 30.6978 34.2943C30.6978 33.4294 30.9212 32.6654 31.3681 32.0024C31.8149 31.3393 32.4491 30.8276 33.2708 30.4673C34.1068 30.1069 35.0726 29.9267 36.1681 29.9267C37.2203 29.9267 38.1933 30.0997 39.087 30.4456C39.9807 30.7772 40.7518 31.2745 41.4005 31.9375L40.8383 32.997C40.1176 32.3483 39.3825 31.8727 38.6329 31.57C37.8834 31.2672 37.0618 31.1159 36.1681 31.1159C34.8708 31.1159 33.8546 31.397 33.1194 31.9591C32.3987 32.5213 32.0383 33.2925 32.0383 34.2727C32.0383 35.1231 32.3555 35.7573 32.9897 36.1754C33.6239 36.5934 34.5536 36.9465 35.7789 37.2348L36.4059 37.3862C37.5591 37.66 38.4744 37.9267 39.1518 38.1862C39.8293 38.4456 40.4059 38.8348 40.8816 39.3537C41.3572 39.8726 41.5951 40.5645 41.5951 41.4294C41.5951 42.2654 41.3717 43.0078 40.9248 43.6564C40.478 44.2907 39.8365 44.788 39.0005 45.1483C38.1789 45.4943 37.2203 45.6672 36.1248 45.6672ZM50.979 31.2672H45.4655V30.0997H57.8331V31.2672H52.3196V45.4943H50.979V31.2672ZM68.2797 45.6672C66.8815 45.6672 65.6635 45.3501 64.6256 44.7159C63.6022 44.0817 62.8094 43.1735 62.2473 41.9916C61.6995 40.8096 61.4256 39.4114 61.4256 37.797C61.4256 36.1826 61.6995 34.7844 62.2473 33.6024C62.795 32.4204 63.5806 31.5123 64.604 30.8781C65.6418 30.2438 66.8671 29.9267 68.2797 29.9267C69.6923 29.9267 70.9175 30.2438 71.9554 30.8781C72.9932 31.5123 73.786 32.4204 74.3337 33.6024C74.8815 34.7699 75.1554 36.1609 75.1554 37.7754C75.1554 39.3898 74.8743 40.7952 74.3121 41.9916C73.7644 43.1735 72.9716 44.0817 71.9337 44.7159C70.9103 45.3501 69.6923 45.6672 68.2797 45.6672ZM68.2797 44.478C70.0094 44.478 71.35 43.8943 72.3013 42.7267C73.2671 41.5591 73.7499 39.9087 73.7499 37.7754C73.7499 35.642 73.2743 33.9988 72.3229 32.8456C71.3716 31.6925 70.0238 31.1159 68.2797 31.1159C66.55 31.1159 65.2022 31.6997 64.2364 32.8672C63.2851 34.0204 62.8094 35.6564 62.8094 37.7754C62.8094 39.8943 63.2851 41.5447 64.2364 42.7267C65.2022 43.8943 66.55 44.478 68.2797 44.478ZM81.4477 30.0997H82.7883V45.4943H81.4477V30.0997ZM101.523 45.4943H100.139L98.2146 40.3699C97.9696 39.6781 97.6308 39.2168 97.1984 38.9862C96.766 38.7411 96.1389 38.6186 95.3173 38.6186H91.0146V45.4943H89.6741V30.0997H95.62C97.22 30.0997 98.4597 30.4673 99.3389 31.2024C100.218 31.9231 100.658 32.9609 100.658 34.3159C100.658 35.3105 100.391 36.1465 99.8579 36.824C99.3389 37.5015 98.5894 37.9772 97.6092 38.251C98.0561 38.3231 98.438 38.5105 98.7552 38.8132C99.0723 39.1159 99.3389 39.5627 99.5552 40.1537L101.523 45.4943ZM95.5335 37.451C98.0561 37.451 99.3173 36.3988 99.3173 34.2943C99.3173 32.2618 98.0561 31.2456 95.5335 31.2456H90.993V37.451H95.5335ZM107.465 30.0997H116.957V31.2456H108.784V37.0835H116.525V38.2726H108.784V44.3483H116.957V45.4943H107.465V30.0997Z"
    fill="black" />
  <path
    d="M29.7817 56.3767C30.1672 56.4778 30.4674 56.6706 30.6823 56.955C30.8972 57.2331 31.0046 57.5838 31.0046 58.0073C31.0046 58.595 30.8119 59.0469 30.4263 59.3629C30.0408 59.6789 29.4941 59.8369 28.7863 59.8369H26.0845V53.0872H28.6915C29.3804 53.0872 29.9113 53.242 30.2841 53.5517C30.657 53.855 30.8435 54.2911 30.8435 54.8599C30.8435 55.2265 30.7487 55.5393 30.5591 55.7984C30.3758 56.0576 30.1167 56.2503 29.7817 56.3767ZM26.6628 56.1492H28.6062C29.1497 56.1492 29.5605 56.0386 29.8386 55.8174C30.1167 55.5962 30.2557 55.2739 30.2557 54.8504C30.2557 54.0099 29.7059 53.5896 28.6062 53.5896H26.6628V56.1492ZM28.7484 59.3345C29.3172 59.3345 29.7343 59.227 29.9997 59.0122C30.2715 58.7973 30.4074 58.4686 30.4074 58.0262C30.4074 57.1225 29.8544 56.6706 28.7484 56.6706H26.6628V59.3345H28.7484ZM35.8727 57.0593V59.8369H35.2849V57.0403L32.6779 53.0872H33.3605L35.5883 56.5284L37.8161 53.0872H38.4797L35.8727 57.0593ZM47.0526 59.9128C46.4269 59.9128 45.8834 59.7769 45.422 59.5051C44.9606 59.227 44.6067 58.8289 44.3602 58.3106C44.1138 57.7861 43.9905 57.1667 43.9905 56.4526C43.9905 55.7447 44.1138 55.1317 44.3602 54.6134C44.6067 54.0952 44.9606 53.7002 45.422 53.4284C45.8834 53.1504 46.4269 53.0113 47.0526 53.0113C47.5202 53.0113 47.9468 53.0872 48.3324 53.2388C48.7242 53.3842 49.0623 53.6022 49.3467 53.893L49.1002 54.3575C48.7779 54.0668 48.4556 53.8582 48.1333 53.7318C47.811 53.5991 47.4507 53.5327 47.0526 53.5327C46.2752 53.5327 45.6716 53.7887 45.2419 54.3006C44.8121 54.8062 44.5972 55.5235 44.5972 56.4526C44.5972 57.3879 44.809 58.1116 45.2324 58.6235C45.6622 59.1354 46.2689 59.3914 47.0526 59.3914C47.4507 59.3914 47.811 59.3282 48.1333 59.2018C48.4556 59.069 48.7779 58.8573 49.1002 58.5666L49.3467 59.0311C49.0623 59.3218 48.7242 59.543 48.3324 59.6947C47.9468 59.8401 47.5202 59.9128 47.0526 59.9128ZM54.0624 57.0593V59.8369H53.4747V57.0403L50.8677 53.0872H51.5502L53.778 56.5284L56.0058 53.0872H56.6694L54.0624 57.0593ZM63.9411 59.8369H63.3344L62.4907 57.5902C62.3832 57.2868 62.2347 57.0846 62.0451 56.9834C61.8555 56.876 61.5806 56.8223 61.2203 56.8223H59.3338V59.8369H58.7461V53.0872H61.3531C62.0546 53.0872 62.5981 53.2483 62.9836 53.5706C63.3691 53.8866 63.5619 54.3417 63.5619 54.9358C63.5619 55.3718 63.445 55.7384 63.2111 56.0354C62.9836 56.3325 62.655 56.541 62.2252 56.6611C62.4211 56.6927 62.5886 56.7749 62.7277 56.9076C62.8667 57.0403 62.9836 57.2362 63.0784 57.4954L63.9411 59.8369ZM61.3151 56.3104C62.4211 56.3104 62.9741 55.849 62.9741 54.9263C62.9741 54.0352 62.4211 53.5896 61.3151 53.5896H59.3243V56.3104H61.3151ZM66.5467 53.0872H67.1345V59.8369H66.5467V53.0872ZM70.1535 53.0872H70.7413V59.325H74.2299V59.8369H70.1535V53.0872ZM76.5285 53.0872H77.1162V59.325H80.6049V59.8369H76.5285V53.0872ZM85.232 59.9128C84.3725 59.9128 83.7184 59.6884 83.2696 59.2397C82.8272 58.7846 82.606 58.1179 82.606 57.2394V53.0872H83.1938V57.3058C83.1938 58.6962 83.8732 59.3914 85.232 59.3914C85.8956 59.3914 86.398 59.2176 86.7393 58.87C87.0869 58.516 87.2607 57.9946 87.2607 57.3058V53.0872H87.839V57.2394C87.839 58.1179 87.6178 58.7846 87.1754 59.2397C86.733 59.6884 86.0852 59.9128 85.232 59.9128ZM92.901 59.9128C92.3701 59.9128 91.8992 59.8432 91.4884 59.7042C91.084 59.5588 90.7237 59.3345 90.4077 59.0311L90.6542 58.5666C90.9892 58.8636 91.3273 59.0754 91.6686 59.2018C92.0162 59.3282 92.427 59.3914 92.901 59.3914C93.4698 59.3914 93.9122 59.2744 94.2282 59.0406C94.5442 58.8068 94.7022 58.4781 94.7022 58.0547C94.7022 57.8082 94.6232 57.6091 94.4652 57.4574C94.3135 57.2994 94.1176 57.1762 93.8774 57.0877C93.6436 56.9992 93.3307 56.9108 92.9389 56.8223C92.4206 56.7085 91.9972 56.5916 91.6686 56.4715C91.3462 56.3451 91.0745 56.1587 90.8533 55.9122C90.6321 55.6657 90.5215 55.3371 90.5215 54.9263C90.5215 54.5471 90.6194 54.2121 90.8154 53.9214C91.0113 53.6307 91.2894 53.4063 91.6496 53.2483C92.0162 53.0903 92.4396 53.0113 92.9199 53.0113C93.3813 53.0113 93.8079 53.0872 94.1997 53.2388C94.5916 53.3842 94.9297 53.6022 95.2141 53.893L94.9676 54.3575C94.6516 54.0731 94.3293 53.8645 94.0006 53.7318C93.672 53.5991 93.3118 53.5327 92.9199 53.5327C92.3511 53.5327 91.9056 53.656 91.5832 53.9024C91.2672 54.1489 91.1092 54.487 91.1092 54.9168C91.1092 55.2897 91.2483 55.5678 91.5264 55.751C91.8044 55.9343 92.2121 56.0892 92.7493 56.2156L93.0242 56.2819C93.5298 56.402 93.9311 56.5189 94.2282 56.6327C94.5252 56.7464 94.778 56.9171 94.9866 57.1446C95.1951 57.3721 95.2994 57.6755 95.2994 58.0547C95.2994 58.4212 95.2014 58.7467 95.0055 59.0311C94.8096 59.3092 94.5284 59.5272 94.1618 59.6852C93.8016 59.8369 93.3813 59.9128 92.901 59.9128Z"
    fill="#231F20" />
</svg>