<svg xmlns:dc="http://purl.org/dc/elements/1.1/" xmlns:cc="http://creativecommons.org/ns#"
  xmlns:rdf="http://www.w3.org/1999/02/22-rdf-syntax-ns#" xmlns:svg="http://www.w3.org/2000/svg"
  xmlns="http://www.w3.org/2000/svg" xmlns:sodipodi="http://sodipodi.sourceforge.net/DTD/sodipodi-0.dtd"
  xmlns:inkscape="http://www.inkscape.org/namespaces/inkscape" version="1.1" x="0px" y="0px"
  viewBox="0 0 485.79997 302.72132" xml:space="preserve" id="svg134" sodipodi:docname="logo.svg" width="485.79999"
  height="302.72131" inkscape:version="0.92.3 (2405546, 2018-03-11)">
  <metadata id="metadata140">
    <rdf:RDF>
      <cc:Work rdf:about="">
        <dc:format>image/svg+xml</dc:format>
        <dc:type rdf:resource="http://purl.org/dc/dcmitype/StillImage" />
      </cc:Work>
    </rdf:RDF>
  </metadata>
  <defs id="defs138" />
  <sodipodi:namedview pagecolor="#ffffff" bordercolor="#666666" borderopacity="1" objecttolerance="10"
    gridtolerance="10" guidetolerance="10" inkscape:pageopacity="0" inkscape:pageshadow="2" inkscape:window-width="1853"
    inkscape:window-height="1018" id="namedview136" showgrid="false" inkscape:zoom="1.0122207" inkscape:cx="188.05001"
    inkscape:cy="255.9884" inkscape:window-x="67" inkscape:window-y="34" inkscape:window-maximized="1"
    inkscape:current-layer="svg134" />
  <style type="text/css" id="style95">
    .st0 {
      fill: #EE2031;
    }

    .st1 {
      display: none;
    }

    .st2 {
      display: inline;
    }

    .st3 {
      display: inline;
      fill: none;
    }

    .st4 {
      font-family: 'BrittanySignatureRegular';
    }

    .st5 {
      font-size: 90px;
    }
  </style>
  <g id="Layer_1" transform="translate(-241.4,-318.8)">
    <path class="st0"
      d="M 384.1,408.8 371.9,392 c -3.6,2.2 -5.9,6.6 -5.9,10.8 0,6.5 3.8,10.3 9.8,10.3 3.7,-0.1 5.9,-1.8 8.3,-4.3 m -8,-35.6 c 0,3.7 1.3,6.1 3.6,9.5 4.2,-2.2 6.3,-5.4 6.3,-9.6 0,-2.9 -1.4,-5.8 -4.6,-5.8 -3.4,0 -5.3,2.7 -5.3,5.9 m 13.1,41.3 c -4.9,3.8 -10.7,4.7 -15.2,4.7 -11,0 -19.9,-5.9 -20.1,-15.9 -0.2,-8.7 8,-14.8 14.6,-16.8 -2.1,-2.7 -3.9,-5.9 -3.9,-10 0,-9.6 8.3,-14.4 17,-14.4 8.6,0 14.9,4.8 14.9,12.3 0,6.6 -6.6,10.7 -12.6,13.3 l 8.3,12.3 c 3,-4.2 5,-8.5 6.1,-12.7 0.1,-0.3 0.4,-0.9 1.5,-0.9 H 413 c 0.8,0 1.7,-0.1 1,1.5 l -1.6,3.6 c -0.4,0.7 -0.8,1.1 -1.6,1.1 H 409 c -1.5,0 -2,0.9 -2.9,2.2 0,0 -1.9,3.1 -3.3,5.1 -2.2,3 -2.7,4 -6.1,7.4 0,0 2.6,4.4 8.1,4.4 h 2.4 c 0.4,0 1.7,-0.2 1.1,1.3 l -1.6,3.9 c -0.2,0.6 -0.5,1.1 -1.6,1.1 h -5.4 c 0.2,0 -6.5,0.5 -10.5,-3.5 m 84.9,3.5 -18,-59.6 L 432,418 Z m 66.5,44.4 v 8.5 c 0,1.4 -0.9,2.2 -2.3,2.3 H 475 c -1.4,0 -2.3,-0.9 -2.3,-2.2 v -8.5 c 0,-1.4 0.9,-2.2 2.3,-2.2 l 5.2,-0.1 c 4.1,-0.1 5.1,-2.1 5.2,-3.9 0,-0.8 -0.1,-1.6 -0.3,-2.3 -0.4,-1.7 -1.7,-5.7 -1.7,-5.7 0,0 -3.7,-11.9 -6,-18.4 h -50.1 l -8.4,20.6 c -0.9,2.1 -1.3,3.8 -1.3,5.1 0,4.3 4.1,4.6 8,4.6 h 4.8 c 1.3,0 2.2,0.8 2.2,2.2 v 8.5 c 0,1.4 -0.9,2.2 -2.2,2.3 h -42.8 c -1.3,0 -2.2,-0.8 -2.2,-2.2 v -8.5 c 0,-1.4 0.9,-2.2 2.2,-2.2 h 1.5 c 0,0 4.6,0.2 7.2,-1.1 2.6,-1.3 3.6,-2.9 4.8,-5.6 l 55,-131.6 c 0.6,-1.5 1.7,-2 2.9,-2 h 17.6 c 1.5,0 2.4,0.7 2.8,2 5,14.3 45.9,131 45.9,131 2,5.5 3.9,7.3 10.4,7.4 h 2.7 c 1.3,-0.2 2.2,0.6 2.2,2 M 360.7,432 v 38.9 c 0,1.4 -0.9,2.2 -2.2,2.2 h -8.9 c -0.9,0 -1.6,-0.2 -2.1,-1.4 -0.5,-1.1 -1.5,-2.5 -3.5,-2.5 -5,0 -13.8,5.2 -33.5,5.2 -44.7,0 -69.1,-37 -69.1,-77.5 0,-48 29.1,-78.1 68.8,-78.1 12.6,0 19.6,2.5 23.8,4.3 3.4,1.6 4.9,2.6 7.1,2.6 3,0 4,-1.7 5,-4 0.6,-1.3 1.1,-1.8 2.2,-1.8 h 8.9 c 1.3,0 2.2,0.9 2.2,2.3 V 361 c 0,1.4 -0.8,2.2 -2.2,2.2 h -8.7 c -1.2,0 -1.9,-0.5 -2.2,-2 -3.3,-18.3 -9.9,-29.3 -30.4,-29.3 -25.9,0 -32.1,39.9 -32.1,59.6 0,30 3.4,70 33.2,70 21.6,0 28,-12.2 30.7,-29.7 0.3,-1.7 1.4,-2 2.2,-2 h 8.8 c 1.1,0 2,0.8 2,2.2"
      id="path97" inkscape:connector-curvature="0" style="fill:#ee2031" />
    <g id="g109">
      <path
        d="m 516.9,515.4 c 0.6,-0.1 1.3,0 1.8,0.3 0.6,0.4 0.9,0.9 1.1,1.5 0.1,0.7 0,1.2 -0.3,1.8 -3,4.6 -6.7,8.4 -11.2,11.3 -4.5,2.9 -8.8,4 -13,3.5 -0.9,2.9 -2.3,5.2 -4.2,7 -1.9,1.8 -4,2.8 -6.2,3 h -0.1 c -2.2,0.1 -4.2,-0.5 -6,-1.8 -1.8,-1.3 -3.1,-3.2 -4,-5.7 -1.4,-3.9 -1.6,-7.8 -0.5,-11.5 1.1,-3.8 3,-6.6 5.5,-8.6 0.5,-0.5 1.2,-0.6 1.9,-0.4 0.6,-1.9 1.5,-3.4 2.8,-4.5 1.3,-1.1 2.6,-1.6 4.1,-1.5 0.8,0.1 1.6,0.4 2.4,0.8 0.7,0.5 1.5,1.3 2.3,2.3 0.8,1.1 1.5,2.8 2,5.2 0.5,2.3 0.9,5.2 1,8.5 0,0.8 -0.1,1.7 -0.2,2.5 3.2,0.4 6.6,-0.7 10.2,-3.2 3.6,-2.5 6.6,-5.7 9,-9.5 0.5,-0.6 1,-0.9 1.6,-1 z m -32.4,23.5 c 1.1,-0.1 2.3,-0.7 3.5,-1.9 1.2,-1.2 2.1,-2.7 2.8,-4.6 -5.6,-2.5 -8.7,-6.3 -9.4,-11.3 -1.5,1.7 -2.4,3.9 -2.8,6.6 -0.4,2.7 -0.2,5 0.7,6.9 1.1,3 2.8,4.5 5.2,4.3 z m 7,-12.2 c 0,-2 -0.1,-3.7 -0.4,-5.1 -0.2,-1.4 -0.5,-2.6 -0.7,-3.5 -0.2,-0.9 -0.5,-1.6 -0.8,-2.2 -0.3,-0.6 -0.6,-0.9 -0.8,-1.2 -0.2,-0.2 -0.4,-0.3 -0.5,-0.3 h -0.1 c -0.3,0 -0.7,0.3 -1.2,0.9 -0.4,0.6 -0.8,1.3 -0.9,2.2 -0.3,1.8 -0.1,3.5 0.7,5.3 0.8,1.7 2.4,3.3 4.7,4.5 0.1,-0.1 0,-0.3 0,-0.6 z"
        id="path99" inkscape:connector-curvature="0" />
      <path
        d="m 552.3,511.3 c 0.6,-0.2 1.2,-0.2 1.8,0.2 0.6,0.3 1,0.8 1.2,1.4 0.2,0.6 0.1,1.2 -0.2,1.8 -2.3,4.4 -4.4,8.2 -6.1,11.2 -1.8,3 -3.8,6.3 -6,9.8 -2.3,3.5 -4.4,6.2 -6.3,8.4 -1.9,2.1 -4,3.9 -6.2,5.4 -2.2,1.5 -4.3,2.3 -6.4,2.5 -0.7,0.1 -1.5,0 -2.2,-0.1 -3,-0.4 -5.4,-1.9 -7.2,-4.6 -2,-3.5 -3,-7.5 -3.2,-11.9 -0.2,-4.4 0.3,-8.8 1.5,-13.2 1.2,-4.7 3,-8.3 5.3,-11 2.3,-2.7 4.6,-3.7 6.8,-3.2 0.5,0.1 1,0.3 1.4,0.6 0.4,0.3 1,0.8 1.6,1.6 0.6,0.8 1,1.9 1.2,3.3 0.1,1.4 0,3.2 -0.3,5.5 -0.1,0.7 -0.4,1.2 -0.9,1.6 -0.5,0.4 -1.1,0.5 -1.8,0.4 -0.7,-0.1 -1.2,-0.4 -1.6,-1 -0.4,-0.5 -0.5,-1.1 -0.4,-1.7 0.5,-3.2 0.4,-5.1 -0.4,-5.7 -0.3,0 -0.8,0.3 -1.5,0.9 -0.7,0.6 -1.5,1.7 -2.5,3.5 -1,1.8 -1.8,4 -2.5,6.6 -1.1,4 -1.6,8 -1.4,12 0.2,4 1,7 2.5,9.1 1,1.5 2.2,2.3 3.8,2.5 1.4,0.2 3,-0.1 4.7,-1 1.7,-0.9 3.5,-2.4 5.3,-4.5 1.8,-2.1 3.5,-4.1 5,-6.1 1.5,-2 3.2,-4.6 5.1,-7.9 1.9,-3.3 3.4,-5.8 4.4,-7.6 1,-1.8 2.4,-4.3 4.1,-7.5 0.2,-0.7 0.7,-1.1 1.4,-1.3 z"
        id="path101" inkscape:connector-curvature="0" />
      <path
        d="m 603.5,514.8 c 1,1.5 1,3.5 -0.2,6.2 -1.2,2.6 -3.4,5.6 -6.5,8.8 -2,2 -4.4,4 -7.4,6.1 2.1,3.6 4.4,6.8 6.9,9.6 0.5,0.5 0.7,1 0.7,1.7 0,0.7 -0.2,1.2 -0.8,1.7 -0.4,0.4 -0.9,0.6 -1.4,0.6 -0.7,0.1 -1.4,-0.2 -1.9,-0.7 -2.7,-3 -5.2,-6.4 -7.5,-10.4 -3.8,2.2 -7.6,4 -11.4,5.5 -3.8,1.4 -7.4,2.2 -10.8,2.4 -3.4,0.2 -5.9,-0.5 -7.5,-1.9 -4.6,-4.2 -1.3,-12.8 9.8,-25.6 3.8,-4.5 7.2,-8.8 10.1,-12.9 -0.6,-5.8 -0.7,-11.4 -0.2,-16.8 0.4,-4.8 1.6,-8.8 3.6,-11.8 2,-3 4.1,-4.8 6.4,-5.3 2.7,-0.6 4.7,0.2 6.2,2.6 1.5,2.6 1.5,6.7 -0.1,12.3 -1.6,5.6 -5.2,12.4 -10.8,20.4 1.1,9.2 3.3,17.4 6.6,24.6 2.3,-1.7 4.4,-3.4 6.1,-5.1 3.3,-3.4 5.3,-6.2 6,-8.5 -0.1,0.1 -0.2,0.1 -0.5,0.2 -0.6,0.3 -1.1,0.3 -1.7,0.1 -0.6,-0.2 -1,-0.7 -1.3,-1.2 -0.3,-0.6 -0.3,-1.2 -0.1,-1.8 0.2,-0.6 0.7,-1 1.3,-1.4 2.9,-1.6 5.1,-1.3 6.4,0.6 z m -44.5,26 c 1.4,1.3 4.6,1.3 9.4,-0.1 4.8,-1.3 9.8,-3.5 14.8,-6.5 -3,-6.5 -5.3,-13.7 -6.6,-21.7 -2.3,3 -4.8,6.1 -7.5,9.3 -2.1,2.3 -3.9,4.5 -5.4,6.6 -1.5,2.1 -2.6,3.8 -3.3,5.1 -0.7,1.3 -1.2,2.6 -1.6,3.7 -0.4,1.1 -0.5,1.9 -0.4,2.3 0.3,0.5 0.4,0.9 0.6,1.3 z m 21.2,-51.4 c -0.2,3.1 -0.3,6.4 -0.1,9.9 2,-3.1 3.6,-6.1 4.9,-8.9 1.3,-2.8 2.1,-5 2.5,-6.7 0.4,-1.6 0.6,-3.1 0.6,-4.5 0,-1.3 -0.1,-2.1 -0.6,-2.4 -0.2,-0.3 -0.4,-0.5 -0.7,-0.4 -0.1,0 -0.2,0 -0.2,0 -1.3,0.4 -2.6,1.7 -3.9,4 -1.3,2.3 -2.2,5.3 -2.5,9 z"
        id="path103" inkscape:connector-curvature="0" />
      <path
        d="m 655.8,503 c 0.6,-0.3 1.2,-0.3 1.8,0 0.6,0.2 1,0.7 1.3,1.3 0.3,0.6 0.3,1.2 0.1,1.8 -7.2,18.9 -14.2,28.6 -21.1,29.2 -0.4,0 -0.9,0 -1.4,0 -5.6,-0.6 -9.6,-7.7 -12.1,-21.2 -3.5,5.8 -6.7,10.5 -9.5,14.2 -2.5,3.2 -4.8,4.4 -6.9,3.7 -2,-0.6 -3.2,-2.6 -3.4,-6.1 -0.3,-3 0.1,-6.5 1,-10.8 1,-4.2 2.5,-8.4 4.7,-12.4 2.2,-4.1 4.7,-6.7 7.6,-8 4.2,-1.9 8.4,-0.9 12.4,3.3 0.5,0.5 0.7,1 0.7,1.7 0,0.7 -0.2,1.2 -0.7,1.7 -0.5,0.5 -1,0.7 -1.7,0.7 -0.7,0 -1.2,-0.2 -1.7,-0.7 -3.2,-3.2 -6.1,-3.6 -8.9,-1.2 -3.2,2.7 -5.6,7.2 -7.3,13.6 -1.7,6.4 -2.2,10.9 -1.5,13.5 0.5,-0.5 1,-1 1.6,-1.7 3,-3.8 6.5,-9.2 10.7,-16.2 0.9,-1.6 1.6,-2.7 1.9,-3.3 0.6,-0.9 1.4,-1.2 2.5,-1 1.1,0.2 1.7,0.9 1.9,2 0.5,4 1.2,7.5 1.9,10.6 0.8,3.1 1.5,5.4 2.1,6.9 0.6,1.6 1.3,2.8 2.1,3.8 0.7,1 1.3,1.6 1.7,1.9 0.4,0.3 0.8,0.4 1.2,0.3 1.2,0.1 2.6,-0.5 4.2,-2 1.6,-1.5 3.7,-4.3 6.1,-8.5 2.4,-4.1 4.8,-9.3 7.1,-15.6 0.6,-0.8 1,-1.2 1.6,-1.5 z"
        id="path105" inkscape:connector-curvature="0" />
      <path
        d="m 724.8,496.1 c 0.7,0 1.2,0.2 1.7,0.7 0.5,0.5 0.7,1 0.7,1.7 0,0.7 -0.2,1.2 -0.7,1.7 -10,10.2 -18.9,19.7 -26.8,28.5 -1.1,15.4 -5,31.7 -11.6,48.9 -4.8,12.3 -11.1,22.6 -19.1,30.8 -7.9,8.2 -14.9,12.6 -21.1,13.1 -0.1,0 -0.2,0 -0.2,0 -3.8,0.2 -6.5,-1 -8,-3.9 -2.1,-3.7 -1.5,-9.4 1.5,-17.1 3.1,-7.7 8.5,-16.8 16.2,-27.5 11.5,-15.7 24,-31.1 37.5,-46.3 0.7,-10.1 -0.3,-16.7 -3,-19.7 -1.1,-1.2 -2.5,-1.6 -4.3,-1.1 -4,0.9 -8.1,3.1 -12.3,6.4 -0.5,0.4 -1,0.7 -1.2,0.9 -0.3,0.2 -0.6,0.4 -1.1,0.7 -0.5,0.2 -0.9,0.3 -1.3,0.3 -0.4,0 -0.8,-0.2 -1.2,-0.5 -0.4,-0.4 -0.8,-0.7 -1,-1 -0.2,-0.3 -0.2,-0.9 -0.1,-1.7 0.1,-0.8 0.3,-1.7 0.6,-2.5 0.3,-0.8 0.8,-2.2 1.5,-4.3 0.7,-2.2 1.3,-4 1.8,-5.5 1.1,-3.1 1.9,-5.8 2.4,-8.3 0.6,-2.4 0.9,-4.3 1,-5.6 0.1,-1.3 0.1,-2.4 0,-3.3 -0.1,-0.9 -0.2,-1.4 -0.3,-1.6 -0.1,-0.2 -0.2,-0.3 -0.2,-0.4 -0.3,-0.1 -0.7,0.1 -1.3,0.4 -2.5,1.2 -5.4,4.1 -8.5,8.8 -3.1,4.7 -5.2,9.7 -6.4,15.1 -0.1,0.7 -0.4,1.2 -1,1.5 -0.5,0.3 -1.2,0.4 -1.8,0.3 -0.7,-0.1 -1.2,-0.5 -1.5,-1 -0.3,-0.5 -0.5,-1.2 -0.3,-1.8 1.3,-5.7 3.9,-11.5 7.7,-17.3 3.8,-5.8 7.6,-9.3 11.3,-10.3 2.2,-0.6 4,-0.2 5.3,1.3 3,3.2 2.4,11.2 -1.9,24 -0.5,1.4 -1,3.3 -1.8,5.5 -0.1,0.1 -0.1,0.2 -0.1,0.3 -0.1,0.1 -0.1,0.2 -0.1,0.3 3.4,-2.4 7,-4 10.7,-4.8 3.7,-0.9 6.7,0 9,2.7 2.8,3.1 4.3,8.9 4.4,17.2 6.9,-7.5 14.6,-15.6 23.2,-24.3 0.5,-1 1.1,-1.3 1.7,-1.3 z m -41.1,79.6 c 5.3,-13.8 8.8,-27.5 10.5,-41.1 -11.6,13.3 -22.6,27.1 -32.8,41.2 -7.5,10.3 -12.6,18.9 -15.4,25.6 -2.7,6.8 -3.4,11.3 -2.1,13.7 0.6,1.1 1.8,1.6 3.6,1.4 2.2,-0.1 4.9,-1.1 8,-3.1 3.1,-1.9 6.3,-4.5 9.7,-7.8 3.3,-3.3 6.7,-7.6 10,-12.8 3.3,-5.2 6.1,-10.9 8.5,-17.1 z"
        id="path107" inkscape:connector-curvature="0" />
    </g>
  </g>
  <g id="Layer_3" class="st1" style="display:none" transform="translate(-241.4,-318.8)">
    <rect x="1147.6" y="3.2" class="st3" width="381.70001" height="111" id="rect112" style="display:inline;fill:none" />
    <text transform="translate(1147.6456,79.0623)" class="st2 st4 st5" id="text114"
      style="font-size:90px;font-family:BrittanySignatureRegular;display:inline">seconde main</text>

    <rect x="397.70001" y="3.2" class="st3" width="347.10001" height="111" id="rect116"
      style="display:inline;fill:none" />
    <text transform="translate(397.7401,79.0622)" class="st2 st4 st5" id="text118"
      style="font-size:90px;font-family:BrittanySignatureRegular;display:inline">seconde vie</text>

    <rect x="442.10001" y="491.5" class="st3" width="282.39999" height="111" id="rect120"
      style="display:inline;fill:none" />
    <text transform="translate(442.0519,567.319)" class="st2 st4 st5" id="text122"
      style="font-size:90px;font-family:BrittanySignatureRegular;display:inline">oc&amp;az</text>

    <rect x="442.10001" y="491.5" class="st3" width="282.39999" height="111" id="rect124"
      style="display:inline;fill:none" />
    <text transform="translate(442.0519,567.319)" class="st2 st4 st5" id="text126"
      style="font-size:90px;font-family:BrittanySignatureRegular;display:inline">oc&amp;az</text>

    <rect x="1192" y="490.20001" class="st3" width="379.29999" height="111" id="rect128"
      style="display:inline;fill:none" />
    <text transform="translate(1191.9579,566.0524)" class="st2 st4 st5" id="text130"
      style="font-size:90px;font-family:BrittanySignatureRegular;display:inline">second life</text>

  </g>
  <g id="Layer_2" transform="translate(-241.4,-318.8)"></g>
</svg>