<svg width="32" height="32" viewBox="0 0 32 32" fill="none" xmlns="http://www.w3.org/2000/svg">
<rect width="32" height="32" fill="white"/>
<path d="M23.61 25.799C23.9419 25.799 24.2075 25.5233 24.2075 25.1785C24.2075 24.8338 23.9419 24.558 23.61 24.558C23.278 24.558 23.0125 24.8338 23.0125 25.1785C23.0125 25.5233 23.278 25.799 23.61 25.799ZM25.6681 27.3503C25.7843 27.3503 25.9004 27.3503 26 27.3675L25.5851 26.454C25.5187 26.4368 25.4523 26.4368 25.3693 26.4368C24.6556 26.4368 24.2905 26.8849 24.2905 27.5571C24.2905 27.9363 24.6224 28.7981 24.6224 29.1083C24.6224 29.3151 24.4896 29.4358 24.2407 29.4358C24.1411 29.4358 23.9585 29.4358 23.7926 29.4013L24.2075 30.3148C24.3071 30.3321 24.4067 30.3493 24.5228 30.3493C25.2531 30.3493 25.6349 29.8839 25.6349 29.2462C25.6349 28.7808 25.3029 28.0052 25.3029 27.695C25.2863 27.5226 25.3859 27.3503 25.6681 27.3503V27.3503ZM23.7594 26.5057H22.7469L22.2324 28.4878L21.0042 29.229L22.1992 24.6098H21.1867L19.9917 29.229C19.9419 29.4186 19.9419 29.522 19.9419 29.6254C19.9419 30.0218 20.2573 30.3493 20.6556 30.3493C20.8548 30.3493 21.0208 30.2631 21.1867 30.1597L22 29.6771C22.0166 30.0563 22.3154 30.3493 22.7137 30.3493C22.9129 30.3493 23.0789 30.2631 23.2448 30.1597L23.4772 30.0218L23.7926 28.7981L23.0789 29.229L23.7594 26.5057V26.5057ZM17.9834 29.3841C17.4523 29.3841 17.0374 28.9704 17.0374 28.3844C17.0374 27.7812 17.4689 27.3847 17.9834 27.3847C18.5145 27.3847 18.9461 27.7984 18.9461 28.3844C18.9461 28.9704 18.5145 29.3841 17.9834 29.3841ZM17.9834 26.4195C16.9046 26.4195 16.0249 27.2985 16.0249 28.3844C16.0249 28.5912 16.0581 28.7808 16.1079 28.9704C15.8257 29.229 15.5104 29.4013 15.0789 29.4013C14.4482 29.4013 14.083 28.936 14.083 28.3844C14.083 27.8329 14.4648 27.3847 15.1452 27.3847C15.278 27.3847 15.4274 27.3847 15.5934 27.4192L15.1452 26.4368C15.0789 26.4195 14.9959 26.4195 14.9295 26.4195C13.9502 26.4195 13.0872 27.333 13.0872 28.4016C13.0872 29.5047 13.8838 30.3321 15.0457 30.3321C15.6432 30.3321 16.1245 30.0735 16.5394 29.6599C16.9046 30.0735 17.4191 30.3321 18 30.3321C19.0789 30.3321 19.9585 29.453 19.9585 28.3672C19.9419 27.2985 19.0623 26.4195 17.9834 26.4195" fill="#484867"/>
<path d="M10.9129 29.3841C10.3817 29.3841 9.96681 28.9705 9.96681 28.3844C9.96681 27.7812 10.3983 27.3848 10.9129 27.3848C11.444 27.3848 11.8755 27.7984 11.8755 28.3844C11.8755 28.9705 11.444 29.3841 10.9129 29.3841V29.3841ZM10.9129 26.4196C9.83403 26.4196 8.95436 27.2986 8.95436 28.3844C8.95436 28.5913 8.98755 28.7809 9.03735 28.9705C8.75519 29.229 8.43983 29.4014 8.0083 29.4014C7.37759 29.4014 7.01245 28.936 7.01245 28.3844C7.01245 27.8329 7.39419 27.3848 8.07469 27.3848C8.20747 27.3848 8.35685 27.3848 8.52282 27.4192L8.07469 26.4368C8.0083 26.4196 7.92531 26.4196 7.85892 26.4196C6.87967 26.4196 6 27.3331 6 28.4017C6 29.5048 6.79668 30.3321 7.95851 30.3321C8.55602 30.3321 9.03735 30.0736 9.45228 29.6599C9.81743 30.0736 10.332 30.3321 10.9129 30.3321C11.9917 30.3321 12.8714 29.4531 12.8714 28.3672C12.888 27.2986 11.9917 26.4196 10.9129 26.4196" fill="#0069D8"/>
<path d="M15.978 23.2404C15.5266 23.242 15.0842 23.1192 14.703 22.8866L7.20096 18.5359C6.83489 18.32 6.53235 18.0174 6.32213 17.6571C6.11191 17.2968 6.00101 16.8907 6 16.4774V7.77141C6 7.42547 6.07887 7.09141 6.22634 6.78772C6.34521 6.51991 6.51634 6.27652 6.73045 6.07075L6.75103 6.05029C6.88751 5.91825 7.03978 5.80469 7.20644 5.71095L14.6468 1.421C15.0505 1.1518 15.5301 1.00803 16.0212 1.00904C16.4808 1.00904 16.9211 1.13183 17.299 1.3629L24.7969 5.71095C24.9656 5.80865 25.1186 5.92551 25.2537 6.05623C25.5006 6.2873 25.6961 6.56854 25.8216 6.88279C25.9348 7.15743 25.9999 7.45716 25.9999 7.77141V16.4774C26.003 16.8973 25.8908 17.3106 25.6748 17.6754C25.4587 18.0402 25.1464 18.3436 24.7695 18.555L17.3552 22.8305C16.9636 23.0879 16.4897 23.2398 15.978 23.2398V23.2404ZM18.5171 7.69615C18.4849 7.67766 18.4526 7.65654 18.4197 7.63673L18.2716 7.54034" fill="#0069D8"/>
<path d="M10.0806 12.2924C10.0806 15.4329 12.536 17.7911 16.0696 17.7911C18.6395 17.7911 20.5648 16.3103 22.1135 14.2294L20.7554 12.6575C19.3563 14.0089 18.1656 15.1233 16.2013 15.1233C14.2945 15.1233 13.1594 13.8089 13.1594 12.2013C13.1594 10.63 14.3501 9.35188 16.4098 9.35188C16.8062 9.35188 17.2781 9.37036 17.7884 9.46213L16.4297 6.66687C16.2047 6.62962 15.9768 6.6115 15.7486 6.61273C12.7623 6.61273 10.0806 9.20598 10.0806 12.2924" fill="white"/>
</svg>
