<svg id="Calque_1" data-name="Calque 1" xmlns="http://www.w3.org/2000/svg" xmlns:xlink="http://www.w3.org/1999/xlink" viewBox="0 0 25 20.8"><defs><linearGradient id="linear-gradient" x1="6.6" y1="13.19" x2="18.22" y2="5.97" gradientUnits="userSpaceOnUse"><stop offset="0" stop-color="#eb6608"/><stop offset="0.19" stop-color="#ec6c08"/><stop offset="0.44" stop-color="#ef7c07"/><stop offset="0.72" stop-color="#f49706"/><stop offset="1" stop-color="#faba05"/></linearGradient></defs><title>colissimo</title><path d="M14.85,8.89a.2.2,0,0,1-.2,0l-.33-.2a.23.23,0,0,1-.07-.07h0a.23.23,0,0,1,0-.11V8.13a.21.21,0,0,1,.1-.17l3.93-2.29-5.52-3a.51.51,0,0,0-.44,0l-5.52,3,6.18,3.59a.21.21,0,0,1,.1.18v5.24a.19.19,0,0,1-.1.17l-.33.19-.1,0h0a.2.2,0,0,1-.11,0l-.33-.19a.19.19,0,0,1-.1-.17V10a.17.17,0,0,0-.06-.1L6.46,6.74V13a.49.49,0,0,0,.22.38l5.6,3.31a.51.51,0,0,0,.44,0l5.6-3.31a.49.49,0,0,0,.22-.38V6.74Z" transform="translate(0 -2.61)" style="fill:url(#linear-gradient)"/><path d="M2.62,20.28A1.64,1.64,0,0,0,1.7,20,1.62,1.62,0,0,0,0,21.73a1.59,1.59,0,0,0,1.71,1.68,1.83,1.83,0,0,0,.94-.24v-.82a1.32,1.32,0,0,1-.82.29.88.88,0,0,1-.95-.92.86.86,0,0,1,.92-.92,1.23,1.23,0,0,1,.82.3Z" transform="translate(0 -2.61)" style="fill:#3c3c3b"/><path d="M7.94,22.6h0a.49.49,0,0,1-.48-.55V18.64H6.59v3.47c0,.95.53,1.26,1.35,1.26Z" transform="translate(0 -2.61)" style="fill:#3c3c3b"/><path d="M4.56,20a1.69,1.69,0,0,0,0,3.37,1.69,1.69,0,1,0,0-3.37Zm0,2.62a.83.83,0,0,1-.81-.94.82.82,0,1,1,1.62,0A.83.83,0,0,1,4.56,22.66Z" transform="translate(0 -2.61)" style="fill:#3c3c3b"/><path d="M9.75,23.11a2,2,0,0,0,1.05.26c.75,0,1.28-.31,1.28-1s-.29-.89-1.12-1.05c-.3-.07-.42-.16-.42-.32s.13-.28.41-.28a1.64,1.64,0,0,1,.93.31v-.77a1.85,1.85,0,0,0-1-.24c-.69,0-1.23.33-1.23,1s.31.87,1,1c.36.07.49.15.49.35s-.18.28-.45.28a1.89,1.89,0,0,1-1-.36Z" transform="translate(0 -2.61)" style="fill:#3c3c3b"/><polygon points="8.34 20.72 9.21 20.72 9.21 20.45 9.21 17.49 8.34 17.49 8.34 20.72" style="fill:#3c3c3b"/><path d="M8.77,18.81a.44.44,0,0,0-.43.44.44.44,0,0,0,.87,0,.44.44,0,0,0-.44-.44" transform="translate(0 -2.61)" style="fill:#3c3c3b"/><path d="M23.31,20A1.69,1.69,0,1,0,25,21.72,1.62,1.62,0,0,0,23.31,20Zm0,2.62a.83.83,0,0,1-.81-.94.82.82,0,1,1,1.62,0A.83.83,0,0,1,23.31,22.66Z" transform="translate(0 -2.61)" style="fill:#3c3c3b"/><path d="M12.37,23.11a2,2,0,0,0,1.05.26c.75,0,1.28-.31,1.28-1s-.29-.89-1.12-1.05c-.3-.07-.42-.16-.42-.32s.13-.28.42-.28a1.64,1.64,0,0,1,.92.31v-.77a1.84,1.84,0,0,0-.95-.24c-.7,0-1.23.33-1.23,1s.3.87,1,1c.36.07.49.15.49.35s-.18.28-.44.28a1.89,1.89,0,0,1-1-.36Z" transform="translate(0 -2.61)" style="fill:#3c3c3b"/><polygon points="15.07 20.72 15.94 20.72 15.94 20.45 15.94 17.49 15.07 17.49 15.07 20.72" style="fill:#3c3c3b"/><path d="M15.51,18.81a.44.44,0,0,0-.44.44.44.44,0,0,0,.44.43.43.43,0,0,0,.43-.43.44.44,0,0,0-.43-.44" transform="translate(0 -2.61)" style="fill:#3c3c3b"/><path d="M20.39,21.32c0-.34-.15-.51-.49-.51a1.5,1.5,0,0,0-.61.12.84.84,0,0,1,.06.33v2.08h-.87v-2c0-.34-.16-.51-.49-.51a1.93,1.93,0,0,0-.55.07v2.46h-.86v-3A4.24,4.24,0,0,1,18,20a1.41,1.41,0,0,1,.89.25A2.5,2.5,0,0,1,20,20c.77,0,1.25.3,1.25,1.24v2.06h-.87Z" transform="translate(0 -2.61)" style="fill:#3c3c3b"/></svg>