<svg width="48" height="25" viewBox="0 0 48 25" fill="none" xmlns="http://www.w3.org/2000/svg">
<path d="M22.9059 14.4718L20.9417 11.7636C20.3716 12.1242 19.9881 12.8308 19.9881 13.4923C19.9881 14.5322 20.5973 15.1461 21.5569 15.1461C22.1542 15.1461 22.5199 14.8587 22.9059 14.4718ZM21.6137 8.74175C21.6137 9.3361 21.8233 9.7213 22.1974 10.2689C22.8754 9.9092 23.2054 9.40495 23.2054 8.7256C23.2054 8.25795 22.9738 7.792 22.4698 7.792C21.9208 7.792 21.6137 8.2367 21.6137 8.74175ZM23.7137 15.3731C22.9305 15.9879 21.9972 16.135 21.2786 16.135C19.5095 16.135 18.0841 15.1895 18.0527 13.585C18.0272 12.1897 19.333 11.2135 20.4004 10.8887C20.0686 10.4482 19.7802 9.94575 19.7802 9.2766C19.7802 7.7265 21.1055 6.96805 22.5046 6.96805C23.8859 6.96805 24.8879 7.735 24.8879 8.9509C24.8879 10.0112 23.8282 10.6711 22.8627 11.0936L24.1913 13.0757C24.6733 12.3962 24.9999 11.7152 25.1696 11.0332C25.1823 10.978 25.2281 10.8844 25.4114 10.8844H27.5394C27.6598 10.8844 27.8083 10.8683 27.7057 11.1243L27.4528 11.7024C27.3951 11.8164 27.3238 11.8716 27.2008 11.8734H26.9064C26.6731 11.8734 26.584 12.0111 26.4465 12.2219C26.4465 12.2219 26.1411 12.7271 25.9239 13.034C25.5752 13.5238 25.4895 13.6828 24.949 14.2253C24.949 14.2253 25.3656 14.9352 26.2446 14.9377H26.6281C26.6917 14.9377 26.8987 14.9122 26.8038 15.1495L26.5441 15.7753C26.5076 15.8663 26.4618 15.9462 26.2879 15.9462H25.4284C25.4284 15.9462 24.3559 16.0236 23.7137 15.3731ZM37.323 15.9479L34.4289 6.372L30.587 15.9479H37.323ZM48 23.0758V24.4422C48 24.6701 47.8498 24.8036 47.6369 24.8053H37.4935C37.2695 24.8036 37.1312 24.6582 37.1312 24.449V23.0758C37.1312 22.8564 37.2797 22.7178 37.4935 22.7178L38.3318 22.6975C38.9885 22.6839 39.1514 22.3676 39.1616 22.0657C39.1667 21.9339 39.1395 21.8029 39.1141 21.7017C39.0453 21.4314 38.8366 20.7843 38.8366 20.7843C38.8366 20.7843 38.2436 18.8771 37.8711 17.8355H29.837L28.4947 21.1457C28.3539 21.4909 28.292 21.7579 28.292 21.9696C28.2902 22.6651 28.9546 22.7017 29.5816 22.7111L30.3452 22.7178C30.5607 22.7204 30.7049 22.8496 30.7049 23.0732V24.4422C30.7049 24.6624 30.5684 24.8036 30.3452 24.8053H23.4803C23.2656 24.8036 23.1206 24.6744 23.1206 24.4447V23.0758C23.1206 22.8564 23.2589 22.7178 23.4803 22.7178L23.7145 22.7111C23.7145 22.7111 24.4509 22.74 24.8642 22.5308C25.2858 22.3182 25.4454 22.0606 25.6286 21.6278L34.445 0.480413C34.54 0.243185 34.7165 0.166658 34.9159 0.166658H37.7311C37.9661 0.166658 38.1146 0.279745 38.185 0.480413C38.9842 2.77362 45.5437 21.524 45.548 21.5308C45.8636 22.416 46.1741 22.7111 47.2084 22.7136L47.6394 22.7178C47.8549 22.7178 48 22.8539 48 23.0758ZM19.1523 18.1978V24.4447C19.1523 24.6642 19.0132 24.8044 18.7926 24.8044H17.3587C17.2187 24.8044 17.1084 24.7661 17.0184 24.5765C16.937 24.392 16.7817 24.1684 16.45 24.1684C15.6533 24.1684 14.2397 25 11.0724 25C3.90207 25 0 19.0583 0 12.5493C0 4.84151 4.67248 0 11.0309 0C13.0468 0 14.1761 0.406437 14.8464 0.68363C15.3843 0.935315 15.6304 1.09432 15.9833 1.09432C16.4695 1.09432 16.6197 0.819675 16.7868 0.452352C16.8886 0.238931 16.9557 0.167508 17.1347 0.167508H18.5652C18.7782 0.167508 18.9258 0.306102 18.9224 0.530575V6.78865C18.9258 7.0072 18.7875 7.14745 18.5652 7.14745H17.1652C16.9709 7.14745 16.8581 7.0718 16.8055 6.81925C16.2718 3.87899 15.2248 2.1036 11.9353 2.1036C7.78974 2.1036 6.79276 8.51385 6.79276 11.6743C6.79276 16.4869 7.33496 22.9193 12.1092 22.9193C15.565 22.9193 16.5917 20.9552 17.0329 18.1527C17.088 17.8806 17.2586 17.8355 17.3841 17.8355H18.7926C19.0013 17.8355 19.1523 17.9699 19.1523 18.1978Z" fill="#E40924"/>
</svg>
