<svg xmlns="http://www.w3.org/2000/svg" viewBox="0 0 222 223.47"><defs><style>.cls-1{fill:#a40030;}.cls-2{fill:#ba436c;}.cls-3{fill:#b53160;}.cls-4{fill:#d698ac;}.cls-5{fill:#fcf9fa;}.cls-6{fill:#cac2ba;}.cls-7{fill:#f6ebee;}.cls-8{fill:#cdcdc2;}</style></defs><title>mondialrelay</title><g id="Calque_2" data-name="Calque 2"><g id="Calque_1-2" data-name="Calque 1"><path class="cls-1" d="M222,36.11v13a14.91,14.91,0,0,0-.95,3.59q-.08,31.22,0,62.42,0,9,0,18c0,16.49,0,33,0,49.48,0,1.49-.95,3.37,1,4.51v4a18,18,0,0,0-1.73,3c-4.23,12.41-12.66,20-25.63,22.21-4.42.78-8.86,1.35-13.28,2.09A359.24,359.24,0,0,1,134.75,223a514.8,514.8,0,0,1-57.86-.63,458.8,458.8,0,0,1-50.42-6.09c-13-2.42-21.07-10.53-25.18-22.85-.58-1.71-.87-3.52-1.29-5.28v-154a22.05,22.05,0,0,0,1-2.69C3.5,19.64,13.84,9.06,25.42,7.14S48.73,3.31,60.47,2.29C75.22,1,90,.16,104.83,0c15.64-.15,31.32.28,46.91,1.37,13.58,1,27.09,3,40.58,4.89,15.22,2.15,25.07,10.6,28.81,25.74Zm-94,13c0,.35-.08.69-.13,1V65.08l1.12,1h16.68V48.24c-5.75,0-11.19,0-16.63,0C128.7,48.28,128.36,48.82,128,49.11Zm-5.11-1c-3.9,0-7.24-.26-10.53,0C97.1,49.63,86.55,59.17,84,73.12,82.05,83.51,83.58,94,83,104.4l19.77,11.41v-5.74c0-9.65.2-19.3-.05-28.94S110,66,117.68,66.05c1.76,0,3.52,0,5.22,0ZM150,187.76h9.25c-4.1-11.57-8-22.76-12-33.93-1.16-3.25-3.65-4.41-7-4.37-4,0-5.93,2.43-7.13,5.8l-7.44,21.06c-1.32,3.71-2.65,7.42-4.1,11.47h9.1c1-2.38,2-4.75,2.85-6.88h13.95C148.3,183.19,149.11,185.33,150,187.76ZM86.5,149.49c-4.71,0-8.85,0-13,0a21.21,21.21,0,0,0-3.47.31c-5.92,1-9.81,5.05-10,10.7-.18,5.49-.2,11,0,16.49.23,6.29,4.92,10.73,11.33,11,4,.14,8,.06,12,0a24.23,24.23,0,0,0,3.1-.42v-8.1c-5.86-.81-11.54.54-17.24-.88v-5.89H83.62v-8.14H69.09v-5.72c5.8-1.52,11.67-.06,17.41-1Zm104.29.57h-9.9l-7.44,14.18-7.61-14.12h-9.79c3.87,7,7.46,13.74,11.24,20.35A11.83,11.83,0,0,1,169,177c-.13,3.59,0,7.18,0,10.64h9c0-3.14.19-6-.05-8.76a16.86,16.86,0,0,1,2.61-10.35C184,162.76,187.11,156.75,190.79,150.06Zm-87.51,29.1c-1-10.11.06-19.53-.65-29H94c0,8.93-.06,17.55,0,26.17.07,6.7,4.38,11.26,11.07,11.67,3.46.21,6.94,0,10.71,0l2.78-8.89Zm-61.45,8.66c.08-1,.18-1.76.19-2.55,0-6.31-.07-12.61,0-18.91.08-5.41,3-8.13,8.4-8.22,1.28,0,2.57,0,4,0a17.69,17.69,0,0,0,.29-2.1c0-1.8,0-3.61,0-5.3-10.63-4.12-21.43,2.91-21.68,13.92-.15,6.63,0,13.27,0,19.9a32.38,32.38,0,0,0,.37,3.27ZM105.51,19.09A11.2,11.2,0,0,0,94.2,30c0,5.58,5.57,11,11.35,11s11.34-5.48,11.27-11.07A11.14,11.14,0,0,0,105.51,19.09ZM50.6,142c.88-3.34.54-6.81.3-10.21-.2-2.92-3.16-4.73-6.21-4.18a11.48,11.48,0,0,0-2.47,1c-5.38-1.72-8.65-.45-9.09,3.64a96.43,96.43,0,0,0-.07,9.94l3.38-.37L37,131l3.3.37v10.47h3.79V131.07l3.77.52V142Zm20-14.68c-5.62,1.88-7.71,4.58-7,8.76.7,3.87,3.48,6.23,7.19,6.11a7.41,7.41,0,0,0,7-6.56C78.31,131.88,75.93,129.06,70.61,127.34Zm44.26.75V142c4,0,8,1.15,10.59-2.88a7.41,7.41,0,0,0,0-8.42C122.9,126.57,118.78,128.3,114.87,128.09ZM93.91,142V131l3.79.6v10.65l3.33-.52c0-3.13.09-5.94,0-8.74-.13-3.25-2.29-5.49-5.15-5.57a5.44,5.44,0,0,0-5.49,4.76c-.3,3.22-.07,6.48-.07,9.83Zm69.82-2.63c.9,1.6,1.66,3.85,4.6,2.06l-4.74-13.2h-4.14c-1.58,4.48-3.13,8.9-4.66,13.23,3.08,1.87,3.58-.81,4.69-2.09Zm19.12-.69V128.07l-3.16.44c0,3.22,0,6.19,0,9.16a11.71,11.71,0,0,0,.45,2.3c3.05,2.25,6.94,2.88,8.76,1.35l-.3-2.23Zm-43.7-10.44v13.59h2.68V128.24Z"/><path class="cls-2" d="M222,187.11c-1.92-1.14-1-3-1-4.51-.08-16.5-.05-33,0-49.48q0-9,0-18h1Z"/><path class="cls-3" d="M222,115.11h-1q0-31.2,0-62.42a14.91,14.91,0,0,1,.95-3.59Z"/><path class="cls-4" d="M221.13,32a8.52,8.52,0,0,1,.87.08v4Z"/><path class="cls-5" d="M122.9,48.14V66.05c-1.7,0-3.46,0-5.22,0-7.7-.06-15.19,5.43-14.94,15.08s.05,19.29.05,28.94v5.74L83,104.4c.56-10.43-1-20.89,1-31.28,2.58-14,13.13-23.49,28.4-24.93C115.66,47.88,119,48.14,122.9,48.14Z"/><path class="cls-5" d="M150,187.76c-.93-2.43-1.74-4.57-2.6-6.85H133.49c-.89,2.13-1.87,4.5-2.85,6.88h-9.1c1.45-4,2.78-7.76,4.1-11.47l7.44-21.06c1.2-3.37,3.11-5.76,7.13-5.8,3.38,0,5.87,1.12,7,4.37,4,11.17,7.95,22.36,12,33.93Zm-9.64-28.13c-.94,4.94-3.4,8.37-3.47,12.56h7.84Z"/><path class="cls-5" d="M86.5,149.49v8.33c-5.74.94-11.61-.52-17.41,1v5.72H83.62v8.14H69.23v5.89c5.7,1.42,11.38.07,17.24.88v8.1a24.23,24.23,0,0,1-3.1.42c-4,.05-8,.13-12,0-6.41-.22-11.1-4.66-11.33-11-.21-5.49-.19-11,0-16.49.19-5.65,4.08-9.66,10-10.7a21.21,21.21,0,0,1,3.47-.31C77.65,149.47,81.79,149.49,86.5,149.49Z"/><path class="cls-5" d="M190.79,150.06c-3.68,6.69-6.8,12.7-10.26,18.51a16.86,16.86,0,0,0-2.61,10.35c.24,2.79.05,5.62.05,8.76h-9c0-3.46-.1-7.05,0-10.64a11.83,11.83,0,0,0-1.71-6.57c-3.78-6.61-7.37-13.31-11.24-20.35h9.79l7.61,14.12,7.44-14.18Z"/><path class="cls-5" d="M103.28,179.16h15.29l-2.78,8.89c-3.77,0-7.25.17-10.71,0-6.69-.41-11-5-11.07-11.67-.08-8.62,0-17.24,0-26.17h8.64C103.34,159.63,102.29,169.05,103.28,179.16Z"/><path class="cls-5" d="M41.83,187.82H33.44a32.38,32.38,0,0,1-.37-3.27c0-6.63-.15-13.27,0-19.9.25-11,11-18,21.68-13.92,0,1.69,0,3.5,0,5.3a17.69,17.69,0,0,1-.29,2.1c-1.42,0-2.71,0-4,0-5.44.09-8.32,2.81-8.4,8.22-.1,6.3,0,12.6,0,18.91C42,186.06,41.91,186.84,41.83,187.82Z"/><path class="cls-6" d="M105.51,19.09a11.14,11.14,0,0,1,11.31,10.85c.07,5.59-5.51,11.08-11.27,11.07S94.16,35.55,94.2,30A11.2,11.2,0,0,1,105.51,19.09Z"/><path class="cls-6" d="M127.88,65.08V50.14l.76-.46-.63-.57c.35-.29.69-.83,1-.84,5.44-.05,10.88,0,16.63,0V66.13H129Z"/><path class="cls-7" d="M50.6,142H47.82V131.59l-3.77-.52v10.78H40.26V131.38L37,131l-.52,10.78-3.38.37a96.43,96.43,0,0,1,.07-9.94c.44-4.09,3.71-5.36,9.09-3.64a11.48,11.48,0,0,1,2.47-1c3.05-.55,6,1.26,6.21,4.18C51.14,135.21,51.48,138.68,50.6,142Z"/><path class="cls-7" d="M70.61,127.34c5.32,1.72,7.7,4.54,7.2,8.31a7.41,7.41,0,0,1-7,6.56c-3.71.12-6.49-2.24-7.19-6.11C62.9,131.92,65,129.22,70.61,127.34Zm.14,11.81c3-1.09,3.79-3.05,3.18-5.65A3.09,3.09,0,0,0,70.64,131a3.53,3.53,0,0,0-3.54,2.93C66.51,136.08,67.37,137.27,70.75,139.15Z"/><path class="cls-7" d="M114.87,128.09c3.91.21,8-1.52,10.62,2.62a7.41,7.41,0,0,1,0,8.42c-2.59,4-6.57,2.91-10.59,2.88Zm3.34,11.3,4.87-1.76-.38-6.17h-4.49Z"/><path class="cls-7" d="M93.91,142H90.29c0-3.35-.23-6.61.07-9.83a5.44,5.44,0,0,1,5.49-4.76c2.86.08,5,2.32,5.15,5.57.12,2.8,0,5.61,0,8.74l-3.33.52V131.59l-3.79-.6Z"/><path class="cls-7" d="M163.73,139.37h-4.25c-1.11,1.28-1.61,4-4.69,2.09,1.53-4.33,3.08-8.75,4.66-13.23h4.14l4.74,13.2C165.39,143.22,164.63,141,163.73,139.37Zm-1.12-3c-.35-1.42-.62-2.55-1.1-4.52-.73,1.87-1.12,2.89-1.62,4.19Z"/><path class="cls-5" d="M182.85,138.68l5.78.41.3,2.23c-1.82,1.53-5.71.9-8.76-1.35a11.71,11.71,0,0,1-.45-2.3c-.06-3,0-5.94,0-9.16l3.16-.44Z"/><path class="cls-5" d="M139.15,128.24h2.68v13.59h-2.68Z"/><path class="cls-8" d="M128,49.11l.63.57-.76.46Z"/><path class="cls-8" d="M127.88,65.08l1.12,1Z"/><path class="cls-1" d="M140.4,159.63l4.37,12.56h-7.84C137,168,139.46,164.57,140.4,159.63Z"/><path class="cls-1" d="M70.75,139.15c-3.38-1.88-4.24-3.07-3.65-5.21A3.53,3.53,0,0,1,70.64,131a3.09,3.09,0,0,1,3.29,2.49C74.54,136.1,73.75,138.06,70.75,139.15Z"/><path class="cls-1" d="M118.21,139.39v-7.93h4.49l.38,6.17Z"/><path class="cls-3" d="M162.61,136.33l-2.72-.33c.5-1.3.89-2.32,1.62-4.19C162,133.78,162.26,134.91,162.61,136.33Z"/></g></g></svg>