<svg viewBox="0 0 30 32" fill="none" xmlns="http://www.w3.org/2000/svg">
  <path fill-rule="evenodd" clip-rule="evenodd"
    d="M1.63541 27.456C1.31777 27.4641 1.01745 27.5983 0.804518 27.8272C0.792453 27.7397 0.750684 27.6586 0.685818 27.5968C0.613629 27.5232 0.513528 27.4816 0.408853 27.4816C0.304178 27.4816 0.204078 27.5232 0.131888 27.5968C0.0644573 27.6761 0.0272022 27.7755 0.0263777 27.8784V30.4384C0.0156676 30.5406 0.0490941 30.6426 0.118699 30.72C0.183651 30.7958 0.280961 30.8383 0.382476 30.8352C0.487814 30.8385 0.589233 30.7963 0.659441 30.72C0.738647 30.6469 0.781849 30.5444 0.77814 30.4384V28.672C0.871513 28.546 0.987706 28.4376 1.12105 28.352C1.263 28.2651 1.42808 28.2206 1.59585 28.224C1.75414 28.2218 1.89587 28.1283 1.95615 27.9862C2.01643 27.8442 1.98364 27.6809 1.87281 27.5712C1.80375 27.4934 1.70154 27.4508 1.59585 27.456"
    fill="#E5273E" />
  <path
    d="M2.95422 28.8128C2.96645 28.7281 2.99319 28.6459 3.03335 28.5696C3.15105 28.3132 3.41687 28.1513 3.70598 28.16C3.89392 28.1586 4.07626 28.2221 4.22034 28.3392C4.35938 28.4683 4.44795 28.6402 4.47093 28.8256L2.95422 28.8128ZM5.15675 29.44C5.24594 29.3521 5.28955 29.2299 5.27545 29.1072C5.29031 28.6896 5.14987 28.2807 4.87978 27.9552C4.59493 27.6215 4.16528 27.4367 3.71917 27.456C3.25659 27.4354 2.81299 27.6363 2.53218 27.9936C2.28086 28.3418 2.1514 28.7591 2.16289 29.184C2.13443 29.6512 2.29537 30.1106 2.61131 30.464C2.93697 30.7836 3.38873 30.9516 3.85106 30.9248C4.07438 30.9293 4.297 30.899 4.5105 30.8352L4.73471 30.72L4.97211 30.6048C5.09382 30.537 5.16538 30.408 5.15675 30.272C5.15926 30.18 5.12082 30.0914 5.05124 30.0288C4.91395 29.917 4.71374 29.917 4.57644 30.0288C4.34876 30.1285 4.10072 30.1766 3.85106 30.1696C3.61647 30.185 3.38487 30.1116 3.20481 29.9648C3.06975 29.8177 2.98256 29.6351 2.95422 29.44H4.8666C4.95956 29.477 5.06379 29.477 5.15675 29.44Z"
    fill="#E5273E" />
  <path fill-rule="evenodd" clip-rule="evenodd"
    d="M5.93487 26.2528C5.85832 26.3277 5.81561 26.429 5.81617 26.5344V30.4896C5.82613 30.5777 5.86823 30.6594 5.93487 30.72C6.00507 30.7963 6.10649 30.8385 6.21183 30.8352C6.31651 30.8352 6.41661 30.7936 6.4888 30.72C6.54884 30.6564 6.58588 30.5755 6.59431 30.4896V26.5344C6.59486 26.429 6.55216 26.3277 6.47561 26.2528C6.32176 26.1065 6.07553 26.1065 5.92168 26.2528"
    fill="#E5273E" />
  <path
    d="M9.23221 29.4402V29.7986C9.12888 29.8969 9.01375 29.9829 8.8893 30.0546C8.74469 30.1354 8.58136 30.1794 8.4145 30.1826C7.95289 30.1826 7.88695 29.9778 7.88695 29.8114C7.87803 29.6952 7.94726 29.5866 8.0584 29.5426C8.26401 29.4647 8.48422 29.4298 8.70465 29.4402H9.23221ZM8.63871 27.4434C8.26274 27.4464 7.89096 27.5203 7.54404 27.661C7.40652 27.7102 7.31642 27.8388 7.31983 27.981C7.30906 28.0855 7.34789 28.1891 7.42534 28.2626C7.51636 28.3475 7.64809 28.377 7.76825 28.3394C8.18194 28.1321 8.67344 28.1321 9.08713 28.3394C9.19077 28.457 9.24699 28.607 9.2454 28.7618H8.62552C8.22681 28.7383 7.83165 28.8465 7.50447 29.069C7.25067 29.2623 7.10832 29.5625 7.122 29.8754C7.11537 30.1613 7.23542 30.4363 7.45172 30.6306C7.66639 30.813 7.94468 30.9091 8.22986 30.8994C8.48747 30.8994 8.74112 30.8378 8.96843 30.7202C9.05917 30.6784 9.14725 30.6314 9.23221 30.5794C9.25108 30.6506 9.28726 30.7165 9.33772 30.7714C9.49157 30.9177 9.7378 30.9177 9.89165 30.7714C9.97085 30.6983 10.0141 30.5958 10.0103 30.4898V28.7618C10.0143 28.4344 9.89733 28.1166 9.68063 27.8658C9.41367 27.5852 9.03158 27.435 8.63871 27.4562V27.4434Z"
    fill="#E5273E" />
  <path fill-rule="evenodd" clip-rule="evenodd"
    d="M11.1577 26.2271C11.0435 26.2306 10.935 26.2764 10.8544 26.3551C10.7722 26.4471 10.7297 26.5662 10.7357 26.6878C10.733 26.7974 10.7758 26.9035 10.8544 26.9823C10.9314 27.0659 11.0422 27.1126 11.1577 27.1103C11.2698 27.1143 11.3773 27.0669 11.4479 26.9823C11.5355 26.9086 11.584 26.8003 11.5797 26.6878C11.581 26.5722 11.5333 26.4612 11.4479 26.3807C11.3739 26.3004 11.2686 26.254 11.1577 26.2527V26.2271ZM10.8544 27.5966C10.7849 27.6748 10.7474 27.775 10.7489 27.8782V30.4382C10.7474 30.5415 10.7849 30.6416 10.8544 30.7198C10.9266 30.7934 11.0267 30.8351 11.1313 30.8351C11.2367 30.8383 11.3381 30.7961 11.4083 30.7198C11.4875 30.6468 11.5307 30.5443 11.527 30.4382V27.8782C11.5307 27.7722 11.4875 27.6697 11.4083 27.5966C11.3361 27.5231 11.236 27.4814 11.1313 27.4814C11.0267 27.4814 10.9266 27.5231 10.8544 27.5966ZM14.1384 29.0302C13.9911 28.9619 13.8362 28.9104 13.6768 28.8767L13.2547 28.7614C13.1423 28.737 13.0352 28.6937 12.9382 28.6334C12.8842 28.6071 12.8526 28.551 12.8591 28.4926C12.8597 28.4057 12.9107 28.3265 12.9909 28.2878C13.1282 28.2013 13.289 28.1567 13.4526 28.1598C13.6537 28.1626 13.8535 28.1928 14.0461 28.2495C14.1193 28.2978 14.2094 28.3155 14.2962 28.2987C14.3831 28.2818 14.4593 28.2318 14.5077 28.1598C14.5703 28.099 14.6038 28.0154 14.6 27.9295C14.6251 27.859 14.6251 27.7823 14.6 27.7119C14.5574 27.6453 14.492 27.5954 14.4153 27.571C14.1237 27.4683 13.8156 27.4163 13.5053 27.4174C13.1584 27.4006 12.8168 27.505 12.5425 27.7119C12.436 27.8096 12.3508 27.9271 12.2919 28.0575C12.2368 28.2095 12.21 28.3699 12.2128 28.5311C12.209 28.7057 12.2646 28.8766 12.3711 29.0174C12.4726 29.1386 12.5982 29.2387 12.7404 29.3118C12.8864 29.386 13.0415 29.4419 13.202 29.4783L13.6372 29.5934L13.9537 29.7086C13.9963 29.7252 14.023 29.7666 14.0197 29.811C14.0197 29.9006 14.0197 30.131 13.4657 30.131C13.2194 30.1334 12.9757 30.0809 12.7536 29.9774C12.6752 29.9619 12.5945 29.9619 12.5162 29.9774C12.4225 29.9764 12.3341 30.0193 12.2788 30.0926C12.2189 30.1653 12.1864 30.2556 12.1864 30.3486C12.186 30.4626 12.2457 30.5689 12.3447 30.6302C12.6981 30.8259 13.0985 30.9275 13.5053 30.9246C13.8482 30.9419 14.1858 30.8372 14.4549 30.6302C14.6763 30.4505 14.7983 30.1805 14.7846 29.9006C14.7951 29.5361 14.5831 29.1999 14.2439 29.0431L14.1384 29.0302ZM17.9499 28.1598C18.1575 28.165 18.3608 28.2176 18.5434 28.3135C18.6079 28.3768 18.6957 28.4124 18.7874 28.4124C18.8791 28.4124 18.967 28.3768 19.0314 28.3135C19.089 28.2347 19.1211 28.1412 19.1237 28.0446C19.118 27.9189 19.0422 27.8061 18.9259 27.7502C18.8058 27.6733 18.6776 27.6089 18.5434 27.5582C18.3381 27.4796 18.1177 27.4447 17.8972 27.4559C17.4519 27.4457 17.0205 27.6067 16.697 27.9039C16.3472 28.2419 16.1563 28.7049 16.1695 29.1838C16.1498 29.6639 16.3416 30.1294 16.697 30.4639C17.0151 30.7706 17.449 30.9372 17.8972 30.9246C18.2626 30.9275 18.6206 30.825 18.9259 30.6302C19.0406 30.5664 19.1148 30.4511 19.1237 30.323C19.1238 30.23 19.0913 30.1397 19.0314 30.067C18.972 29.99 18.88 29.943 18.7808 29.939C18.6959 29.9429 18.6138 29.9695 18.5434 30.0159C18.3608 30.1117 18.1575 30.1643 17.9499 30.1694C17.677 30.1931 17.4071 30.0995 17.2114 29.9134C17.0341 29.715 16.94 29.4592 16.9476 29.1967C16.9345 28.9333 17.0294 28.6756 17.2114 28.4798C17.4058 28.2906 17.6752 28.1925 17.9499 28.2111"
    fill="#E5273E" />
  <path
    d="M20.2579 28.7106C20.3645 28.3527 20.7203 28.1207 21.102 28.1602C21.3215 28.1551 21.5343 28.2331 21.6955 28.3778C22.0834 28.8254 22.0834 29.4789 21.6955 29.9266C21.6168 30.001 21.5223 30.0578 21.4185 30.093C21.215 30.1701 20.989 30.1701 20.7855 30.093C20.6848 30.0518 20.5914 29.9956 20.5085 29.9266C20.4217 29.8383 20.3544 29.7338 20.3107 29.6194C20.2554 29.4718 20.2286 29.3156 20.2315 29.1586C20.2269 28.9973 20.2538 28.8366 20.3107 28.685L20.2579 28.7106ZM21.102 27.405C20.6497 27.3843 20.2109 27.5575 19.9018 27.8786C19.5846 28.2314 19.4235 28.6913 19.4534 29.1586C19.4175 29.6266 19.5794 30.0887 19.9018 30.4386C20.2095 30.763 20.648 30.9406 21.102 30.925C21.5599 30.941 22.0025 30.7635 22.3154 30.4386C22.9123 29.7074 22.9123 28.6737 22.3154 27.9426C22.0012 27.6209 21.5582 27.448 21.102 27.469"
    fill="#E5273E" />
  <path fill-rule="evenodd" clip-rule="evenodd"
    d="M23.4102 26.2529C23.3372 26.329 23.2992 26.4306 23.3047 26.5345V30.4897C23.2992 30.5936 23.3372 30.6952 23.4102 30.7713C23.4824 30.8449 23.5825 30.8865 23.6872 30.8865C23.7925 30.8898 23.894 30.8476 23.9642 30.7713C24.0434 30.6982 24.0866 30.5957 24.0829 30.4897V26.5345C24.0834 26.4291 24.0407 26.3277 23.9642 26.2529C23.892 26.1793 23.7919 26.1377 23.6872 26.1377C23.5825 26.1377 23.4824 26.1793 23.4102 26.2529ZM24.9797 27.5969C24.9103 27.6751 24.8727 27.7753 24.8742 27.8785V30.4385C24.875 30.5413 24.9123 30.6408 24.9797 30.7201C25.0519 30.7937 25.152 30.8353 25.2567 30.8353C25.3659 30.8389 25.4715 30.797 25.5468 30.7201C25.6163 30.6419 25.6538 30.5417 25.6523 30.4385V27.8785C25.6538 27.7753 25.6163 27.6751 25.5468 27.5969C25.4723 27.5226 25.3701 27.4807 25.2633 27.4807C25.1565 27.4807 25.0542 27.5226 24.9797 27.5969ZM25.2831 26.2273C25.1728 26.2315 25.0687 26.2775 24.9929 26.3553C24.902 26.4429 24.854 26.564 24.861 26.6881C24.8567 26.8006 24.9052 26.9088 24.9929 26.9825C25.0647 27.0656 25.1714 27.1126 25.2831 27.1105C25.3986 27.1129 25.5094 27.0661 25.5864 26.9825C25.665 26.9037 25.7077 26.7977 25.7051 26.6881C25.7057 26.575 25.6635 26.4657 25.5864 26.3809C25.5058 26.3023 25.3973 26.2565 25.2831 26.2529V26.2273ZM28.2769 29.0305C28.1281 28.966 27.9736 28.9146 27.8153 28.8769L27.3801 28.7617C27.2718 28.7371 27.1691 28.6937 27.0767 28.6337C27.0108 28.6337 26.9976 28.5569 26.9976 28.4929C26.9983 28.4094 27.0431 28.3321 27.1163 28.2881C27.2572 28.2126 27.4172 28.1771 27.5779 28.1857C27.7792 28.1874 27.9791 28.2176 28.1714 28.2753C28.3123 28.3543 28.4916 28.3217 28.5934 28.1985C28.6596 28.1389 28.6978 28.0557 28.699 27.9681C28.6972 27.8912 28.6744 27.8161 28.633 27.7505C28.5876 27.6865 28.5232 27.6374 28.4484 27.6097C28.1519 27.508 27.8396 27.4561 27.5252 27.4561C27.1786 27.4415 26.8377 27.5457 26.5624 27.7505C26.4765 27.8755 26.414 28.0141 26.3777 28.1601C26.3226 28.3121 26.2958 28.4725 26.2986 28.6337C26.2948 28.8083 26.3504 28.9793 26.4569 29.1201C26.5644 29.2405 26.6941 29.3403 26.8393 29.4145C26.9854 29.4917 27.1403 29.5518 27.3009 29.5937L27.7362 29.6961L28.0395 29.8113C28.1055 29.8113 28.1187 29.8881 28.1187 29.9137C28.1187 29.9393 28.1187 30.2337 27.5647 30.2337C27.3139 30.2376 27.0656 30.185 26.8393 30.0801C26.761 30.0646 26.6803 30.0646 26.6019 30.0801C26.5118 30.0788 26.4273 30.1222 26.3777 30.1953C26.3088 30.2636 26.2708 30.3557 26.2722 30.4513C26.2719 30.5686 26.3377 30.6766 26.4437 30.7329C26.7922 30.9287 27.1884 31.0303 27.5911 31.0273C27.9343 31.047 28.2728 30.942 28.5407 30.7329C28.7621 30.5531 28.8841 30.2832 28.8704 30.0033C28.8833 29.6417 28.6769 29.3063 28.3429 29.1457"
    fill="#E5273E" />
  <path fill-rule="evenodd" clip-rule="evenodd"
    d="M14.4023 0C8.02616 0.125989 2.96117 5.24218 3.08625 11.4304C3.02621 14.401 4.18483 17.273 6.30711 19.4143C8.4294 21.5557 11.3414 22.7908 14.4023 22.848C17.4631 22.7908 20.3751 21.5557 22.4974 19.4143C24.6197 17.273 25.7783 14.401 25.7183 11.4304C25.8433 5.24218 20.7783 0.125989 14.4023 0Z"
    fill="#BFD248" />
  <path fill-rule="evenodd" clip-rule="evenodd"
    d="M22.4869 13.1969L15.1407 19.3792C14.9356 19.5517 14.6736 19.6471 14.4022 19.6481C14.1316 19.6428 13.871 19.5479 13.6636 19.3792L6.31744 13.1969C6.08087 12.9933 5.9344 12.709 5.90858 12.4033C5.86798 12.0862 5.96335 11.7669 6.17236 11.5201C6.38811 11.2525 6.7191 11.0966 7.0692 11.0977C7.34081 11.0975 7.60326 11.193 7.80777 11.3665L13.1888 15.9873V4.37765C13.1415 3.94892 13.3505 3.53161 13.7272 3.30289C14.1038 3.07417 14.5819 3.07417 14.9585 3.30289C15.3351 3.53161 15.5441 3.94892 15.4968 4.37765V15.9873L20.957 11.4049C21.1589 11.2271 21.4231 11.1309 21.6956 11.1361C22.041 11.1389 22.3663 11.2944 22.5792 11.5585C22.778 11.7956 22.8727 12.099 22.843 12.4033C22.8172 12.709 22.6707 12.9933 22.4342 13.1969"
    fill="#FEFEFE" />
</svg>