<svg width="77" height="40" viewBox="0 0 77 40" fill="none" xmlns="http://www.w3.org/2000/svg">
  <g clip-path="url(#clip0_495_2962)">
    <path
      d="M15.3552 19.1995C14.2193 20.9848 13.0835 22.7559 11.4568 24.4137C9.84417 26.0716 7.75475 27.6019 6.32441 28.1687C4.90809 28.7354 4.15087 28.3246 3.85638 26.6807C3.5619 25.0371 3.73018 22.175 4.23499 19.6103C4.73983 17.0457 5.58121 14.7786 6.52073 12.6957C7.46027 10.6128 8.48394 8.69999 10.1387 6.74461C11.7934 4.80341 14.0651 2.8197 15.1168 2.93307C16.1685 3.04642 15.9862 5.25683 15.1729 7.36806C14.3596 9.47929 12.9152 11.4772 10.6855 11.1229C12.7469 12.4265 14.5559 11.0946 15.9161 9.21008C17.2763 7.33972 18.1878 4.91676 17.5568 3.28729C16.9117 1.65782 14.7242 0.807662 12.6768 1.21857C10.6295 1.62948 8.72233 3.28729 7.1798 4.97345C5.6373 6.67377 4.43131 8.40242 3.42166 10.2586C2.412 12.1148 1.57064 14.0985 0.939605 16.1247C0.308572 18.1509 -0.112117 20.2196 0.0140893 22.4017C0.126273 24.5839 0.785352 26.8935 2.28581 28.2537C3.78627 29.614 6.1281 30.0106 8.04924 29.3164C9.97038 28.6219 11.4568 26.8509 12.803 25.094C14.1492 23.3511 15.3271 21.6224 16.4209 19.8229C17.5147 18.0234 18.5244 16.1389 19.4499 14.226C19.2115 14.1268 18.9731 14.0135 18.7207 13.9143C17.6269 15.6004 16.4911 17.3999 15.3552 19.1995Z"
      fill="#333333" />
    <path
      d="M76.958 19.6812C76.9159 19.6245 76.8458 19.582 76.7897 19.5537C76.7197 19.5112 76.6634 19.4828 76.5792 19.4687C76.4951 19.4545 76.383 19.4687 76.3409 19.5678C76.0464 20.163 75.6819 20.9423 75.3172 21.6507C74.9527 22.3592 74.588 22.9968 74.0552 23.6911C73.5364 24.3853 72.8492 25.1506 72.2742 25.3065C71.6994 25.4622 71.2086 25.0371 71.1664 24.2721C71.1103 23.5069 71.4889 22.4017 71.7974 21.4524C72.1061 20.5172 72.3304 19.7379 72.6108 18.8452C72.9054 17.9525 73.2418 16.9607 73.2139 16.1531C73.1858 15.3454 72.7791 14.7361 72.1199 14.5378C71.461 14.3394 70.5494 14.5378 69.8483 14.977C69.1472 15.4162 68.6423 16.0822 68.1796 16.7765C67.7169 17.4566 67.3102 18.1651 66.9736 18.9161C66.6231 19.667 66.3566 20.4464 66.0481 21.2115C66.2443 20.0779 66.4548 18.8877 66.651 17.91C66.8475 16.9324 67.0296 16.1672 67.1419 15.5863C67.2541 15.0053 67.268 14.6086 66.8474 14.3819C66.4267 14.1552 65.5432 14.1127 65.0664 14.2118C64.5897 14.311 64.5055 14.5661 64.3372 15.1045C64.1689 15.643 63.9167 16.4648 63.6921 17.4425C63.4678 18.4201 63.2857 19.5537 63.1593 20.418C63.1453 20.5314 63.1314 20.6447 63.1174 20.7439C61.7011 22.6284 60.9297 23.6344 60.1866 24.3853C59.4292 25.1506 58.7 25.6465 57.8868 25.8733C57.0735 26.1 56.19 26.0574 55.6991 25.5472C55.1942 25.0371 55.0822 24.0454 55.0822 23.1385C55.0822 22.4726 55.1523 21.8491 55.2784 21.2257C56.1759 21.1973 57.0875 21.084 57.9007 20.7439C58.9524 20.3047 59.8359 19.4828 60.2986 18.3635C60.7613 17.2299 60.8176 15.7988 60.1866 14.9628C59.5556 14.1268 58.2373 13.9001 57.1154 14.2118C56.0076 14.5236 55.1101 15.3879 54.367 16.3372C53.7501 17.1166 53.2451 17.9525 52.8666 18.8452C52.2775 19.4687 51.6887 20.0921 51.1137 20.7439C50.3563 21.5941 49.6271 22.4584 48.87 23.3227C48.4914 23.762 48.1128 24.2012 47.72 24.6121C47.6079 24.2863 47.4678 23.9745 47.3135 23.6628C46.7526 22.6001 45.8691 21.6224 45.168 20.9706C44.4667 20.3047 43.9479 19.9646 44.6772 19.327C45.4064 18.6894 47.3836 17.7684 48.6876 17.1874C48.6876 16.3089 48.2671 15.6571 47.7062 15.1612C47.1452 14.6511 46.4441 14.2969 45.3923 14.2827C44.3406 14.2685 42.9384 14.5944 41.1433 14.5944C41.2274 16.0822 41.9006 16.4081 42.4616 16.5498C43.0225 16.6915 43.4712 16.6348 43.9198 16.5923C44.3687 16.5498 44.8173 16.5214 45.224 16.4931C44.3124 16.9182 42.9384 17.6833 42.4334 18.5618C42.181 19.0011 42.139 19.4545 42.2091 19.9079C41.2975 20.8573 40.0636 21.5516 38.7734 21.8916C38.9417 21.1973 39.04 20.4889 39.0819 19.7946C39.1379 18.8736 39.0679 17.9384 38.8156 17.0315C38.5632 16.1247 38.1284 15.2462 37.3572 14.7786C36.586 14.311 35.492 14.2685 34.5806 14.5803C33.6831 14.892 32.9679 15.5438 32.3791 16.2806C32.1686 16.2947 31.9583 16.2947 31.7478 16.3089C31.1309 16.989 30.5559 17.7258 30.1773 18.5618C29.8128 19.3978 29.6586 20.333 29.6305 21.254C29.1256 22.2742 28.3544 23.3511 27.7374 24.1019C27.1205 24.8388 26.6716 25.2497 26.0827 25.6039C25.4937 25.9583 24.7785 26.2557 24.2598 26.2699C23.7408 26.2841 23.4043 26.015 23.208 25.4482C23.0117 24.8815 22.9415 24.017 22.9556 23.1385C22.9696 22.26 23.0678 21.3815 23.222 20.2055C23.3763 19.0294 23.6287 17.5841 24.0774 15.7988C26.1948 15.062 27.8635 13.8151 29.3921 12.3698C30.9347 10.9246 32.3369 9.2951 33.1644 7.14137C34.0056 4.98763 34.2722 2.32379 33.3606 0.991871C32.463 -0.340045 30.3878 -0.325876 28.6349 0.82184C26.924 1.98372 25.4937 4.25081 24.3439 6.34787C23.194 8.44493 22.3105 10.372 21.6655 12.3557C21.0204 14.3535 20.6137 16.4081 20.3894 18.9444C20.165 21.4807 20.137 24.513 21.0204 26.2133C21.8898 27.9135 23.6707 28.2677 25.3676 27.4742C27.0642 26.6668 28.705 24.6971 29.7006 23.0393C29.8269 24.2012 30.1213 25.0371 30.6122 25.7316C31.1168 26.44 31.8182 27.021 32.7155 27.2477C33.613 27.4742 34.7067 27.3325 35.5762 26.9359C36.4317 26.5391 37.0628 25.8591 37.5534 25.094C37.9882 24.3853 38.3107 23.6061 38.5491 22.7985C39.9935 22.4726 41.3817 21.7358 42.4334 20.6164C42.5317 20.8431 42.6437 21.0556 42.77 21.2398C43.2609 22.005 43.9057 22.5009 44.5089 23.3794C45.0138 24.1162 45.5044 25.1364 45.8551 26.4682C45.2381 27.0068 44.6071 27.5027 43.962 27.9986C43.0645 28.6788 42.139 29.3306 41.2415 30.0248C40.344 30.7048 39.4745 31.4275 38.7034 32.2778C37.9322 33.128 37.273 34.134 36.9924 35.2675C36.7261 36.4152 36.8382 37.7046 37.4692 38.5689C38.1005 39.4333 39.2362 39.8868 40.4002 39.9716C41.55 40.0566 42.7279 39.7591 43.7377 39.1923C44.7473 38.6256 45.6026 37.8039 46.2758 36.8687C46.9347 35.9335 47.3977 34.9133 47.72 33.8222C48.0425 32.7311 48.2108 31.5976 48.295 30.4499C48.3791 29.3022 48.3651 28.1687 48.239 27.021C48.1968 26.6525 48.1548 26.2841 48.0847 25.9157C48.5055 25.4764 48.926 25.0231 49.3327 24.5697C50.2862 23.4928 51.2119 22.3876 52.1514 21.3107C52.0673 21.8066 52.0391 22.3025 52.0673 22.7985C52.1233 23.9604 52.4878 25.1222 53.2311 26.0292C53.9603 26.9359 55.0541 27.5877 56.1759 27.6586C57.2837 27.7294 58.4196 27.2193 59.5274 26.2699C60.4951 25.4482 61.4346 24.2863 62.9631 22.09C62.9491 22.2175 62.935 22.3451 62.9069 22.4584C62.8227 23.0677 62.7247 23.7053 62.6406 24.3571C62.5564 25.0089 62.4723 25.6747 62.5843 26.1566C62.6966 26.6383 62.9769 26.9501 63.4678 27.106C63.9586 27.2617 64.6597 27.2759 65.0104 27.0492C65.3608 26.8227 65.347 26.3692 65.5153 25.7316C65.6696 25.094 66.0059 24.2578 66.2725 23.5636C66.539 22.8693 66.7352 22.3167 66.9457 21.7641C67.1559 21.2115 67.3662 20.6589 67.6046 20.1346C67.843 19.5962 68.1095 19.0719 68.3898 18.5618C68.6704 18.0376 68.9508 17.5275 69.3296 17.0457C69.6941 16.5498 70.1568 16.0964 70.7318 16.068C70.5215 16.734 70.311 17.4141 70.0867 18.0801C69.8764 18.746 69.6519 19.4262 69.4557 20.0921C69.2454 20.7723 69.063 21.4382 68.8807 22.1183C68.6983 22.7985 68.5162 23.4786 68.5021 24.187C68.474 24.8954 68.6144 25.6181 69.007 26.1709C69.3997 26.7234 70.0586 27.12 70.7318 27.2335C71.4188 27.3468 72.134 27.2051 72.709 26.8366C73.284 26.4824 73.7326 25.9015 74.1393 25.3205C74.546 24.7398 74.9105 24.1446 75.2471 23.5353C75.5837 22.926 75.8922 22.2884 76.2007 21.6507C76.4813 21.0556 76.7616 20.4605 77.042 19.8654C77.0281 19.8229 77 19.7379 76.958 19.6812ZM56.5266 17.9951C57.0453 17.1024 57.7464 16.1814 58.2933 15.8272C58.8404 15.4871 59.2469 15.7138 59.3591 16.4223C59.4574 17.1166 59.2609 18.2926 58.7841 19.0436C58.2933 19.8087 57.5362 20.163 56.7228 20.2905C56.3302 20.3613 55.9235 20.3755 55.5168 20.3755C55.7273 19.6104 56.0498 18.8169 56.5266 17.9951ZM25.3535 11.6755C25.676 10.6412 26.0546 9.57847 26.4613 8.55828C26.8821 7.53809 27.3307 6.54624 27.8216 5.56857C28.3124 4.59089 28.8452 3.59903 29.5184 2.72052C30.1914 1.82786 31.0188 1.03438 31.6499 1.36027C32.2809 1.68617 32.7014 3.14561 32.6454 4.43501C32.5894 5.72443 32.0425 6.87214 31.4394 7.87816C30.8365 8.88419 30.1773 9.76269 29.4762 10.5845C28.7611 11.4063 27.9899 12.1715 27.1624 12.8658C26.3352 13.5601 25.4377 14.1835 24.4281 14.7645C24.7506 13.7443 25.031 12.7241 25.3535 11.6755ZM36.067 24.4138C35.5902 25.193 34.9172 25.8733 34.3282 25.8875C33.7391 25.9015 33.2204 25.2357 32.9398 24.4846C32.6594 23.7336 32.6175 22.9118 32.6034 22.1608C32.5894 21.6366 32.5894 21.1548 32.6454 20.6305C33.6271 22.3592 35.1275 22.9685 36.7261 22.9968C36.5719 23.4786 36.3476 23.9745 36.067 24.4138ZM37.3431 19.582C37.3011 20.4038 37.2308 21.1406 37.0487 21.9483C37.0346 22.0191 37.0206 22.09 36.9924 22.1608C36.9085 22.1608 36.8382 22.1608 36.754 22.1608C34.8331 22.0758 33.2623 20.9706 33.0943 18.5335C33.2344 18.1226 33.4027 17.7258 33.5989 17.3858C33.5148 17.2016 33.4447 17.0032 33.3606 16.819C34.0478 16.1389 34.9592 15.5013 35.6603 15.5296C36.3614 15.5579 36.8663 16.2664 37.1188 17.0599C37.3853 17.8675 37.3712 18.7744 37.3431 19.582ZM44.2564 33.2554C43.5834 34.4598 43.0225 35.2817 42.4194 36.0325C41.8306 36.7836 41.1995 37.4636 40.5823 37.9456C39.9513 38.413 39.3344 38.6822 39.0118 38.5547C38.7034 38.413 38.7034 37.8887 38.9558 37.1803C39.2221 36.4718 39.7411 35.5933 40.2879 34.7574C40.8489 33.9215 41.4379 33.1422 42.2091 32.1928C42.9803 31.2292 43.9198 30.0957 46.0234 28.0694C45.7289 30.4499 44.9296 32.0511 44.2564 33.2554Z"
      fill="#333333" />
  </g>
  <defs>
    <clipPath id="clip0_495_2962">
      <rect width="77" height="40" fill="white" />
    </clipPath>
  </defs>
</svg>