<svg id="ed359b8d-3da5-49c0-a0d6-f7f7768f12e9" data-name="Calque 1" xmlns="http://www.w3.org/2000/svg" viewBox="0 0 446 400.84"><defs><style>.\33 2a62598-b871-4cc2-a55b-4f18ae00b838,.\37 f99126b-6ceb-4a0e-8d3b-3cdd063a821a{fill:#f60;}.\37 f99126b-6ceb-4a0e-8d3b-3cdd063a821a{fill-rule:evenodd;}.\35 627e98d-dab3-4528-98fc-128a368ea27a{fill:none;}.f8eb81b0-6a0a-4fea-94b0-505d454959e6{fill:#333;}</style></defs><title>logo</title><path class="7f99126b-6ceb-4a0e-8d3b-3cdd063a821a" d="M434.13,65.21C413.23,21.87,370.81-2.9,322.88.27,275.44,3.41,236.95,33,221.59,77.9h0l-.35,1.06-.12.33h0L181.17,199.55c-9.05,27.47-31.71,44.16-60.59,46.07s-54.43-13-67-39-8.36-55.3,11.08-76.72,48.17-28.47,75.33-18.49l0-.07a23.11,23.11,0,1,0,15.92-43.23l0-.07C110.67,51.38,62.8,63.12,30.39,98.83S-9.06,183.29,11.92,226.7s63.57,68.2,111.7,65c47.55-3.13,86.14-32.64,101.62-77.49l.07,0L264.85,93.72c9-27.43,32.3-45.51,61.06-47.41s54.21,13,66.75,39,8.32,55.22-11,76.61c-18.61,20.56-45.77,27.86-71.87,19.52a23.93,23.93,0,0,0-11.38-2.85,23,23,0,0,0-7.63,45l0,.12c45.08,16.62,92.76,4.89,125-30.76S455,108.55,434.13,65.21Z"/><path class="5627e98d-dab3-4528-98fc-128a368ea27a" d="M398.13,361.36a27,27,0,0,0-6,1.28,13.44,13.44,0,0,0-4.67,2.66,7,7,0,0,0-2.29,4.37q-.57,3.89,1.81,5.6t6.86,1.71a14.78,14.78,0,0,0,6.15-1.19,14,14,0,0,0,4.43-3.08,14.23,14.23,0,0,0,2.81-4.22,17,17,0,0,0,1.29-4.6L409,361h-4.57A61.75,61.75,0,0,0,398.13,361.36Z"/><path class="32a62598-b871-4cc2-a55b-4f18ae00b838" d="M63.24,313.81l-.54.11A23.91,23.91,0,0,0,44.24,333.4l-.12,0-4.65,27.31h0a14.39,14.39,0,0,1-11.42,11.63,14.6,14.6,0,0,1-15.39-6.43,14.87,14.87,0,0,1,0-16.78A14.31,14.31,0,0,1,28,343v0a4.87,4.87,0,0,0,2.1.19,4.94,4.94,0,0,0,4.17-5.63A5,5,0,0,0,30,333.22v0A23.84,23.84,0,0,0,4.45,343.43a24.79,24.79,0,0,0,.07,28,24.39,24.39,0,0,0,25.65,10.72,24,24,0,0,0,19.07-19.58h0l4.47-27,.14,0a14.33,14.33,0,0,1,10.27-11.65c.38-.11.77-.2,1.16-.28C72.08,322.08,70,313,63.24,313.81Z"/><path class="32a62598-b871-4cc2-a55b-4f18ae00b838" d="M274.16,343.19a24.37,24.37,0,0,0-25.65-10.71A24,24,0,0,0,229.44,352h0l-4.47,27-.15,0a14.32,14.32,0,0,1-10.27,11.65c-.37.11-.77.21-1.16.29-6.78,1.52-4.7,10.55,2.07,9.79l.55-.12a23.9,23.9,0,0,0,18.45-19.47l.12,0,4.65-27.31h0a14.37,14.37,0,0,1,11.41-11.64A14.64,14.64,0,0,1,266,348.71a14.87,14.87,0,0,1,.05,16.78,14.3,14.3,0,0,1-15.36,6.15v0a4.86,4.86,0,0,0-2.1-.18,4.93,4.93,0,0,0-4.17,5.63,5,5,0,0,0,4.27,4.27v0a23.84,23.84,0,0,0,25.59-10.25A24.81,24.81,0,0,0,274.16,343.19Z"/><polygon class="f8eb81b0-6a0a-4fea-94b0-505d454959e6" points="66.82 382.67 75.36 382.67 81.63 337.67 73.08 337.67 66.82 382.67"/><path class="f8eb81b0-6a0a-4fea-94b0-505d454959e6" d="M103.51,345.79a11.48,11.48,0,0,1,5.46-1.28,9.77,9.77,0,0,1,5.27,1.28,10.5,10.5,0,0,1,3.27,3.18l7.4-5a11.27,11.27,0,0,0-5.84-5.7,21.12,21.12,0,0,0-8.5-1.71,24.79,24.79,0,0,0-6.36.85A20.5,20.5,0,0,0,98.33,340a16.27,16.27,0,0,0-4.51,4.32,13.54,13.54,0,0,0-2.33,6.12,11,11,0,0,0,.33,5.41,8.36,8.36,0,0,0,2.53,3.61,13.43,13.43,0,0,0,4.1,2.28,52.47,52.47,0,0,0,5.05,1.52l3.19.71a18.15,18.15,0,0,1,3.43,1.14,6.94,6.94,0,0,1,2.57,1.95,3.85,3.85,0,0,1,.72,3.13,5.58,5.58,0,0,1-3.53,4.32,15.38,15.38,0,0,1-6.39,1.38,10.68,10.68,0,0,1-6.11-1.61,21.14,21.14,0,0,1-4.19-3.7l-7.12,5.32a14.85,14.85,0,0,0,6.69,6.27,23.92,23.92,0,0,0,9.54,1.71A30.42,30.42,0,0,0,109,383a21,21,0,0,0,6.22-2.47,16,16,0,0,0,4.79-4.41,14.68,14.68,0,0,0,2.52-6.5,13,13,0,0,0-.29-5.32,8.52,8.52,0,0,0-2.23-3.7,12.2,12.2,0,0,0-3.84-2.47,35,35,0,0,0-4.94-1.61l-3.32-.66a16,16,0,0,1-3.56-1.14,8.09,8.09,0,0,1-2.75-2,3.82,3.82,0,0,1-.81-3.23A4.7,4.7,0,0,1,103.51,345.79Z"/><path class="f8eb81b0-6a0a-4fea-94b0-505d454959e6" d="M151.39,338.76a16.21,16.21,0,0,0-6.26,5.84h-.19l.95-6.93h-8.54l-6.27,45h8.54l3.13-22.59q1-7.4,4.84-10.92t10.06-3.51a10.93,10.93,0,0,1,2,.19q1,.19,2,.47l1.71-9.21a11.1,11.1,0,0,0-3.7-.57A17.23,17.23,0,0,0,151.39,338.76Z"/><path class="f8eb81b0-6a0a-4fea-94b0-505d454959e6" d="M203.79,337.67l-3.23,23.16q-1.14,7.88-5.22,11.44a13.88,13.88,0,0,1-9.4,3.56,11.61,11.61,0,0,1-3.8-.62,7.07,7.07,0,0,1-3-2,8,8,0,0,1-1.76-3.61,14.31,14.31,0,0,1,0-5.36l3.7-26.58h-8.54l-4.08,29a20.5,20.5,0,0,0,.28,7.74,12.22,12.22,0,0,0,2.8,5.36,11.76,11.76,0,0,0,4.75,3.08,18.14,18.14,0,0,0,6.12,1,20.2,20.2,0,0,0,9.49-2.23,15.91,15.91,0,0,0,6.45-5.84h.19l-.95,6.93h8.54l6.27-45Z"/><path class="f8eb81b0-6a0a-4fea-94b0-505d454959e6" d="M309.14,325h-8.54l-1.8,12.62h-9.87l-1,7.4h9.87l-3.32,23.45q-.38,2.75-.52,5.46a10.27,10.27,0,0,0,.86,4.89,7.77,7.77,0,0,0,3.53,3.56q2.53,1.37,7.49,1.38.67,0,1.67-.1t2.1-.24a17.91,17.91,0,0,0,2.19-.43,8.34,8.34,0,0,0,2-.76l1.15-7.78a10.14,10.14,0,0,1-3.09,1,18.83,18.83,0,0,1-3.18.28,6,6,0,0,1-3.65-.9,4.21,4.21,0,0,1-1.57-2.37,10.16,10.16,0,0,1-.24-3.32q.14-1.85.43-3.75l2.8-20.41h12.29l1-7.4H307.36Z"/><path class="f8eb81b0-6a0a-4fea-94b0-505d454959e6" d="M358.69,360.83q-1.14,7.88-5.22,11.44a13.88,13.88,0,0,1-9.4,3.56,11.61,11.61,0,0,1-3.8-.62,7.07,7.07,0,0,1-3-2,8,8,0,0,1-1.76-3.61,14.31,14.31,0,0,1,0-5.36l3.7-26.58h-8.54l-4.08,29a20.5,20.5,0,0,0,.28,7.74,12.22,12.22,0,0,0,2.8,5.36,11.76,11.76,0,0,0,4.75,3.08,18.14,18.14,0,0,0,6.12,1,20.2,20.2,0,0,0,9.49-2.23,15.91,15.91,0,0,0,6.45-5.84h.19l-.95,6.93h8.54l6.27-45h-8.54Z"/><path class="f8eb81b0-6a0a-4fea-94b0-505d454959e6" d="M415.36,341.09a13.84,13.84,0,0,0-5.41-3.32,24.76,24.76,0,0,0-8.35-1.23,30.69,30.69,0,0,0-9.73,1.66,28.55,28.55,0,0,0-9.07,5l4.37,5.32q1.33-.85,2.71-1.8a19.1,19.1,0,0,1,2.94-1.66,19.91,19.91,0,0,1,3.51-1.19,18.7,18.7,0,0,1,4.41-.47,11.91,11.91,0,0,1,4.65.81,7.85,7.85,0,0,1,3,2.18,7.73,7.73,0,0,1,1.57,3.09,8.31,8.31,0,0,1,.14,3.42l-.28,1.9h-6.26a56.44,56.44,0,0,0-9.73.81,29.42,29.42,0,0,0-8.26,2.66,18.15,18.15,0,0,0-6,4.79,14.33,14.33,0,0,0-2.94,7.31,12.08,12.08,0,0,0,.43,5.84,10.2,10.2,0,0,0,2.8,4.22,12.31,12.31,0,0,0,4.6,2.56,19.28,19.28,0,0,0,5.84.85,22.9,22.9,0,0,0,9.25-1.8,20.47,20.47,0,0,0,7.64-6.17h.19q-.29,1.71-.43,3.42t-.24,3.42h7.59q0-1.8.19-3.8t.57-4.37l3.23-23a15.34,15.34,0,0,0-.28-5.65A10.47,10.47,0,0,0,415.36,341.09Zm-6.84,22.78a17,17,0,0,1-1.29,4.6,14.23,14.23,0,0,1-2.81,4.22,14,14,0,0,1-4.43,3.08,14.78,14.78,0,0,1-6.15,1.19q-4.48,0-6.86-1.71t-1.81-5.6a7,7,0,0,1,2.29-4.37,13.44,13.44,0,0,1,4.67-2.66,27,27,0,0,1,6-1.28,61.75,61.75,0,0,1,6.29-.33H409Z"/><polygon class="f8eb81b0-6a0a-4fea-94b0-505d454959e6" points="437.09 310.9 427.03 382.67 435.57 382.67 445.64 310.9 437.09 310.9"/></svg>