<svg width="722" height="198" viewBox="0 0 722 198" fill="none" xmlns="http://www.w3.org/2000/svg">
<path d="M166.71 160V193.32H179.71V197.32H161.85V160H166.71Z" fill="#002375"/>
<path d="M199.18 167.46C204.63 167.46 208.38 170.24 210.09 173.29V167.94H215V197.25H210.08V191.79C208.951 193.679 207.333 195.228 205.397 196.273C203.461 197.319 201.279 197.822 199.08 197.73C191.27 197.73 185.22 191.58 185.22 182.49C185.22 173.4 191.32 167.46 199.18 167.46ZM200.18 171.68C194.83 171.68 190.29 175.59 190.29 182.49C190.29 189.39 194.83 193.49 200.18 193.49C205.53 193.49 210.18 189.49 210.18 182.58C210.18 175.67 205.49 171.68 200.14 171.68H200.18Z" fill="#002375"/>
<path d="M254.27 167.46C261.55 167.46 266.27 171.2 267.8 177.35H262.56C261.56 173.82 258.56 171.58 254.27 171.58C248.92 171.58 244.97 175.37 244.97 182.58C244.97 189.79 248.92 193.65 254.27 193.65C258.6 193.65 261.49 191.57 262.56 187.88H267.8C266.31 193.71 261.55 197.77 254.27 197.77C245.93 197.77 239.99 191.89 239.99 182.58C239.99 173.27 245.93 167.46 254.27 167.46Z" fill="#002375"/>
<path d="M302.41 197.25H297.54V192.92C296.517 194.447 295.119 195.686 293.48 196.519C291.842 197.353 290.017 197.752 288.18 197.68C281.45 197.68 276.18 193.5 276.18 185.11V167.94H281V184.47C281 190.4 284.27 193.47 289.19 193.47C294.11 193.47 297.58 190.37 297.58 184.06V167.96H302.45L302.41 197.25Z" fill="#002375"/>
<path d="M312.79 157.67H317.66V197.25H312.79V157.67Z" fill="#002375"/>
<path d="M329.16 172H325.36V168H329.16V160.62H334V168H341.65V172H334V189.28C334 192.16 335.07 193.18 338.07 193.18H341.65V197.3H337.27C332.08 197.3 329.14 195.16 329.14 189.3L329.16 172Z" fill="#002375"/>
<path d="M375.69 197.25H370.82V192.92C369.796 194.447 368.399 195.686 366.76 196.519C365.121 197.353 363.297 197.752 361.46 197.68C354.72 197.68 349.46 193.5 349.46 185.11V167.94H354.27V184.47C354.27 190.4 357.54 193.47 362.46 193.47C367.38 193.47 370.85 190.37 370.85 184.06V167.96H375.72L375.69 197.25Z" fill="#002375"/>
<path d="M390.94 197.25H386.07V167.94H390.94V172.7C392.59 169.44 395.75 167.41 400.4 167.41V172.41H399.12C394.47 172.41 390.94 174.5 390.94 181.29V197.25Z" fill="#002375"/>
<path d="M420.83 197.73C412.49 197.73 406.34 191.85 406.34 182.54C406.34 173.23 412.28 167.46 420.83 167.46C429.38 167.46 434.9 173.46 434.9 181.46C434.903 182.442 434.85 183.424 434.74 184.4H411.31C411.69 190.34 415.86 193.6 420.83 193.6C425.22 193.6 428 191.36 429.07 188.2H434.31C432.81 193.56 428.11 197.73 420.83 197.73ZM411.37 180.46H429.87C429.93 174.73 425.65 171.58 420.62 171.58C415.86 171.58 411.9 174.73 411.37 180.46Z" fill="#002375"/>
<path d="M472 167.46C477.45 167.46 481.2 170.24 482.91 173.29V167.94H487.83V197.25H482.91V191.79C481.78 193.678 480.162 195.226 478.226 196.272C476.29 197.317 474.108 197.821 471.91 197.73C464.1 197.73 458.05 191.58 458.05 182.49C458.05 173.4 464.11 167.46 472 167.46ZM473 171.68C467.65 171.68 463.11 175.59 463.11 182.49C463.11 189.39 467.65 193.49 473 193.49C478.35 193.49 482.95 189.49 482.95 182.58C482.95 175.67 478.28 171.68 472.93 171.68H473ZM467.76 155.43L479.15 162.11V165.75L467.76 159.65V155.43Z" fill="#002375"/>
<path d="M514.6 157.67H519.47V197.25H514.6V157.67Z" fill="#002375"/>
<path d="M527.49 172.11L530.65 160H536.05L530.91 172.14L527.49 172.11Z" fill="#002375"/>
<path d="M543 159.86C543.012 159.22 543.212 158.598 543.575 158.071C543.938 157.544 544.448 157.135 545.042 156.896C545.636 156.657 546.287 156.598 546.914 156.727C547.541 156.855 548.116 157.165 548.568 157.619C549.02 158.072 549.328 158.648 549.455 159.276C549.582 159.903 549.521 160.554 549.28 161.147C549.039 161.74 548.629 162.249 548.101 162.61C547.573 162.972 546.95 163.17 546.31 163.18C545.873 163.187 545.438 163.105 545.033 162.941C544.628 162.776 544.26 162.532 543.951 162.222C543.642 161.912 543.399 161.544 543.235 161.138C543.072 160.732 542.992 160.297 543 159.86ZM543.8 167.94H548.67V197.25H543.8V167.94Z" fill="#002375"/>
<path d="M580.49 180.67C580.49 174.67 577.23 171.67 572.31 171.67C567.39 171.67 563.91 174.77 563.91 181.08V197.29H559.05V167.94H563.91V172.11C564.951 170.59 566.362 169.361 568.011 168.538C569.659 167.716 571.49 167.328 573.33 167.41C580.12 167.41 585.33 171.58 585.33 179.97V197.25H580.51L580.49 180.67Z" fill="#002375"/>
<path d="M596.33 172H592.53V168H596.33V165.91C596.33 159.39 599.54 156.45 607.02 156.45V160.51C602.64 160.51 601.2 162.12 601.2 165.91V168H607.35V172H601.2V197.3H596.33V172Z" fill="#002375"/>
<path d="M614.35 159.86C614.36 159.218 614.559 158.592 614.922 158.062C615.285 157.532 615.796 157.121 616.392 156.88C616.987 156.638 617.64 156.578 618.27 156.706C618.9 156.833 619.478 157.144 619.932 157.598C620.386 158.052 620.697 158.63 620.824 159.26C620.952 159.89 620.892 160.543 620.65 161.138C620.409 161.734 619.998 162.245 619.468 162.608C618.938 162.971 618.312 163.17 617.67 163.18C617.232 163.187 616.797 163.105 616.392 162.941C615.986 162.777 615.617 162.532 615.307 162.223C614.998 161.913 614.753 161.544 614.589 161.138C614.425 160.733 614.343 160.298 614.35 159.86ZM615.16 167.94H620V197.25H615.14L615.16 167.94Z" fill="#002375"/>
<path d="M651.9 180.67C651.9 174.67 648.64 171.67 643.72 171.67C638.8 171.67 635.32 174.77 635.32 181.08V197.29H630.45V167.94H635.32V172.11C636.36 170.591 637.77 169.363 639.416 168.541C641.063 167.718 642.892 167.329 644.73 167.41C651.53 167.41 656.73 171.58 656.73 179.97V197.25H651.9V180.67Z" fill="#002375"/>
<path d="M666 159.86C666.01 159.218 666.209 158.592 666.572 158.062C666.935 157.532 667.446 157.121 668.042 156.88C668.637 156.638 669.29 156.578 669.92 156.706C670.55 156.833 671.128 157.144 671.582 157.598C672.036 158.052 672.347 158.63 672.474 159.26C672.602 159.89 672.542 160.543 672.3 161.138C672.059 161.734 671.648 162.245 671.118 162.608C670.588 162.971 669.963 163.17 669.32 163.18C668.882 163.187 668.448 163.105 668.042 162.941C667.636 162.777 667.267 162.532 666.958 162.223C666.648 161.913 666.404 161.544 666.239 161.138C666.075 160.733 665.993 160.298 666 159.86ZM666.81 167.94H671.67V197.25H666.81V167.94Z" fill="#002375"/>
<path d="M702.45 197.57C701.789 197.592 701.137 197.416 700.577 197.065C700.016 196.714 699.574 196.203 699.305 195.599C699.037 194.994 698.956 194.323 699.071 193.672C699.186 193.021 699.494 192.419 699.953 191.944C700.413 191.469 701.004 191.141 701.651 191.004C702.298 190.867 702.971 190.926 703.584 191.174C704.197 191.421 704.722 191.846 705.092 192.395C705.462 192.943 705.66 193.589 705.66 194.25C705.673 195.116 705.343 195.951 704.741 196.574C704.14 197.196 703.316 197.554 702.45 197.57ZM699.61 160H704.85L704.27 186.74H700.2L699.61 160Z" fill="#002375"/>
<path d="M190.29 143.16C161.44 143.16 139.57 122.58 139.57 90.7798C139.57 58.9798 162.36 38.5898 191.21 38.5898C220.06 38.5898 242.86 58.9998 242.86 90.7798C242.86 122.56 219.33 143.16 190.29 143.16ZM190.29 124.97C205.91 124.97 221.35 113.76 221.35 90.7798C221.35 67.7998 206.47 56.7798 190.85 56.7798C175.04 56.7798 160.85 67.7798 160.85 90.7798C160.85 113.78 174.49 125 190.29 125V124.97Z" fill="#002375"/>
<path d="M263.61 5.51001H284.56V84.51L321.32 40.21H350.32L303.67 91L350.35 141.54H322.05L284.56 98V141.55H263.61V5.51001Z" fill="#002375"/>
<path d="M406.21 38.5898C423.31 38.5898 435.07 46.6798 441.31 54.9498V40.2398H462.45V141.51H441.31V126.44C434.88 135.08 422.75 143.16 405.85 143.16C379.57 143.16 358.43 121.67 358.43 90.4198C358.43 59.1698 379.57 38.5898 406.21 38.5898ZM410.62 56.7798C395 56.7798 379.93 68.5498 379.93 90.4198C379.93 112.29 395 125 410.62 125C426.43 125 441.31 112.69 441.31 90.8098C441.31 69.0998 426.43 56.7798 410.62 56.7798Z" fill="#002375"/>
<path d="M554.52 57.34L508.57 124.42H554.52V141.51H484.31V124.42L530.44 57.34H484.31V40.24H554.52V57.34Z" fill="#002375"/>
<path d="M573.8 13.4099C573.751 11.6293 574.06 9.85704 574.707 8.19772C575.355 6.53841 576.329 5.02574 577.571 3.74908C578.813 2.47241 580.299 1.45766 581.94 0.764749C583.581 0.0718423 585.344 -0.285156 587.125 -0.285156C588.906 -0.285156 590.669 0.0718423 592.31 0.764749C593.951 1.45766 595.437 2.47241 596.679 3.74908C597.921 5.02574 598.895 6.53841 599.542 8.19772C600.19 9.85704 600.499 11.6293 600.45 13.4099C600.499 15.1905 600.19 16.9628 599.542 18.6221C598.895 20.2814 597.921 21.7941 596.679 23.0707C595.437 24.3474 593.951 25.3622 592.31 26.0551C590.669 26.748 588.906 27.105 587.125 27.105C585.344 27.105 583.581 26.748 581.94 26.0551C580.299 25.3622 578.813 24.3474 577.571 23.0707C576.329 21.7941 575.355 20.2814 574.707 18.6221C574.06 16.9628 573.751 15.1905 573.8 13.4099ZM576.56 40.2399H597.56V141.51H576.56V40.2399Z" fill="#002375"/>
<path d="M669 143.16C640.14 143.16 618.27 122.58 618.27 90.7798C618.27 58.9798 641.06 38.5898 669.92 38.5898C698.78 38.5898 721.56 58.9998 721.56 90.7798C721.56 122.56 698 143.16 669 143.16ZM669 125C684.62 125 700 113.79 700 90.8098C700 67.8298 685.12 56.8098 669.5 56.8098C653.69 56.8098 639.5 67.8098 639.5 90.8098C639.5 113.81 653.19 125 669 125Z" fill="#002375"/>
<path d="M124.19 130.31C124.44 130.03 124.69 129.74 124.93 129.45C126.039 128.103 127.017 126.653 127.85 125.12C128.04 124.76 128.23 124.4 128.41 124.03L128.52 123.79C128.66 123.49 128.8 123.2 128.93 122.9L129.14 122.38L129.39 121.74C129.49 121.48 129.58 121.22 129.67 120.96C129.76 120.7 129.77 120.68 129.81 120.53C129.92 120.21 130.01 119.89 130.1 119.53C130.1 119.43 130.16 119.34 130.18 119.24C130.28 118.9 130.36 118.55 130.44 118.24C130.44 118.15 130.49 118.06 130.51 117.96C130.58 117.65 130.64 117.33 130.7 116.96C130.7 116.86 130.7 116.76 130.7 116.67V116.5C130.7 116.28 130.77 116.04 130.8 115.81C130.83 115.58 130.87 115.27 130.9 115V114.71C131.544 108.215 129.835 101.705 126.084 96.3643C122.332 91.0236 116.788 87.2073 110.46 85.6099C113.581 81.9536 115.68 77.5369 116.544 72.8077C117.407 68.0786 117.005 63.2052 115.377 58.6817C113.749 54.1583 110.955 50.1457 107.276 47.051C103.597 43.9562 99.1653 41.8893 94.4301 41.0599C92.8713 40.7891 91.2922 40.6519 89.7101 40.6499C84.1007 40.6504 78.6307 42.398 74.0601 45.6499L12.2601 89.3299C11.2603 89.9972 10.305 90.7287 9.40008 91.5199C9.11008 91.7699 8.84008 92.0199 8.56008 92.2799L8.28008 92.5499L7.74008 93.0899L7.26008 93.5899L6.92008 93.9999C6.71341 94.2332 6.51341 94.4632 6.32008 94.6899L6.13008 94.9299C5.91008 95.1999 5.69008 95.4699 5.48008 95.7499L5.34008 95.9399C5.13008 96.2299 4.92008 96.5099 4.72008 96.8099C4.72008 96.8899 4.61008 96.9699 4.56008 97.0599C4.38008 97.3199 4.21008 97.5899 4.04008 97.8699L3.78008 98.2899L3.41008 98.9399C3.28008 99.1699 3.16008 99.4099 3.04008 99.6499L2.84008 100.02L2.33008 101.11C1.06911 103.959 0.307993 107.003 0.0800805 110.11C0.0846636 110.197 0.0846636 110.283 0.0800805 110.37C0.0800805 110.62 0.0800805 110.88 0.0800805 111.14C0.0800805 111.4 0.0800805 111.73 0.0800805 112.02V112.23C0.0775586 118.291 2.10184 124.179 5.83096 128.957C9.56008 133.736 14.7799 137.13 20.6601 138.6C17.5348 142.265 15.4364 146.692 14.5784 151.432C13.7204 156.171 14.1335 161.054 15.7756 165.582C17.4177 170.11 20.2302 174.122 23.9268 177.209C27.6234 180.297 32.0721 182.35 36.8201 183.16C38.3757 183.428 39.9515 183.562 41.5301 183.56C47.1436 183.566 52.6188 181.818 57.1901 178.56L119.01 134.87C119.996 134.21 120.941 133.492 121.84 132.72L121.91 132.65C122.17 132.42 122.43 132.19 122.68 131.95L123.04 131.61L123.49 131.16C123.69 130.96 123.88 130.75 124.07 130.55L124.19 130.31ZM120.59 114.05C120.59 114.46 120.48 114.87 120.4 115.27C120.4 115.48 120.31 115.68 120.26 115.89C120.21 116.1 120.11 116.54 120.01 116.89C119.91 117.24 119.87 117.32 119.8 117.53C119.73 117.74 119.59 118.15 119.46 118.46C119.33 118.77 119.3 118.84 119.21 119.03C119.12 119.22 118.92 119.65 118.76 119.96L118.48 120.47C118.3 120.77 118.13 121.06 117.94 121.35L117.58 121.87C117.39 122.12 117.2 122.38 117 122.63C116.8 122.88 116.66 123.04 116.48 123.25C116.3 123.46 116.15 123.62 115.98 123.79C115.81 123.96 115.43 124.33 115.14 124.59C115.052 124.682 114.958 124.768 114.86 124.85C114.46 125.19 114.05 125.52 113.62 125.85L113.14 126.19C110.398 128.01 107.181 128.98 103.89 128.98H50.8901L94.2001 98.3099C96.7419 96.5196 99.7358 95.4801 102.84 95.3099H103.84C108.299 95.3152 112.575 97.089 115.728 100.242C118.881 103.395 120.655 107.671 120.66 112.13C120.66 112.68 120.66 113.22 120.58 113.75C120.62 113.82 120.6 113.94 120.59 114.05ZM10.5301 110.75C10.5301 110.33 10.6201 109.92 10.6901 109.5C10.6852 109.403 10.6852 109.307 10.6901 109.21C10.7801 108.71 10.8901 108.21 11.0201 107.73V107.63C11.1501 107.14 11.3101 106.63 11.4901 106.18L11.5501 106.03C11.7101 105.6 11.9001 105.18 12.1001 104.77L12.2401 104.47C12.4201 104.11 12.6201 103.77 12.8301 103.47C12.9101 103.33 12.9901 103.18 13.0801 103.04C13.2801 102.74 13.4901 102.45 13.7001 102.17L14.0401 101.7C14.2701 101.42 14.5001 101.15 14.7501 100.88C15.0001 100.61 14.9801 100.62 15.1001 100.5C15.3901 100.2 15.6901 99.9099 16.0101 99.6199C16.0901 99.5599 16.1601 99.4799 16.2401 99.4099C16.6401 99.0699 17.0501 98.7499 17.4901 98.4099L17.9701 98.0699C20.7104 96.2472 23.9289 95.2764 27.2201 95.2799H80.2201L37.0001 125.88C34.3697 127.724 31.2608 128.766 28.0501 128.88H27.3101C23.1507 128.873 19.1408 127.328 16.0522 124.542C12.9636 121.756 11.0145 117.927 10.5801 113.79C10.576 113.767 10.576 113.743 10.5801 113.72C10.5316 113.228 10.5082 112.734 10.5101 112.24C10.5101 112 10.5101 111.76 10.5101 111.51C10.5101 111.26 10.5101 111 10.5301 110.75ZM80.1001 54.1899C82.9163 52.1896 86.2858 51.1166 89.7401 51.1199C90.7191 51.1223 91.6961 51.2093 92.6601 51.3799C95.9338 51.9459 98.9665 53.4688 101.376 55.7563C103.785 58.0438 105.463 60.9936 106.198 64.2336C106.933 67.4735 106.691 70.8585 105.505 73.9616C104.318 77.0647 102.239 79.7469 99.5301 81.6699L95.1001 84.7999H36.7901L80.1001 54.1899ZM51.0701 170C47.426 172.575 42.9082 173.597 38.5104 172.842C34.1127 172.086 30.1953 169.614 27.6201 165.97C25.0448 162.326 24.0227 157.808 24.7784 153.41C25.5342 149.013 28.006 145.095 31.6501 142.52L36.0801 139.39H94.3901L51.0701 170Z" fill="url(#paint0_linear_289_924)"/>
<defs>
<linearGradient id="paint0_linear_289_924" x1="8.0483e-05" y1="112.09" x2="131.19" y2="112.09" gradientUnits="userSpaceOnUse">
<stop stop-color="#009E76"/>
<stop offset="0.21" stop-color="#008276"/>
<stop offset="0.75" stop-color="#003E75"/>
<stop offset="1" stop-color="#002375"/>
</linearGradient>
</defs>
</svg>
