<svg id="Calque_1" data-name="Calque 1" xmlns="http://www.w3.org/2000/svg" xmlns:xlink="http://www.w3.org/1999/xlink"
  viewBox="0 0 254.6 75.26">
  <defs>
    <style>
      .cls-1,
      .cls-2 {
        fill: #231f20;
      }

      .cls-2 {
        stroke: #231f20;
        stroke-miterlimit: 10;
      }

      .cls-3 {
        fill: url(#Dégradé_sans_nom_12);
      }

      .cls-4 {
        fill: #9864aa;
      }
    </style>
    <linearGradient id="Dégradé_sans_nom_12" x1="-4276.65" y1="2378.1" x2="-4147.91" y2="2378.1"
      gradientTransform="translate(-2295.55 -4066.08) rotate(-90)" gradientUnits="userSpaceOnUse">
      <stop offset="0" stop-color="#fff" />
      <stop offset="0.99" stop-color="#9864aa" />
    </linearGradient>
  </defs>
  <path class="cls-1"
    d="M19.22,93.19c.17,0,.25.09.25.28v25.18H37.39c.19,0,.29.09.29.26s-.1.27-.29.27H19.22c-.19,0-.28-.1-.28-.29V93.47A.24.24,0,0,1,19.22,93.19Z"
    transform="translate(-18.17 -92.47)" />
  <path class="cls-1"
    d="M57.35,93.19a.3.3,0,0,1,.29.16l10.88,25.46a.2.2,0,0,1,0,.08A.28.28,0,0,1,68,119L57.35,94.17,46.72,119a.28.28,0,0,1-.53-.13.2.2,0,0,1,0-.08L57.11,93.35A.25.25,0,0,1,57.35,93.19Z"
    transform="translate(-18.17 -92.47)" />
  <path class="cls-2"
    d="M90.07,93.18a12.55,12.55,0,0,1,9.28,3.71.25.25,0,0,1,.09.2c0,.19-.1.28-.29.28a.24.24,0,0,1-.2-.08,12,12,0,0,0-8.88-3.58,12.47,12.47,0,1,0,0,24.93A12,12,0,0,0,99,115.05a.28.28,0,0,1,.2-.08.26.26,0,0,1,.29.29.25.25,0,0,1-.09.2,13.12,13.12,0,1,1-9.28-22.28Z"
    transform="translate(-18.17 -92.47)" />
  <path class="cls-2"
    d="M119.11,93.18a.3.3,0,0,1,.29.16l10.87,25.46a.12.12,0,0,1,0,.08c0,.19-.09.29-.28.29a.28.28,0,0,1-.25-.16L119.11,94.16,108.48,119a.28.28,0,0,1-.25.16c-.19,0-.28-.1-.28-.29a.12.12,0,0,1,0-.08l10.88-25.46A.25.25,0,0,1,119.11,93.18Z"
    transform="translate(-18.17 -92.47)" />
  <path class="cls-2"
    d="M170.48,93.18h21.79a.27.27,0,0,1,.27.14.32.32,0,0,1,0,.27q-.06.12-.27.12H181.64v25.17q0,.21-.12.27a.32.32,0,0,1-.27,0,.27.27,0,0,1-.14-.27V93.71H170.48a.29.29,0,0,1-.25-.12.26.26,0,0,1,0-.27A.29.29,0,0,1,170.48,93.18Z"
    transform="translate(-18.17 -92.47)" />
  <path class="cls-2"
    d="M202.82,93.18H221c.19,0,.29.09.29.26s-.1.27-.29.27H202.82c-.19,0-.28-.09-.28-.27S202.63,93.18,202.82,93.18Zm0,12.71h16.34a.24.24,0,0,1,.28.28c0,.19-.09.29-.28.29H202.82c-.19,0-.28-.1-.28-.29A.24.24,0,0,1,202.82,105.89Zm0,12.75H221c.19,0,.29.09.29.26s-.1.27-.29.27H202.82c-.19,0-.28-.09-.28-.27S202.63,118.64,202.82,118.64Z"
    transform="translate(-18.17 -92.47)" />
  <path class="cls-2"
    d="M160.89,118.51,151.81,107a11.57,11.57,0,0,0,4-1.22,6.58,6.58,0,0,0,0-11.45,12.33,12.33,0,0,0-6-1.34h-9.08c-.19,0-.29.09-.29.28a.42.42,0,0,0,0,.16l.09.12h.71l0,0h8.55a11.86,11.86,0,0,1,5.79,1.3,6,6,0,0,1,0,10.47,9.76,9.76,0,0,1-3.06,1.06h0c-.33.06-.66.12-1,.16h0c-.18,0-.36,0-.65,0h0a9.13,9.13,0,0,1-1,.08h-9.08c-.19,0-.29.08-.29.25v11.81c0,.19.09.29.27.29s.26-.1.26-.29V107.14h8.84a11.75,11.75,0,0,0,1.43-.08l9.24,11.77a.28.28,0,0,0,.25.13c.16,0,.24-.1.24-.29A.32.32,0,0,0,160.89,118.51Z"
    transform="translate(-18.17 -92.47)" />
  <rect class="cls-3" x="75.64" y="81.83" width="13.81" height="128.74"
    transform="translate(-81.83 136.28) rotate(-90)" />
  <path class="cls-4"
    d="M157.44,164.48a6.89,6.89,0,0,1,.83-3.65,17.1,17.1,0,0,1,3.25-4.36,30.25,30.25,0,0,1,2.41-2.26,29.68,29.68,0,0,1,5-3.47,18,18,0,0,1,2.76-1.14,2.58,2.58,0,0,1,1.43-.11.36.36,0,0,1,.32.26c0,.16-.08.26-.21.33a4.6,4.6,0,0,1-.63.31,23.33,23.33,0,0,0-5.59,3.32,33.32,33.32,0,0,0-4.27,3.95,16.27,16.27,0,0,0-2.63,3.79,7.51,7.51,0,0,0-.68,2.2,3.78,3.78,0,0,0,.23,1.88,2.15,2.15,0,0,0,2.23,1.28,9.51,9.51,0,0,0,2.3-.74,17.2,17.2,0,0,0,3.29-2.07,24,24,0,0,0,4.82-4.88,12.21,12.21,0,0,0,2.12-4.54,7.74,7.74,0,0,0-.17-4.13,6.28,6.28,0,0,0-4.65-4.12,18.18,18.18,0,0,0-5.14-.42c-1.86.06-3.71.27-5.58.21a12.68,12.68,0,0,1-2.6-.27,3.31,3.31,0,0,1-.42-.12,2.28,2.28,0,0,1-1.58-3.23,9.86,9.86,0,0,1,1.68-2.73,37.59,37.59,0,0,1,3.32-3.71c1.28-1.23,2.57-2.45,4-3.57a43.6,43.6,0,0,1,5.16-3.69,16,16,0,0,1,3.82-1.72,6.14,6.14,0,0,1,2.22-.22,4,4,0,0,1,.5.09c.93.23,1.26.74,1,1.63a4.73,4.73,0,0,1-.57,1.35.63.63,0,0,1-.58.34c-.45,0-.85-.15-.55-.74a3.75,3.75,0,0,0,.3-.93c.15-.79-.16-1.07-.95-.88a12.27,12.27,0,0,0-3.27,1.38,35.16,35.16,0,0,0-4.93,3.54c-1.19,1-2.38,2-3.47,3.08a35.42,35.42,0,0,0-5.26,6.27,4,4,0,0,0-.61,1.4,1.35,1.35,0,0,0,1,1.62,3.68,3.68,0,0,0,.93.2,21.17,21.17,0,0,0,2.39,0c1.88-.11,3.76-.26,5.65-.2a18.06,18.06,0,0,1,5.25.79,7,7,0,0,1,4.92,6.35,11,11,0,0,1-2.05,7,24.2,24.2,0,0,1-6.19,6.25,14.75,14.75,0,0,1-3.43,1.85,7.44,7.44,0,0,1-4.62.27A3.33,3.33,0,0,1,157.44,164.48Z"
    transform="translate(-18.17 -92.47)" />
  <path class="cls-4"
    d="M180.24,154.59a4.25,4.25,0,0,1-.69-1.77,13.63,13.63,0,0,1,.34-4.2,14.49,14.49,0,0,1,1.08-3,4.61,4.61,0,0,1,1.08-1.61,2.88,2.88,0,0,1,2.38-.69,1.22,1.22,0,0,1,1.19,1.42,2.89,2.89,0,0,1-.34,1.27,8.89,8.89,0,0,1-2.23,3.08,3.5,3.5,0,0,1-1.62.84.3.3,0,0,0-.27.31,7.82,7.82,0,0,0,.23,3.23,2.85,2.85,0,0,0,.62,1.16c.38.38.61.34,1,.07a4.13,4.13,0,0,0,1-1,16,16,0,0,0,1.65-2.54c1-1.85,1.27-2.54,2-4a.71.71,0,0,1,.88-.35c.2,0,.36.2.28.39a36.8,36.8,0,0,1-1.62,3.73,19.68,19.68,0,0,1-2,3.19,3.7,3.7,0,0,1-2,1.39,2.66,2.66,0,0,1-1.08.11A2.27,2.27,0,0,1,180.24,154.59Zm1.88-6a9.53,9.53,0,0,0,1.23-1.61,7.64,7.64,0,0,0,.81-1.85,1.18,1.18,0,0,0,.08-.65.93.93,0,0,0-.12-.42.56.56,0,0,0-.27-.16.58.58,0,0,0-.23.08,2.39,2.39,0,0,0-.34.31,1.43,1.43,0,0,0-.31.38,2.67,2.67,0,0,0-.46.81,9.25,9.25,0,0,0-.58,1.46c-.11.39-.23.77-.35,1.12l-.11.57c0,.12-.12.43-.08.47A1.86,1.86,0,0,0,182.12,148.58Z"
    transform="translate(-18.17 -92.47)" />
  <path class="cls-4"
    d="M189.2,155a2.1,2.1,0,0,1-2.28-1.76,6.06,6.06,0,0,1-.08-2,14.37,14.37,0,0,1,1.88-5.93,6.3,6.3,0,0,1,1.33-1.63,1.77,1.77,0,0,1,1.56-.51,1.2,1.2,0,0,1,.9,1.68c-.13.22-.35.22-.57.21a.42.42,0,0,1-.44-.29,1.25,1.25,0,0,0-.27-.67,4.76,4.76,0,0,0-1,1.32,13.82,13.82,0,0,0-1.54,4.85,11.92,11.92,0,0,0-.12,2.23,2.86,2.86,0,0,0,.36,1.34c.15.26.2.28.47.15a4.32,4.32,0,0,0,1-.66,17.88,17.88,0,0,0,4.17-5.7,1.25,1.25,0,0,1,1.24-.67c.38,0,.44.44.28.81a19.3,19.3,0,0,1-4.43,6.3,3.76,3.76,0,0,1-2.46.92Z"
    transform="translate(-18.17 -92.47)" />
  <path class="cls-4"
    d="M195.59,155.43a1.62,1.62,0,0,1-.62-.65l-.23-.58a5.92,5.92,0,0,1-.35-2.19,17.62,17.62,0,0,1,.5-4.58,6.18,6.18,0,0,1,.58-1.5,3.37,3.37,0,0,0,.23-.65,3.91,3.91,0,0,1,.58-1.2,2.52,2.52,0,0,1,1.65-.84,1.22,1.22,0,0,1,1.08.31,2.55,2.55,0,0,1,.69,1.34,15,15,0,0,1-.42,7,12.15,12.15,0,0,1-.58,1.7,5.26,5.26,0,0,1-.46.92,2.37,2.37,0,0,1-1.69,1.08A1,1,0,0,1,195.59,155.43Zm1.8-2a18.67,18.67,0,0,0,1-7,5.15,5.15,0,0,0-.35-1.69,1.22,1.22,0,0,0-.54-.62,3.21,3.21,0,0,0-.54,1.08c0,.11,0,.19,0,.23a1.59,1.59,0,0,1,.58,1.23c0,.23-.08.31-.35.42a1.29,1.29,0,0,1-.38.08c-.12,0-.12-.19-.23-.27a5.88,5.88,0,0,0-.24,1.08.42.42,0,0,1-.15.38.47.47,0,0,0-.27.5,23.39,23.39,0,0,0-.08,3.12,5.66,5.66,0,0,0,.5,2,1.51,1.51,0,0,0,.5.58A6,6,0,0,0,197.39,153.43Z"
    transform="translate(-18.17 -92.47)" />
  <path class="cls-4"
    d="M200.89,155.51a6.52,6.52,0,0,1-.26-1.92,23.54,23.54,0,0,1,.92-6.16,25.85,25.85,0,0,1,.81-2.88,11.59,11.59,0,0,1,.5-1.16.83.83,0,0,1,1-.38c.19.07.3.19.19.42l-.27.92c-.38,1.27-1.23,5.43-1.46,6.93.88-1.89,2.58-4.23,3.61-4.23s1.93,3.11,2.24,3.38c.42-.19,1-1.58,1.65-2.88a1,1,0,0,1,.88-.47c.35,0,.27.39.2.58-1.31,3.62-2.43,4-3,3.85-1.27-.27-1.89-3.16-2.08-3.31-1.08.92-2.69,4-3.23,6.66V155s0,.12.07.19c.2.54-.11.93-.69,1h-.34C201.13,156.09,201.05,155.93,200.89,155.51Z"
    transform="translate(-18.17 -92.47)" />
  <path class="cls-4"
    d="M214.45,156.34a15.05,15.05,0,0,1-.8-5.8,16.7,16.7,0,0,1-1.08,1.92,6.23,6.23,0,0,1-1,1.25,1.72,1.72,0,0,1-1.32.39,1.29,1.29,0,0,1-1.08-.59,3,3,0,0,1-.38-1.07,6.29,6.29,0,0,1,.11-2.56,8.69,8.69,0,0,1,2.62-4.58,8.25,8.25,0,0,1,1.3-.93,4,4,0,0,1,1.49-.49,48.79,48.79,0,0,1,1.47-6.22l.09-.35c0-.05.44-1.38.55-1.7a38.42,38.42,0,0,1,2-5,11.24,11.24,0,0,1,1.12-1.88,3,3,0,0,1,1.83-1.26c.83-.17,1.37.14,1.47.89a5.11,5.11,0,0,1,0,1.41,21.45,21.45,0,0,1-.6,3.14c0,.16-.54,1.76-.69,2.22A56.06,56.06,0,0,1,218.8,142a36.81,36.81,0,0,1-3,5.26,1.15,1.15,0,0,0-.16.31l-.06.57-.06.82a32.31,32.31,0,0,0-.06,3.55c.06,1.39,0,3.1.89,4.38.29.44.21.55-.29.6S214.76,157,214.45,156.34Zm-3.29-4a13.79,13.79,0,0,0,1.58-2.79c.48-1.11.85-2.26,1.22-3.4.06-.43.12-.9.19-1.39a3.24,3.24,0,0,0-.66.36,6,6,0,0,0-1.55,1.5,8.62,8.62,0,0,0-1.76,4.64,2.88,2.88,0,0,0,.33,1.74A2.68,2.68,0,0,0,211.16,152.33Zm9.41-18.41a26.76,26.76,0,0,0,.8-3.28,7.35,7.35,0,0,0,.11-1.81c0-.19,0-.4-.31-.53-1.71,2.12-2.49,4.57-3.36,7l-.48,1.57c-.45,1.62-.81,3.26-1.1,4.92-.2,1.08-.11,1-.28,2.09l.13,0A78,78,0,0,0,220.57,133.92Z"
    transform="translate(-18.17 -92.47)" />
  <path class="cls-4"
    d="M218.9,154.59a4.25,4.25,0,0,1-.69-1.77,13.63,13.63,0,0,1,.34-4.2,14.49,14.49,0,0,1,1.08-3,4.61,4.61,0,0,1,1.08-1.61,2.88,2.88,0,0,1,2.38-.69,1.22,1.22,0,0,1,1.19,1.42,2.89,2.89,0,0,1-.34,1.27,8.89,8.89,0,0,1-2.23,3.08,3.5,3.5,0,0,1-1.62.84.3.3,0,0,0-.27.31,7.82,7.82,0,0,0,.23,3.23,2.85,2.85,0,0,0,.62,1.16c.38.38.61.34,1,.07a4.13,4.13,0,0,0,1-1,16,16,0,0,0,1.65-2.54c1-1.85,1.27-2.54,2-4a.71.71,0,0,1,.88-.35c.2,0,.36.2.28.39a36.8,36.8,0,0,1-1.62,3.73,19.68,19.68,0,0,1-2,3.19,3.7,3.7,0,0,1-2,1.39,2.66,2.66,0,0,1-1.08.11A2.27,2.27,0,0,1,218.9,154.59Zm1.88-6A9.53,9.53,0,0,0,222,147a7.64,7.64,0,0,0,.81-1.85,1.18,1.18,0,0,0,.08-.65.93.93,0,0,0-.12-.42.56.56,0,0,0-.27-.16.58.58,0,0,0-.23.08,2.39,2.39,0,0,0-.34.31,1.43,1.43,0,0,0-.31.38,2.67,2.67,0,0,0-.46.81,9.25,9.25,0,0,0-.58,1.46c-.11.39-.23.77-.35,1.12l-.11.57c0,.12-.12.43-.08.47A1.86,1.86,0,0,0,220.78,148.58Z"
    transform="translate(-18.17 -92.47)" />
  <path class="cls-4"
    d="M243.76,166.28l-.17-.11-.18-.11a2.53,2.53,0,0,1-.49-.49,8.65,8.65,0,0,1-1.23-2.56,26.19,26.19,0,0,1-1-6.22c0-.45-.06-.9-.07-1.35a.11.11,0,0,1,0-.05c-.14-3-.35-8.2-.5-11.24a64.73,64.73,0,0,0-1-9.3,12.5,12.5,0,0,0-.72-2.45,3.72,3.72,0,0,0-.59-1c-.37-.43-.56-.47-1-.2a5.32,5.32,0,0,0-.61.45,8,8,0,0,0-.71.72q-1.87,2.19-3.55,4.54c-.1.14-.19.28-.37.31s-.4.07-.55-.1,0-.33.05-.48a1.9,1.9,0,0,1,.26-.43q1.4-1.89,2.8-3.76a7.89,7.89,0,0,1,1.36-1.41,3.2,3.2,0,0,1,1.81-.73,2.18,2.18,0,0,1,2,1,5.76,5.76,0,0,1,.66,1.22,13.68,13.68,0,0,1,.68,2.26,54.18,54.18,0,0,1,1,6.69c.1,1.25.22,2.5.3,3.76.13,2.09.24,4.18.37,6.27.06.94.11,8.61,1.59,12.57.1.23.21.45.32.67a4.54,4.54,0,0,0,.84,1.15c.61.28,1.38-.54,2-1.09a12.17,12.17,0,0,0,1.85-2.64,32.26,32.26,0,0,0,2.49-6.17,89.75,89.75,0,0,0,2.76-12.63c.53-3.56,1-9.07,1.28-12.65a30.5,30.5,0,0,0,.06-3.7c0-.16,0-.49-.16-.56a.57.57,0,0,0-.26,0c-.26,0-.55-.09-.43-.4a1.84,1.84,0,0,1,.82-1,1,1,0,0,1,1.53.6,8.72,8.72,0,0,1,.16.89,23.36,23.36,0,0,1,.05,3.45c0,1.3-.1,2.6-.17,3.9-.11,1.78-.29,3.56-.49,5.34a96.36,96.36,0,0,1-1.66,10.25,71.35,71.35,0,0,1-2.4,8.61,28.91,28.91,0,0,1-2.6,5.55,9.18,9.18,0,0,1-1.95,2.31,3.67,3.67,0,0,1-4.14.4Z"
    transform="translate(-18.17 -92.47)" />
  <path class="cls-4"
    d="M265.18,147.35c-.12.27-.2.54-.31.81-.85,1.89-1.73,3.77-2.7,5.58a13,13,0,0,1-1.26,2,1.89,1.89,0,0,1-1.66.69,1,1,0,0,1-.92-.69,4.53,4.53,0,0,1-.27-1.23,20,20,0,0,1,.31-4.31,39.54,39.54,0,0,1,1.38-5.58,7.13,7.13,0,0,1,.31-.84.69.69,0,0,1,.69-.39c.5,0,.62.16.46.62a48.76,48.76,0,0,0-1.5,7.38,13.64,13.64,0,0,0-.19,2.77,4.81,4.81,0,0,0,.12,1.16,8.72,8.72,0,0,0,1-1.43c.92-1.61,1.73-3.27,2.57-5a13.73,13.73,0,0,1,.85-1.61.77.77,0,0,1,.92-.39C265.14,147,265.25,147.12,265.18,147.35Zm-3.54-9.61c0-.2.23-.27.5-.24s.46.12.42.31-.23.27-.5.23S261.6,137.93,261.64,137.74Z"
    transform="translate(-18.17 -92.47)" />
  <path class="cls-4"
    d="M264.1,154.59a4.41,4.41,0,0,1-.7-1.77,14.16,14.16,0,0,1,.35-4.2,14.49,14.49,0,0,1,1.08-3,4.61,4.61,0,0,1,1.08-1.61,2.88,2.88,0,0,1,2.38-.69,1.22,1.22,0,0,1,1.19,1.42,2.89,2.89,0,0,1-.34,1.27,8.89,8.89,0,0,1-2.23,3.08,3.5,3.5,0,0,1-1.62.84.3.3,0,0,0-.27.31,7.82,7.82,0,0,0,.23,3.23,2.85,2.85,0,0,0,.62,1.16c.38.38.61.34,1,.07a4.13,4.13,0,0,0,1-1,16,16,0,0,0,1.65-2.54c1-1.85,1.27-2.54,2-4a.71.71,0,0,1,.88-.35c.2,0,.36.2.28.39a36.8,36.8,0,0,1-1.62,3.73,19.68,19.68,0,0,1-2,3.19,3.7,3.7,0,0,1-2,1.39,2.66,2.66,0,0,1-1.08.11A2.27,2.27,0,0,1,264.1,154.59Zm1.88-6a9.53,9.53,0,0,0,1.23-1.61,7.64,7.64,0,0,0,.81-1.85,1.18,1.18,0,0,0,.08-.65.93.93,0,0,0-.12-.42.56.56,0,0,0-.27-.16.58.58,0,0,0-.23.08,2.39,2.39,0,0,0-.34.31,1.43,1.43,0,0,0-.31.38,2.67,2.67,0,0,0-.46.81,9.25,9.25,0,0,0-.58,1.46c-.12.39-.23.77-.35,1.12l-.11.57c0,.12-.12.43-.08.47A1.86,1.86,0,0,0,266,148.58Z"
    transform="translate(-18.17 -92.47)" />
</svg>