<?xml version="1.0" encoding="UTF-8" standalone="no"?>
<svg xmlns:dc="http://purl.org/dc/elements/1.1/" xmlns:cc="http://creativecommons.org/ns#"
  xmlns:rdf="http://www.w3.org/1999/02/22-rdf-syntax-ns#" xmlns:svg="http://www.w3.org/2000/svg"
  xmlns="http://www.w3.org/2000/svg" viewBox="0 0 962.69202 315.43466" height="315.43466" width="962.69202"
  xml:space="preserve" id="svg2" version="1.1">
  <metadata id="metadata8">
    <rdf:RDF>
      <cc:Work rdf:about="">
        <dc:format>image/svg+xml</dc:format>
        <dc:type rdf:resource="http://purl.org/dc/dcmitype/StillImage" />
      </cc:Work>
    </rdf:RDF>
  </metadata>
  <defs id="defs6">
    <clipPath id="clipPath18" clipPathUnits="userSpaceOnUse">
      <path id="path16" d="M 0,236.576 H 722.019 V 0 H 0 Z" />
    </clipPath>
  </defs>
  <g transform="matrix(1.3333333,0,0,-1.3333333,0,315.43467)" id="g10">
    <g id="g12">
      <g clip-path="url(#clipPath18)" id="g14">
        <g transform="translate(479.5712,103.7476)" id="g20">
          <path id="path22" style="fill:#2f3a5e;fill-opacity:1;fill-rule:nonzero;stroke:none"
            d="m 0,0 c -0.383,0.38 -0.571,0.841 -0.571,1.386 v 44.523 l -0.163,0.978 -22.669,64.257 c -0.11,0.216 -0.163,0.489 -0.163,0.815 0,0.979 0.596,1.468 1.794,1.468 h 15.656 c 1.195,0 1.957,-0.546 2.283,-1.631 L 8.398,69.882 c 0.108,-0.326 0.271,-0.489 0.49,-0.489 0.216,0 0.38,0.163 0.489,0.489 l 12.231,41.914 c 0.327,1.085 1.086,1.631 2.284,1.631 h 15.656 c 0.652,0 1.141,-0.192 1.468,-0.571 0.326,-0.382 0.38,-0.953 0.163,-1.712 L 18.51,46.887 18.347,45.909 V 1.386 C 18.347,0.841 18.155,0.38 17.776,0 17.394,-0.382 16.933,-0.571 16.39,-0.571 H 1.386 C 0.841,-0.571 0.379,-0.382 0,0" />
        </g>
        <g transform="translate(582.0712,121.8501)" id="g24">
          <path id="path26" style="fill:#2f3a5e;fill-opacity:1;fill-rule:nonzero;stroke:none"
            d="m 0,0 c 2.283,2.553 3.425,5.896 3.425,10.03 v 56.428 c 0,4.13 -1.142,7.474 -3.425,10.03 -2.283,2.553 -5.274,3.832 -8.97,3.832 -3.697,0 -6.661,-1.279 -8.887,-3.832 -2.231,-2.556 -3.344,-5.9 -3.344,-10.03 V 10.03 c 0,-4.134 1.113,-7.477 3.344,-10.03 2.226,-2.556 5.19,-3.833 8.887,-3.833 3.696,0 6.687,1.277 8.97,3.833 m -31.557,-11.661 c -5.708,5.652 -8.562,13.154 -8.562,22.506 v 54.798 c 0,9.349 2.854,16.851 8.562,22.505 5.708,5.652 13.236,8.481 22.587,8.481 9.35,0 16.906,-2.829 22.669,-8.481 5.762,-5.654 8.644,-13.156 8.644,-22.505 V 10.845 c 0,-9.352 -2.882,-16.854 -8.644,-22.506 -5.763,-5.654 -13.319,-8.48 -22.669,-8.48 -9.351,0 -16.879,2.826 -22.587,8.48" />
        </g>
        <g transform="translate(640.2109,110.7603)" id="g28">
          <path id="path30" style="fill:#2f3a5e;fill-opacity:1;fill-rule:nonzero;stroke:none"
            d="m 0,0 c -5.602,6.034 -8.399,13.998 -8.399,23.892 v 80.565 c 0,0.543 0.188,1.004 0.571,1.386 0.379,0.38 0.841,0.571 1.386,0.571 H 8.562 c 0.542,0 1.003,-0.191 1.386,-0.571 0.379,-0.382 0.571,-0.843 0.571,-1.386 V 21.935 c 0,-4.35 1.085,-7.884 3.261,-10.601 2.174,-2.718 5.056,-4.077 8.644,-4.077 3.588,0 6.468,1.359 8.643,4.077 2.174,2.717 3.262,6.251 3.262,10.601 v 82.522 c 0,0.543 0.189,1.004 0.571,1.386 0.379,0.38 0.841,0.571 1.386,0.571 H 51.29 c 0.543,0 1.004,-0.191 1.387,-0.571 0.38,-0.382 0.57,-0.843 0.57,-1.386 V 23.892 C 53.247,13.998 50.419,6.034 44.767,0 39.112,-6.034 31.664,-9.051 22.424,-9.051 13.072,-9.051 5.598,-6.034 0,0" />
        </g>
        <g transform="translate(112.7695,103.7476)" id="g32">
          <path id="path34" style="fill:#2f3a5e;fill-opacity:1;fill-rule:nonzero;stroke:none"
            d="m 0,0 c -0.383,0.38 -0.571,0.841 -0.571,1.386 v 44.523 l -0.163,0.978 -22.669,64.257 c -0.11,0.216 -0.163,0.489 -0.163,0.815 0,0.979 0.596,1.468 1.794,1.468 h 15.656 c 1.195,0 1.957,-0.546 2.283,-1.631 L 8.398,69.882 c 0.108,-0.326 0.271,-0.489 0.49,-0.489 0.216,0 0.38,0.163 0.489,0.489 l 12.231,41.914 c 0.327,1.085 1.086,1.631 2.284,1.631 h 15.656 c 0.652,0 1.141,-0.192 1.468,-0.571 0.326,-0.382 0.379,-0.953 0.163,-1.712 L 18.51,46.887 18.347,45.909 V 1.386 C 18.347,0.841 18.155,0.38 17.776,0 17.394,-0.382 16.933,-0.571 16.39,-0.571 H 1.386 C 0.841,-0.571 0.379,-0.382 0,0" />
        </g>
        <g transform="translate(215.2695,121.8501)" id="g36">
          <path id="path38" style="fill:#2f3a5e;fill-opacity:1;fill-rule:nonzero;stroke:none"
            d="m 0,0 c 2.283,2.553 3.425,5.896 3.425,10.03 v 56.428 c 0,4.13 -1.142,7.474 -3.425,10.03 -2.283,2.553 -5.274,3.832 -8.97,3.832 -3.697,0 -6.661,-1.279 -8.887,-3.832 -2.231,-2.556 -3.344,-5.9 -3.344,-10.03 V 10.03 c 0,-4.134 1.113,-7.477 3.344,-10.03 2.226,-2.556 5.19,-3.833 8.887,-3.833 3.696,0 6.687,1.277 8.97,3.833 m -31.557,-11.661 c -5.708,5.652 -8.562,13.154 -8.562,22.506 v 54.798 c 0,9.349 2.854,16.851 8.562,22.505 5.708,5.652 13.236,8.481 22.587,8.481 9.35,0 16.906,-2.829 22.669,-8.481 5.762,-5.654 8.644,-13.156 8.644,-22.505 V 10.845 c 0,-9.352 -2.882,-16.854 -8.644,-22.506 -5.763,-5.654 -13.319,-8.48 -22.669,-8.48 -9.351,0 -16.879,2.826 -22.587,8.48" />
        </g>
        <g transform="translate(273.4091,110.7603)" id="g40">
          <path id="path42" style="fill:#2f3a5e;fill-opacity:1;fill-rule:nonzero;stroke:none"
            d="m 0,0 c -5.602,6.034 -8.399,13.998 -8.399,23.892 v 80.565 c 0,0.543 0.188,1.004 0.571,1.386 0.379,0.38 0.841,0.571 1.386,0.571 H 8.562 c 0.542,0 1.003,-0.191 1.386,-0.571 0.379,-0.382 0.571,-0.843 0.571,-1.386 V 21.935 c 0,-4.35 1.085,-7.884 3.261,-10.601 2.174,-2.718 5.056,-4.077 8.644,-4.077 3.588,0 6.468,1.359 8.643,4.077 2.174,2.717 3.262,6.251 3.262,10.601 v 82.522 c 0,0.543 0.189,1.004 0.571,1.386 0.379,0.38 0.841,0.571 1.386,0.571 H 51.29 c 0.543,0 1.004,-0.191 1.387,-0.571 0.38,-0.382 0.57,-0.843 0.57,-1.386 V 23.892 C 53.247,13.998 50.419,6.034 44.767,0 39.112,-6.034 31.664,-9.051 22.424,-9.051 13.072,-9.051 5.598,-6.034 0,0" />
        </g>
        <g transform="translate(404.5345,158.4965)" id="g44">
          <path id="path46" style="fill:#2f3a5e;fill-opacity:1;fill-rule:nonzero;stroke:none"
            d="m 0,0 c -1.138,0 -2.051,-0.394 -2.737,-1.181 -0.686,-0.786 -1.029,-1.816 -1.029,-3.087 v -17.374 c 0,-1.273 0.343,-2.303 1.029,-3.088 0.686,-0.787 1.599,-1.18 2.737,-1.18 1.137,0 2.059,0.393 2.761,1.18 0.704,0.785 1.055,1.815 1.055,3.088 v 17.374 c 0,1.271 -0.351,2.301 -1.055,3.087 C 2.059,-0.394 1.137,0 0,0" />
        </g>
        <g transform="translate(414.1749,137.1058)" id="g48">
          <path id="path50" style="fill:#2f3a5e;fill-opacity:1;fill-rule:nonzero;stroke:none"
            d="m 0,0 c 0,-2.879 -0.887,-5.19 -2.661,-6.929 -1.775,-1.741 -4.101,-2.612 -6.979,-2.612 -2.88,0 -5.198,0.871 -6.955,2.612 -1.757,1.739 -2.636,4.05 -2.636,6.929 v 16.871 c 0,2.878 0.879,5.189 2.636,6.93 1.757,1.739 4.075,2.611 6.955,2.611 2.878,0 5.204,-0.872 6.979,-2.611 C -0.887,22.06 0,19.749 0,16.871 Z m -25.308,21.591 c 0,-0.168 -0.058,-0.31 -0.175,-0.426 -0.118,-0.119 -0.26,-0.176 -0.427,-0.176 h -6.377 c -0.168,0 -0.251,-0.085 -0.251,-0.252 V -8.536 c 0,-0.169 -0.059,-0.31 -0.176,-0.428 -0.117,-0.117 -0.26,-0.175 -0.427,-0.175 h -4.619 c -0.168,0 -0.31,0.058 -0.427,0.175 -0.118,0.118 -0.176,0.259 -0.176,0.428 v 29.273 c 0,0.167 -0.084,0.252 -0.251,0.252 h -6.026 c -0.167,0 -0.309,0.057 -0.426,0.176 -0.118,0.116 -0.176,0.258 -0.176,0.426 v 3.816 c 0,0.168 0.058,0.309 0.176,0.427 0.117,0.117 0.259,0.176 0.426,0.176 h 18.73 c 0.167,0 0.309,-0.059 0.427,-0.176 0.117,-0.118 0.175,-0.259 0.175,-0.427 z M 2.841,35.02 c -1.07,18.35 -14.695,32.863 -31.351,32.863 -16.649,0 -30.264,-14.496 -31.351,-32.828 h -0.078 v -54.44 c 0,-3.673 2.977,-6.65 6.65,-6.65 H 2.034 v 0.018 c 19.232,0.364 34.698,13.885 34.698,30.527 0,16.408 -15.034,29.789 -33.891,30.51" />
        </g>
        <g transform="translate(31.5527,127.6162)" id="g52">
          <path id="path54" style="fill:#2f3a5e;fill-opacity:1;fill-rule:nonzero;stroke:none"
            d="m 0,0 c 0.109,-0.11 0.163,-0.242 0.163,-0.397 v -10.05 c 0,-0.156 0.078,-0.234 0.234,-0.234 h 8.834 c 0.157,0 0.234,0.078 0.234,0.234 v 5.936 c 0,0.156 0.055,0.288 0.163,0.398 0.11,0.109 0.242,0.163 0.397,0.163 h 3.6 c 0.156,0 0.288,-0.054 0.397,-0.163 0.11,-0.11 0.164,-0.242 0.164,-0.398 v -5.936 c 0,-0.156 0.078,-0.234 0.233,-0.234 h 13.228 c 0.157,0 0.289,-0.054 0.397,-0.163 0.11,-0.11 0.164,-0.242 0.164,-0.397 v -4.301 c 0,-0.156 -0.054,-0.288 -0.164,-0.397 -0.108,-0.109 -0.24,-0.164 -0.397,-0.164 H -3.95 c -0.155,0 -0.287,0.055 -0.398,0.164 -0.108,0.109 -0.163,0.241 -0.163,0.397 v 15.145 c 0,0.155 0.055,0.287 0.163,0.397 0.111,0.109 0.243,0.164 0.398,0.164 h 3.553 C -0.241,0.164 -0.109,0.109 0,0" />
        </g>
        <g transform="translate(31.9501,139.8853)" id="g56">
          <path id="path58" style="fill:#2f3a5e;fill-opacity:1;fill-rule:nonzero;stroke:none"
            d="M 0,0 H 9.301 C 9.457,0 9.535,0.078 9.535,0.234 V 3.085 C 9.535,4.207 9.099,5.118 8.226,5.819 7.354,6.521 6.169,6.871 4.674,6.871 3.178,6.871 1.986,6.521 1.098,5.819 0.21,5.118 -0.234,4.207 -0.234,3.085 V 0.234 C -0.234,0.078 -0.156,0 0,0 M 27.343,6.918 13.929,2.945 C 13.805,2.882 13.741,2.805 13.741,2.711 V 0.234 C 13.741,0.078 13.819,0 13.976,0 H 27.25 c 0.156,0 0.288,-0.055 0.396,-0.164 0.111,-0.109 0.165,-0.241 0.165,-0.397 v -4.3 c 0,-0.156 -0.054,-0.288 -0.165,-0.397 -0.108,-0.11 -0.24,-0.164 -0.396,-0.164 H -4.348 c -0.155,0 -0.287,0.054 -0.397,0.164 -0.109,0.109 -0.163,0.241 -0.163,0.397 v 8.787 c 0,1.652 0.397,3.109 1.191,4.371 0.795,1.262 1.917,2.244 3.366,2.944 1.449,0.701 3.108,1.052 4.978,1.052 1.933,0 3.599,-0.374 5.001,-1.122 1.402,-0.748 2.462,-1.792 3.179,-3.131 0.031,-0.125 0.125,-0.172 0.28,-0.141 l 14.069,4.581 c 0.063,0.031 0.141,0.047 0.234,0.047 0.28,0 0.421,-0.172 0.421,-0.514 V 7.525 c 0,-0.311 -0.156,-0.514 -0.468,-0.607" />
        </g>
        <g transform="translate(54.3623,170.5005)" id="g60">
          <path id="path62" style="fill:#2f3a5e;fill-opacity:1;fill-rule:nonzero;stroke:none"
            d="m 0,0 c -0.732,0.654 -1.69,0.981 -2.875,0.981 h -16.172 c -1.184,0 -2.142,-0.327 -2.875,-0.981 -0.731,-0.654 -1.099,-1.512 -1.099,-2.571 0,-1.059 0.368,-1.909 1.099,-2.547 0.733,-0.639 1.691,-0.958 2.875,-0.958 h 16.172 c 1.185,0 2.143,0.319 2.875,0.958 0.732,0.638 1.099,1.488 1.099,2.547 C 1.099,-1.512 0.732,-0.654 0,0 m 3.342,-9.044 c -1.62,-1.636 -3.77,-2.455 -6.45,-2.455 h -15.705 c -2.68,0 -4.831,0.819 -6.451,2.455 -1.62,1.635 -2.43,3.793 -2.43,6.473 0,2.68 0.81,4.845 2.43,6.497 1.62,1.652 3.771,2.477 6.451,2.477 h 15.705 c 2.68,0 4.83,-0.825 6.45,-2.477 1.621,-1.652 2.43,-3.817 2.43,-6.497 0,-2.68 -0.809,-4.838 -2.43,-6.473" />
        </g>
        <g transform="translate(27.0419,200.3213)" id="g64">
          <path id="path66" style="fill:#2f3a5e;fill-opacity:1;fill-rule:nonzero;stroke:none"
            d="m 0,0 v 4.3 c 0,0.156 0.055,0.288 0.163,0.397 0.11,0.109 0.242,0.164 0.398,0.164 h 31.597 c 0.156,0 0.288,-0.055 0.397,-0.164 0.11,-0.109 0.164,-0.241 0.164,-0.397 V 0 c 0,-0.156 -0.054,-0.289 -0.164,-0.397 -0.109,-0.11 -0.241,-0.164 -0.397,-0.164 H 10.096 c -0.124,0 -0.187,-0.031 -0.187,-0.093 0,-0.063 0.047,-0.125 0.14,-0.187 l 7.386,-4.067 c 0.25,-0.156 0.374,-0.296 0.374,-0.421 0,-0.125 -0.124,-0.265 -0.374,-0.42 l -7.386,-4.066 c -0.093,-0.063 -0.14,-0.125 -0.14,-0.187 0,-0.063 0.063,-0.094 0.187,-0.094 h 22.062 c 0.156,0 0.288,-0.055 0.397,-0.164 0.11,-0.109 0.164,-0.241 0.164,-0.397 v -4.3 c 0,-0.156 -0.054,-0.289 -0.164,-0.397 -0.109,-0.11 -0.241,-0.164 -0.397,-0.164 H 0.561 c -0.156,0 -0.288,0.054 -0.398,0.164 C 0.055,-15.246 0,-15.113 0,-14.957 v 4.3 c 0,0.311 0.125,0.545 0.374,0.701 l 7.992,4.534 c 0.125,0.093 0.125,0.187 0,0.28 L 0.374,-0.701 C 0.125,-0.545 0,-0.312 0,0" />
        </g>
        <g transform="translate(520.4355,23.17)" id="g68">
          <path id="path70" style="fill:#2d395e;fill-opacity:1;fill-rule:nonzero;stroke:none"
            d="m 0,0 c 0,3.305 -3.013,6 -6.792,6.145 -0.215,3.696 -2.945,6.619 -6.283,6.619 -3.337,0 -6.065,-2.92 -6.283,-6.612 h -0.016 V -4.813 c 0,-0.739 0.597,-1.339 1.333,-1.339 h 11.087 v 0.003 C -3.1,-6.075 0,-3.352 0,0" />
        </g>
        <g transform="translate(315.51,23.6911)" id="g72">
          <path id="path74" style="fill:#2d395e;fill-opacity:1;fill-rule:nonzero;stroke:none"
            d="m 0,0 c 1.019,1.198 1.53,2.901 1.53,5.106 0,2.243 -0.501,3.993 -1.501,5.25 -1.001,1.258 -2.387,1.887 -4.157,1.887 H -7 c -0.773,0 -1.4,-0.63 -1.4,-1.407 V -0.393 c 0,-0.777 0.627,-1.406 1.4,-1.406 h 2.814 C -2.416,-1.799 -1.02,-1.2 0,0 m -8.4,27.721 v -9.952 c 0,-0.777 0.627,-1.407 1.4,-1.407 h 2.526 c 1.808,0 3.213,0.552 4.214,1.654 1.001,1.102 1.501,2.64 1.501,4.613 0,2.05 -0.5,3.646 -1.501,4.787 -1.001,1.14 -2.406,1.712 -4.214,1.712 H -7 c -0.773,0 -1.4,-0.63 -1.4,-1.407 M 4.1,-3.772 C 2.116,-5.707 -0.491,-6.673 -3.724,-6.673 h -8.473 c -0.964,0 -1.746,0.786 -1.746,1.755 v 37.106 c 0,0.97 0.782,1.756 1.747,1.756 h 7.664 c 3.502,0 6.244,-0.92 8.228,-2.757 1.982,-1.837 2.973,-4.516 2.973,-8.035 0,-4.179 -1.482,-7.061 -4.446,-8.646 C 2.03,14.39 2.011,14.293 2.165,14.216 3.705,13.287 4.908,11.991 5.774,10.327 6.64,8.664 7.073,6.691 7.073,4.409 7.073,0.889 6.082,-1.838 4.1,-3.772" />
        </g>
        <g transform="translate(337.19,51.4918)" id="g76">
          <path id="path78" style="fill:#2d395e;fill-opacity:1;fill-rule:nonzero;stroke:none"
            d="m 0,0 v -10.808 c 0,-0.733 0.591,-1.327 1.32,-1.327 h 3.183 c 1.578,0 2.848,0.61 3.81,1.828 0.962,1.218 1.444,2.833 1.444,4.846 0,2.088 -0.482,3.742 -1.444,4.96 C 7.351,0.718 6.081,1.327 4.503,1.327 H 1.32 C 0.591,1.327 0,0.733 0,0 m 9.814,-34.01 -5.311,17.292 c -0.039,0.116 -0.115,0.174 -0.231,0.174 H 1.32 C 0.591,-16.544 0,-17.138 0,-17.871 v -14.928 c 0,-0.925 -0.746,-1.675 -1.667,-1.675 h -2.21 c -0.92,0 -1.666,0.75 -1.666,1.675 V 4.467 c 0,0.926 0.746,1.676 1.667,1.676 h 9.245 c 1.963,0 3.695,-0.485 5.196,-1.451 1.502,-0.967 2.665,-2.331 3.494,-4.09 0.827,-1.761 1.241,-3.763 1.241,-6.005 0,-2.438 -0.501,-4.556 -1.501,-6.354 -1.002,-1.799 -2.367,-3.105 -4.1,-3.917 -0.116,-0.116 -0.154,-0.232 -0.116,-0.348 l 5.89,-17.814 0.058,-0.232 c 0,-0.271 -0.174,-0.406 -0.52,-0.406 h -4.504 c -0.346,0 -0.577,0.154 -0.693,0.464" />
        </g>
        <g transform="translate(367.2113,28.8548)" id="g80">
          <path id="path82" style="fill:#2d395e;fill-opacity:1;fill-rule:nonzero;stroke:none"
            d="M 0,0 H 7.679 C 7.795,0 7.852,0.077 7.852,0.232 L 3.926,20.831 c -0.039,0.077 -0.078,0.116 -0.116,0.116 -0.039,0 -0.077,-0.039 -0.115,-0.116 L -0.173,0.232 C -0.173,0.077 -0.115,0 0,0 m 10.104,-11.315 -1.27,6.673 c 0,0.078 -0.029,0.136 -0.087,0.175 -0.058,0.038 -0.125,0.058 -0.202,0.058 h -9.411 c -0.078,0 -0.144,-0.02 -0.202,-0.058 -0.058,-0.039 -0.087,-0.097 -0.087,-0.175 l -1.212,-6.673 c -0.039,-0.348 -0.251,-0.522 -0.635,-0.522 h -4.389 c -0.193,0 -0.337,0.058 -0.433,0.174 -0.096,0.116 -0.125,0.27 -0.086,0.464 l 8.603,39.456 c 0.076,0.348 0.288,0.523 0.635,0.523 h 5.139 c 0.384,0 0.596,-0.175 0.635,-0.523 l 8.66,-39.456 v -0.116 c 0,-0.348 -0.174,-0.522 -0.52,-0.522 h -4.503 c -0.346,0 -0.558,0.174 -0.635,0.522" />
        </g>
        <g transform="translate(396.8294,21.8336)" id="g84">
          <path id="path86" style="fill:#2d395e;fill-opacity:1;fill-rule:nonzero;stroke:none"
            d="m 0,0 4.214,0.058 c 1.464,0 2.637,0.57 3.523,1.713 0.885,1.14 1.347,2.697 1.385,4.67 v 18.104 c 0,1.973 -0.442,3.539 -1.327,4.699 -0.886,1.161 -2.079,1.741 -3.581,1.741 H 1.089 c -0.729,0 -1.32,-0.594 -1.32,-1.327 V 0.232 C -0.231,0.077 -0.154,0 0,0 m -5.773,-3.141 v 37.267 c 0,0.925 0.746,1.676 1.667,1.676 h 8.378 c 3.195,0 5.735,-0.988 7.622,-2.96 1.885,-1.973 2.828,-4.642 2.828,-8.007 V 6.151 c 0,-3.365 -0.943,-6.035 -2.828,-8.008 -1.887,-1.972 -4.427,-2.959 -7.622,-2.959 h -8.379 c -0.92,0 -1.666,0.75 -1.666,1.675" />
        </g>
        <g transform="translate(439.2155,52.8186)" id="g88">
          <path id="path90" style="fill:#2d395e;fill-opacity:1;fill-rule:nonzero;stroke:none"
            d="m 0,0 h -10.812 c -0.729,0 -1.32,-0.594 -1.32,-1.327 v -10.401 c 0,-0.733 0.591,-1.327 1.32,-1.327 h 5.788 c 0.921,0 1.667,-0.75 1.667,-1.675 v -1.466 c 0,-0.925 -0.746,-1.675 -1.667,-1.675 h -5.788 c -0.729,0 -1.32,-0.594 -1.32,-1.327 v -10.46 c 0,-0.733 0.591,-1.327 1.32,-1.327 H 0 c 0.92,0 1.667,-0.75 1.667,-1.675 v -1.466 c 0,-0.925 -0.747,-1.675 -1.667,-1.675 h -16.009 c -0.92,0 -1.666,0.75 -1.666,1.675 V 3.141 c 0,0.925 0.746,1.676 1.667,1.676 L 0,4.817 c 0.92,0 1.667,-0.75 1.667,-1.675 V 1.675 C 1.667,0.75 0.92,0 0,0" />
        </g>
        <g transform="translate(455.7778,51.4918)" id="g92">
          <path id="path94" style="fill:#2d395e;fill-opacity:1;fill-rule:nonzero;stroke:none"
            d="m 0,0 v -10.808 c 0,-0.733 0.591,-1.327 1.32,-1.327 h 3.183 c 1.578,0 2.848,0.61 3.81,1.828 0.962,1.218 1.444,2.833 1.444,4.846 0,2.088 -0.482,3.742 -1.444,4.96 C 7.351,0.718 6.081,1.327 4.503,1.327 H 1.32 C 0.591,1.327 0,0.733 0,0 m 9.814,-34.01 -5.311,17.292 c -0.039,0.116 -0.115,0.174 -0.231,0.174 H 1.32 C 0.591,-16.544 0,-17.138 0,-17.871 v -14.928 c 0,-0.925 -0.746,-1.675 -1.667,-1.675 h -2.21 c -0.92,0 -1.666,0.75 -1.666,1.675 V 4.467 c 0,0.926 0.746,1.676 1.667,1.676 h 9.245 c 1.963,0 3.695,-0.485 5.196,-1.451 1.502,-0.967 2.665,-2.331 3.494,-4.09 0.827,-1.761 1.241,-3.763 1.241,-6.005 0,-2.438 -0.501,-4.556 -1.501,-6.354 -1.002,-1.799 -2.367,-3.105 -4.1,-3.917 -0.116,-0.116 -0.154,-0.232 -0.116,-0.348 l 5.89,-17.814 0.058,-0.232 c 0,-0.271 -0.174,-0.406 -0.52,-0.406 h -4.504 c -0.346,0 -0.577,0.154 -0.693,0.464" />
        </g>
        <g transform="translate(485.5681,18.7509)" id="g96">
          <path id="path98" style="fill:#2d395e;fill-opacity:1;fill-rule:nonzero;stroke:none"
            d="m 0,0 v 15.5 l -0.058,0.291 -8.025,22.454 -0.058,0.232 c 0,0.27 0.173,0.407 0.52,0.407 h 4.619 c 0.346,0 0.577,-0.156 0.693,-0.465 L 2.598,22.405 c 0.038,-0.078 0.096,-0.116 0.173,-0.116 0.077,0 0.135,0.038 0.173,0.116 l 4.908,16.014 c 0.116,0.309 0.347,0.465 0.693,0.465 h 4.619 c 0.423,0 0.577,-0.214 0.462,-0.639 L 5.601,15.791 5.543,15.5 V 0 c 0,-0.925 -0.746,-1.675 -1.666,-1.675 H 1.667 C 0.746,-1.675 0,-0.925 0,0" />
        </g>
        <g transform="translate(279.2354,31.4902)" id="g100">
          <path id="path102" style="fill:#2d395e;fill-opacity:1;fill-rule:nonzero;stroke:none"
            d="M 0,0 H 0.381 C 0.712,0 0.98,-0.269 0.98,-0.602 v -1.681 c 0,-0.269 0.217,-0.487 0.484,-0.487 h 10.647 c 0.33,0 0.598,-0.269 0.598,-0.601 v -0.632 c 0,-0.332 -0.268,-0.601 -0.598,-0.601 H 1.464 c -0.267,0 -0.484,-0.218 -0.484,-0.487 v -1.548 c 0,-0.332 -0.268,-0.602 -0.599,-0.602 h -0.38 c -0.331,0 -0.599,0.27 -0.599,0.602 v 6.038 C -0.598,-0.269 -0.33,0 0,0" />
        </g>
        <g transform="translate(278.6376,39.6189)" id="g104">
          <path id="path106" style="fill:#2d395e;fill-opacity:1;fill-rule:nonzero;stroke:none"
            d="m 0,0 v 0.632 c 0,0.332 0.268,0.601 0.599,0.601 h 12.109 c 0.331,0 0.599,-0.269 0.599,-0.601 V 0 c 0,-0.332 -0.268,-0.601 -0.598,-0.601 H 7.918 c -0.268,0 -0.485,-0.218 -0.485,-0.487 v -2.064 c 0,-0.269 0.217,-0.487 0.484,-0.487 h 4.791 c 0.331,0 0.599,-0.269 0.599,-0.601 v -0.632 c 0,-0.332 -0.268,-0.601 -0.598,-0.601 H 0.599 C 0.268,-5.473 0,-5.203 0,-4.871 v 0.631 c 0,0.332 0.268,0.601 0.599,0.601 h 4.772 c 0.267,0 0.484,0.218 0.484,0.487 v 2.064 c 0,0.269 -0.217,0.487 -0.485,0.487 H 0.598 C 0.268,-0.601 0,-0.332 0,0" />
        </g>
        <g transform="translate(280.2153,49.8019)" id="g108">
          <path id="path110" style="fill:#2d395e;fill-opacity:1;fill-rule:nonzero;stroke:none"
            d="m 0,0 v -3.477 c 0,-0.269 0.217,-0.487 0.484,-0.487 h 3.309 c 0.268,0 0.485,0.218 0.485,0.487 v 1.815 c 0,0.333 0.268,0.602 0.598,0.602 h 0.381 c 0.33,0 0.598,-0.269 0.598,-0.602 v -1.815 c 0,-0.269 0.217,-0.487 0.484,-0.487 h 3.329 c 0.267,0 0.484,0.218 0.484,0.487 v 3.478 c 0,0.332 0.267,0.601 0.597,0.601 h 0.382 c 0.33,0 0.598,-0.27 0.598,-0.602 v -5.197 c 0,-0.332 -0.267,-0.601 -0.597,-0.601 H -0.979 c -0.331,0 -0.599,0.27 -0.599,0.602 v 5.197 c 0,0.332 0.268,0.601 0.598,0.601 h 0.381 C -0.268,0.602 0,0.332 0,0" />
        </g>
      </g>
    </g><text id="text114"
      style="font-variant:normal;font-weight:normal;font-stretch:normal;font-size:36px;font-family:'Work Sans';-inkscape-font-specification:WorkSans-Regular;writing-mode:lr-tb;fill:#2f3a5e;fill-opacity:1;fill-rule:nonzero;stroke:none"
      transform="matrix(1,0,0,-1,218.5723,27.4331)">
      <tspan id="tspan112" y="0" x="0 22.032">by</tspan>
    </text>
  </g>
</svg>