<svg id="Calque_1" data-name="Calque 1" xmlns="http://www.w3.org/2000/svg" viewBox="0 0 317.8 185.83">
  <defs>
    <style>
      .cls-1 {
        fill: #2ea5a2;
      }

      .cls-2 {
        fill: #aad1d1;
      }

      .cls-3 {
        fill: #fff;
      }

      .cls-4 {
        fill: none;
        stroke: #fff;
        stroke-miterlimit: 10;
        stroke-width: 6px;
      }
    </style>
  </defs>
  <path class="cls-1"
    d="M336.15-189a23.4,23.4,0,0,1,23.4-23.39A23.39,23.39,0,0,1,382.94-189a23.39,23.39,0,0,1-23.39,23.39A23.4,23.4,0,0,1,336.15-189"
    transform="translate(-146.69 212.51)" />
  <polygon class="cls-1" points="155.47 0 128.3 40.08 142.55 40.08 155.46 21.03 168.37 40.08 182.63 40.08 155.47 0" />
  <polygon class="cls-2" points="142.55 40.08 168.37 40.08 155.46 21.03 142.55 40.08" />
  <polygon class="cls-1"
    points="112.43 31.4 112.43 11.77 125.73 11.77 133.71 0 79.39 0 87.36 11.77 100.66 11.77 100.67 31.4 106.55 40.08 112.43 31.4" />
  <polygon class="cls-2" points="87.36 11.77 100.67 31.4 100.66 11.77 87.36 11.77" />
  <polygon class="cls-2" points="112.43 31.4 125.73 11.77 112.43 11.77 112.43 31.4" />
  <path class="cls-2"
    d="M349.8-189.47a9.83,9.83,0,0,1,9.82-9.83,9.83,9.83,0,0,1,9.83,9.83,9.83,9.83,0,0,1-9.83,9.82,9.82,9.82,0,0,1-9.82-9.82"
    transform="translate(-146.69 212.51)" />
  <path class="cls-3"
    d="M149.53-69.19a2.86,2.86,0,0,1-2.62-3.89l19.45-51c1.21-3.52,6.64-1.4,5.25,2l-7.54,19.77c6.26-11.11,39.32-60.31,38.64-21.88-1.18,11.33-7.05,23.53-6.84,35,8-1.2,14.66-10.5,19.9-16.33a2.92,2.92,0,0,1,3.93-.56c4.87,4.9-15.89,21.15-20.93,22.17-19.65,3.6.48-34.75-1.31-44.72C194.3-149.68,154.83-70.87,149.53-69.19Z"
    transform="translate(-146.69 212.51)" />
  <path class="cls-3"
    d="M231.83-83.64c-31.66,1.6-12.23-57.2,11.81-42.77,10.58,10.87-13,25.18-22.85,25-1.32,19.19,23.14,11.35,32.52,4.44,2.51-1.62,6.59,2.48,4.15,4.11C250-88,240.94-83.66,231.83-83.64Zm4.48-39.66c-7.56.73-12.18,9.55-14.42,16.22C227.37-106.59,249.69-121,236.31-123.3Z"
    transform="translate(-146.69 212.51)" />
  <path class="cls-3"
    d="M386-105.63c4.5,3.37-2.83,9.61-5.52,13.44-14.13,16.4-34.53,9.39-28.41-13.44,1.37-4.83,2-11.28,5.19-14.06,2.1-1,4.78,1.5,3.71,3.72-10.09,22.7-.68,39.75,18.69,15.84C381.65-103,382.34-106.2,386-105.63Zm-24.84-21c-4,.15-6.08-5.27-3.23-8C364.37-140.34,369.6-127.29,361.12-126.63Z"
    transform="translate(-146.69 212.51)" />
  <path class="cls-3"
    d="M384.46-107.44c6.54,5.69,19.58,8.18,26.71,4.06,8.74,11.89-23,7.71-28.21,1.55C378.49-84.9,384.44-107.76,384.46-107.44Z"
    transform="translate(-146.69 212.51)" />
  <path class="cls-3"
    d="M427-80.81c-27.89,2.87-19.78-42.79,1.27-45.61,24.66,2.42-.44,28.91-13.64,28.73,2.67,26.21,36.49,1.13,44.92-8.9a2.84,2.84,0,0,1,4.91,1.8C457-93.19,441.31-82.63,427-80.81Zm1.44-39.88c-7.48,1.3-11.42,10.45-13.15,17.27C420.83-103.36,442-119.46,428.47-120.69Z"
    transform="translate(-146.69 212.51)" />
  <path class="cls-3"
    d="M350.88-135.06c-3.77,9.79-15.42,21.58-23.36,25.17-7.69,9.48,1.83,26.81,13.33,22.27,5.58-.76,9.36-12.11,12.81-9,5.71,13.19-34.58,33.94-34.58-11.29C321.84-205.22,394.3-243.32,350.88-135.06Zm-26.69,17.23c.19,1.08.51,1.68,1,1.9,17.77-6.62,29.38-44.13,28.39-41.52,5-17.18,10.05-51.5-7.12-27C336.17-169.07,325.17-136,324.19-117.83Z"
    transform="translate(-146.69 212.51)" />
  <path class="cls-3"
    d="M265.75-128.84c-2.09,6.6-4.69,13.2-6,20.19-2,7-.06,28.58,9.93,14.87,5.59-6,8.76-15.16,9.87-23.11.28-4.55,7.43-4,7,.52-8.08,24.46,4.54,40.09,15.84,9.22-24.49-21.55,15.75-46.47,8.44-4.55,3.44.86,9.33-3.42,14.16-3,8.94,7.38-12.55,10.51-15.84,9.74-3.13,15.78-23.72,33.19-31,11.69-14.68,21.49-30.86,3-25.25-16.56a152.21,152.21,0,0,1,6.16-21C260.37-135.18,267-132.91,265.75-128.84Zm38.95,1.56C296-126,299.49-113.6,306-110.92,307.26-115,307.1-122.93,304.7-127.28Z"
    transform="translate(-146.69 212.51)" />
  <path class="cls-4"
    d="M385.3-99.86c14.35-16,45.72-52.75,46.9-73,.15-2.63.55-9.53-2.32-11-3.46-1.75-9.79,5.43-12.47,8.52-15.79,18.2-22.57,42.7-35.84,79.45-5.3,14.68-11.26,30.26-9.85,50.55.2,2.87,1,15.14,4.13,15.59,3.37.49,7.95-13.26,9.83-21.3C388.1-61.35,390.12-77.85,385.3-99.86Z"
    transform="translate(-146.69 212.51)" />
</svg>