<svg width="1520" height="439" viewBox="0 0 1520 439" fill="none" xmlns="http://www.w3.org/2000/svg">
  <path fill-rule="evenodd" clip-rule="evenodd"
    d="M779.996 0C843.713 0 886.191 38.9161 886.191 105.932C886.191 190.246 831.834 270.597 738.958 270.597C675.245 270.597 632.767 231.681 632.767 164.665C632.767 80.3509 687.12 0 779.996 0ZM45.7193 4.68583V128.994L156.589 4.68583H210.946L114.115 110.977L197.432 232.954L329.862 4.68583H377.737L421.297 265.911H374.859L366.58 211.504H257.866L227.626 265.911H165.949L83.8748 144.126L45.7193 185.923V265.911H0V4.68583H45.7193ZM521.052 4.68583C578.287 4.68583 631.926 14.0537 631.926 86.8369C631.926 152.775 583.328 167.188 521.771 167.188H480.733V265.911H435.018V4.68583H521.052ZM1379.5 4.68583V227.358H1510.89V265.911H1333.78V4.68583H1379.5ZM980.485 4.68583C1057.52 4.68583 1096.76 21.9806 1096.76 79.9916C1096.76 113.5 1080.2 136.202 1047.8 147.37L1093.38 237.804L1228.63 4.68583H1276.51L1320.06 265.911H1273.62L1265.35 211.504H1156.64L1126.4 265.911H1056.08L1001 155.657C996.683 156.02 992.001 156.02 987.323 156.02H943.044V265.911H897.329V4.68583H980.485ZM774.599 37.4714C709.441 37.4714 680.282 108.454 680.282 161.061C680.282 198.173 697.921 233.122 744.359 233.122C809.513 233.122 838.672 162.143 838.672 109.536C838.672 72.424 821.033 37.4714 774.599 37.4714ZM343.541 57.6518L278.746 173.674H360.82L343.541 57.6518ZM1242.31 57.6518L1177.52 173.674H1259.59L1242.31 57.6518ZM521.052 41.4348H480.733V129.713H523.211C557.77 129.713 584.406 124.668 584.406 87.1962C584.406 50.2841 560.798 42.9735 533.609 41.6902L531.613 41.6067L530.611 41.5724L528.711 41.5151C526.174 41.4577 523.613 41.4348 521.052 41.4348ZM988.215 41.4368L943.044 41.4348V119.626H988.401C1027.64 119.626 1049.96 111.699 1049.96 80.3509C1049.96 46.1206 1022.96 41.4348 986.963 41.4348L988.215 41.4368Z"
    fill="#0E0D12" />
  <path
    d="M925.326 307.143L962.679 416.544H982.527L1020.97 307.143H1000.66L982.058 366.063C979.714 373.409 975.025 389.194 973.306 394.976H972.994C971.431 389.037 966.898 374.19 964.242 365.594L945.8 307.143H925.326Z"
    fill="#0E0D12" />
  <path d="M1042.23 307.143H1022.69V416.544H1042.23V307.143Z" fill="#0E0D12" />
  <path
    d="M1075.73 307.143H1055.1V416.544H1074.32V360.593C1074.32 352.779 1074.01 343.87 1073.85 336.525H1074.16C1079.32 345.277 1085.1 355.123 1090.73 363.875L1124.33 416.544H1145.12V307.143H1125.74V361.687C1125.74 369.501 1126.05 379.973 1126.21 387.318H1125.9C1121.83 379.973 1116.83 371.377 1111.99 363.719L1075.73 307.143Z"
    fill="#0E0D12" />
  <path d="M1236.47 322.772V307.143H1148.17V322.772H1182.56V416.544H1202.09V322.772H1236.47Z" fill="#0E0D12" />
  <path
    d="M1219.72 416.544H1239.72L1254.88 389.662H1296.61L1300.05 416.544H1318.8L1302.7 307.143H1282.86L1219.72 416.544ZM1289.26 326.21C1289.58 331.211 1290.2 340.276 1291.61 350.434L1294.73 374.346H1263.48L1276.6 350.278C1282.07 340.276 1286.29 331.524 1288.95 326.21H1289.26Z"
    fill="#0E0D12" />
  <path
    d="M1375.47 403.416C1354.06 403.416 1343.12 386.224 1343.12 362.312C1343.12 338.4 1353.75 320.427 1375.16 320.427C1391.41 320.427 1401.1 331.055 1402.82 342.62H1421.11C1417.51 319.021 1399.38 305.111 1375.16 305.111C1341.87 305.111 1323.43 330.273 1323.43 362.312C1323.43 394.038 1341.87 418.575 1372.97 418.575C1390.16 418.575 1400.01 411.23 1404.85 404.822H1405.17L1406.1 416.544H1421.73V358.874H1376.57V374.034H1405.17C1404.07 391.538 1394.07 403.416 1375.47 403.416Z"
    fill="#0E0D12" />
  <path
    d="M1505.72 351.685H1451.8V322.772H1511.82V307.143H1432.58V416.544H1512.6V401.071H1451.8V367.313H1505.72V351.685Z"
    fill="#0E0D12" />
</svg>