<?xml version="1.0" encoding="utf-8"?>
<!-- Generator: Adobe Illustrator 25.2.2, SVG Export Plug-In . SVG Version: 6.00 Build 0)  -->
<svg version="1.1" id="Calque_1" xmlns="http://www.w3.org/2000/svg" xmlns:xlink="http://www.w3.org/1999/xlink" x="0px"
  y="0px" viewBox="0 0 346.2 52.5" style="enable-background:new 0 0 346.2 52.5;" xml:space="preserve">
  <style type="text/css">
    .st0 {
      fill: #a0c592;
    }
  </style>
  <g>
    <path d="M22.2,11.2c-14.2,0-21.6,10-21.6,20c0,9.9,7.4,20,21.6,20s21.6-10,21.6-20C43.8,21.2,36.4,11.2,22.2,11.2 M22.2,39.4
		c-5.5,0-8.4-4.3-8.4-8.3s2.9-8.3,8.4-8.3s8.4,4.3,8.4,8.3C30.6,35.1,27.7,39.4,22.2,39.4" />
    <path
      d="M77.9,49.7l-7.2-15.9c3.6-1.7,5.6-5,5.6-9.2c0-7.9-5.7-12.6-15.2-12.6H46.2h-0.3v0.3v38.4v0.4h0.4l11.8-0.9h0.3v-0.3V36.1
		l5.8,14.8l0.1,0.2h0.2l13-0.9H78L77.9,49.7z M59.6,31.7h-1.2v-8.3h1.2c3.3,0,3.8,2.6,3.8,4.1C63.4,29.1,63,31.7,59.6,31.7" />
    <path d="M90.8,31.1c0-5.1,3.7-8.3,9.6-8.3c2.7,0,4.2,0.5,6.4,1.4l0.6,0.2l-0.1-0.6l-2.1-11.7v-0.2l-0.2-0.1
		c-1.5-0.4-3.3-0.8-5.7-0.8c-12.7,0-21.6,8.3-21.6,20.3c0,11.2,8.9,19.6,20.7,19.6c2.7,0,5.3-0.3,7.4-0.9l0.2-0.1v-0.2l1.7-11.9
		l0.1-0.6l-0.6,0.3c-2.2,1.2-4.2,1.7-7,1.7C95.5,39.4,90.8,36.6,90.8,31.1" />
    <polygon points="143,50.2 143.3,50.2 143.3,49.9 143.3,11.5 143.3,11.2 143,11.2 130.4,12.1 130.1,12.1 130.1,12.4 130.1,24.8 
		123.3,24.8 123.3,11.5 123.3,11.2 122.9,11.2 110.3,12.1 110,12.1 110,12.4 110,50.8 110,51.1 110.4,51.1 122.9,50.2 123.3,50.2 
		123.3,49.9 123.3,36.2 130.1,36.2 130.1,50.8 130.1,51.1 130.5,51.1 	" />
    <polygon points="173,39.6 173.1,39.2 172.7,39.2 160.1,39.2 160.1,35.8 167.6,35.8 168,35.8 168,35.5 168,26.2 168,25.8 
		167.6,25.8 160.1,25.8 160.1,22.8 171.8,22.8 172.2,22.8 172.1,22.4 169.6,12.3 169.6,12.1 169.3,12.1 147.2,12.1 146.9,12.1 
		146.9,12.4 146.9,49.9 146.9,50.2 147.2,50.2 170.1,50.2 170.4,50.2 170.4,50 	" />
    <path d="M200,23.6l0.4,0.1v-0.4V12.5v-0.3l-0.3-0.1c-3-0.6-7.1-1-10.6-1c-9.7,0-15.8,4.8-15.8,12.6c0,8,6.6,10.2,11,11.7
		c2.3,0.8,4.1,1.4,4.1,2.5c0,0.8-0.5,1.7-4.5,1.7c-2.9,0-6.3-0.4-9.8-1.1l-0.4-0.1v0.4v10.7v0.3l0.3,0.1l0.3,0.1
		c3.2,0.6,5.8,1,9.6,1c11.6,0,18.3-4.7,18.3-12.9c0-8-7.1-10.5-11.8-12.2c-2.1-0.7-3.9-1.4-3.9-2.2c0-1.5,2.2-1.6,4.6-1.6
		C194.2,22.2,197.7,22.9,200,23.6" />
    <path class="st0" d="M338,39.3c-4.7,0-9.4-2.8-9.4-8.3c0-5.1,3.7-8.3,9.7-8.3c2.7,0,4.2,0.5,6.4,1.4l0.6,0.2l-0.1-0.6L343,12v-0.2
		l-0.2-0.1c-1.6-0.4-3.3-0.8-5.7-0.8c-12.8,0-21.7,8.4-21.7,20.4c0,11.2,8.9,19.7,20.8,19.7c2.7,0,5.3-0.3,7.5-0.9l0.2-0.1v-0.2
		l1.7-12l0.1-0.7l-0.6,0.3C342.7,38.8,340.8,39.3,338,39.3z" />
    <path class="st0" d="M264.9,33.7c3.6-1.7,5.7-5,5.7-9.2c0-7.9-5.7-12.6-15.2-12.6h-14.9H240v0.3v38.5v0.4h0.4l11.9-0.9h0.3v-0.3
		v-14l5.9,14.9l0.1,0.2h0.2l13.1-0.9h0.5l-0.2-0.4L264.9,33.7z M253.8,31.6h-1.2v-8.3h1.2c3.4,0,3.9,2.6,3.9,4.1
		C257.6,28.9,257.1,31.6,253.8,31.6z" />
    <polygon class="st0"
      points="210.7,11.8 210.4,11.8 210.4,12.1 207.7,23.2 207.6,23.6 208,23.6 216.3,23.6 216.3,50.7 216.3,51.1 
		216.7,51 229.3,50.2 229.6,50.1 229.6,49.8 229.6,23.6 236.7,23.6 237.1,23.6 237.1,23.3 237.1,12.2 237.1,11.8 236.7,11.8 	" />
    <polygon points="204.1,11 206,0.6 213.1,0.6 210.7,6.9 	" />
    <path class="st0" d="M309.1,19.8l-1.6,6.8l-6.8,1.6c1.4,3.2,0.8,7.1-1.9,9.7c-2.6,2.6-6.5,3.2-9.7,1.9l-7.3,1.2l-1.1,7.2
		c7.9,5.7,19.1,5,26.2-2.1C314.2,38.9,314.9,27.7,309.1,19.8z" />
    <path class="st0" d="M284.6,35.1c-1.4-3.2-0.8-7.1,1.9-9.7c2.6-2.6,6.5-3.2,9.7-1.9l7.4-1.3l0.9-7c-7.9-5.7-19.1-5-26.2,2.1
		s-7.8,18.3-2.1,26.2l1.3-7.2L284.6,35.1z" />
  </g>
</svg>